<svg width="15" height="16" viewBox="0 0 15 16" fill="none" xmlns="http://www.w3.org/2000/svg">
<g opacity="0.6">
<path fill-rule="evenodd" clip-rule="evenodd" d="M6.5 11.1429C9.06418 11.1429 11.1429 9.06418 11.1429 6.5C11.1429 3.93582 9.06418 1.85714 6.5 1.85714C3.93582 1.85714 1.85714 3.93582 1.85714 6.5C1.85714 9.06418 3.93582 11.1429 6.5 11.1429ZM6.5 13C10.0899 13 13 10.0899 13 6.5C13 2.91015 10.0899 0 6.5 0C2.91015 0 0 2.91015 0 6.5C0 10.0899 2.91015 13 6.5 13Z" fill="black"/>
<path fill-rule="evenodd" clip-rule="evenodd" d="M13.2929 15.7072L9.29289 11.7072L10.7071 10.293L14.7071 14.293L13.2929 15.7072Z" fill="black"/>
</g>
</svg>
