<svg width="82" height="64" fill="none" xmlns="http://www.w3.org/2000/svg"><path d="M62.274 35.93a.737.737 0 00-.506.91c.248.872.035 1.779-.53 2.256-.771.652-2.16.546-2.803-.213-.45-.532-.425-1.246-.392-1.528a.736.736 0 00-.941-.789c-.188.056-1.164.306-1.95-.263-.845-.613-1.1-1.89-.568-2.847a2.274 2.274 0 011.932-1.146c1.009-.025 1.937-.354 2.684-.952L70.637 22.2a.737.737 0 00-.92-1.149L58.28 30.21c-.494.395-1.116.612-1.8.629a3.75 3.75 0 00-3.182 1.902c-1.292 2.322.186 5.551 3.29 5.39.37 2.909 3.815 3.598 5.6 2.091 1-.845 1.4-2.366.996-3.785a.736.736 0 00-.91-.506z" fill="#009B97"/><path d="M74.142 25.522a.737.737 0 00-.991-.318 43.715 43.715 0 00-10.13 7.204.736.736 0 101.015 1.066 42.242 42.242 0 019.788-6.96.736.736 0 00.318-.992zM58.183 46.585a3.906 3.906 0 00-1.576 2.547c-.448 2.733-.344 5.55.307 8.37a.736.736 0 001.435-.331c-.608-2.633-.706-5.258-.29-7.801.105-.642.46-1.22.975-1.584a.737.737 0 00-.299-1.332.736.736 0 00-.552.13z" fill="#009B97"/><path d="M58.048 43.05a.737.737 0 10.291-1.444c-1.192-.24-2.419.338-3.14 1.395-.878-.459-1.917-.492-2.796-.045-1.87.95-2.39 3.962-.118 5.594.75.54 1.152 1.43 1.048 2.321l-.766 6.54a.736.736 0 001.462.172l.766-6.54a3.984 3.984 0 00-1.65-3.688c-.51-.366-.83-.878-.88-1.404-.04-.42.077-1.313.805-1.683.597-.303 1.353-.161 1.881.353a.736.736 0 001.209-.284c.341-.975 1.228-1.42 1.888-1.288zm-5.384-3.795c.106-1.982-1.284-4.445-3.032-4.38-1.71.065-2.603 2.093-2.731 4.074-.128 1.976.496 4.096 2.177 4.38 1.738.292 3.477-2.03 3.586-4.074zm-3.342 2.622c-.63-.106-1.048-1.35-.952-2.834.096-1.488.675-2.672 1.318-2.697.53-.02 1.585 1.353 1.506 2.83-.08 1.525-1.341 2.79-1.872 2.701z" fill="#009B97"/><path d="M47.249 31.523c4.961-5.455 12.081-9.764 21.962-14.949a.736.736 0 00-.684-1.303c-10.023 5.259-17.26 9.646-22.367 15.262a10.792 10.792 0 00-2.517 9.799c1.377 5.71 1.814 11.652 1.297 17.664a.736.736 0 101.467.126c.53-6.17.081-12.271-1.333-18.135a9.321 9.321 0 012.175-8.464zm17.964 10.598a.737.737 0 10-1.356.574 21.605 21.605 0 01.698 14.98.737.737 0 001.404.446 23.076 23.076 0 00-.746-16zm15.526-13.359a.735.735 0 00-1.037.09 56.95 56.95 0 01-11.094 10.126.735.735 0 10.84 1.208A58.407 58.407 0 0080.828 29.8a.735.735 0 00-.09-1.037z" fill="#009B97"/><path fill-rule="evenodd" clip-rule="evenodd" d="M4.313 34.487c2.476-.56 2.915-.61 4.005-.411.928.17 1.88.152 2.8-.055l13.74-3.075c2.715-.607 3.141-4.274.686-5.517a2.952 2.952 0 00-.996-4.453c.181-.233.327-.492.433-.768l11.955 7.582a.7.7 0 00.429.101l3.915-.405c.207-.021.484-.126.713-.309l4.617 2.929a.671.671 0 00.719-1.133l-4.618-2.93a1.466 1.466 0 00-.024-.775l-1.303-3.714a.687.687 0 00-.273-.345l-4.599-2.916a.671.671 0 00-.718 1.133l4.03 2.557-2.736 4.314-1.047-.663.286-.452a.672.672 0 00-.713-1.014.67.67 0 00-.42.296l-.286.45-1.173-.743.286-.451a.67.67 0 10-1.133-.72l-.286.452-1.173-.744.286-.45a.67.67 0 00-1.134-.72l-.285.451-1.174-.744.286-.451a.672.672 0 00-1.133-.719l-.286.451-1.15-.729 2.737-4.314 3.572 2.265a.671.671 0 00.719-1.133l-3.825-2.427a2.95 2.95 0 00-3.482-3.703l-.337.076a1.373 1.373 0 00-.579-.761l-.573-.364a1.38 1.38 0 00-1.904.427l-1.022 1.61-.03.007-2.568-1.629.088-.14a1.38 1.38 0 00-.426-1.904l-.573-.363a1.372 1.372 0 00-.953-.195 2.744 2.744 0 00-.247-.358c-.706-.866-2.49-1.222-3.387-.514l-3.413 2.706a.671.671 0 00.834 1.051l.063-.05 3.34-2.648c.336-.215 1.245-.038 1.523.303.392.48.403 1.176.01 1.675l-2.414 3.156c-.66.861.118 2.077 1.177 1.84l11.684-2.615a1.612 1.612 0 011.923 1.22 1.613 1.613 0 01-1.22 1.923l-5.703 1.277-4.072.91a.671.671 0 00.293 1.31l3.794-.848c1.409-.316 2.468 1.243 1.712 2.434a1.6 1.6 0 01-1.008.709l-3.794.85a.67.67 0 10.293 1.309l3.794-.85c1.396-.312 2.478 1.228 1.712 2.435a1.602 1.602 0 01-1.009.71l-3.794.848a.67.67 0 10.294 1.31l3.793-.85a1.613 1.613 0 011.924 1.22 1.612 1.612 0 01-1.22 1.924c-13.185 2.951-14.384 3.339-15.518 3.2-.154-.019-.307-.047-.488-.08-1.355-.249-2.014-.154-4.605.434l.36 1.297zM.364 20.229c.662-.309 1.217-.712 1.542-1.07 3.667-4.03 4.353-4.848 5.152-5.534.44-.379.916-.718 1.947-1.535a.671.671 0 10-.834-1.051c-1.152.913-1.659 1.274-2.126 1.681-.803.7-1.49 1.532-5.117 5.519a4.233 4.233 0 01-.928.675l.364 1.315zM24.31 10.57a.04.04 0 00-.01.01l-.303.478.833-.186-.478-.303a.04.04 0 00-.014-.005.04.04 0 00-.028.006zm-4.97 1.53l.923-.206-1.435-.91-.639 1.007.428.271.723-.162zm-.84-3.15a.039.039 0 00-.01-.01l-.449-.285c-.025.905-.342 1.313-1.457 2.745-.212.273-.454.583-.728.941l.34.216a.038.038 0 00.052-.012l1.22-1.924 1.034-1.629a.039.039 0 00.005-.029.036.036 0 00-.007-.013zm22.076 14.353l-1.973 3.11 2.503-.26a.143.143 0 00.08-.06c.002 0 .101-.159.101-.159l.101-.158a.143.143 0 00.02-.098l-.832-2.375zm-15.457-4.707l.02.123.567.359 1.738-2.74-1.041.233-1.284 2.025z" fill="#009B97"/></svg>