<svg width="52" height="52" fill="none" xmlns="http://www.w3.org/2000/svg"><path d="M44.2 8.627H32.067v-.862c-.005-4.287-3.494-7.76-7.8-7.765H7.8C3.494.005.005 3.478 0 7.765v10.353c.005 4.286 3.494 7.76 7.8 7.765h.867v6.902c0 .348.21.663.535.796a.87.87 0 00.944-.187l7.546-7.511h2.241v.862c.005 4.287 3.494 7.76 7.8 7.765h4.841l9.28 9.237a.867.867 0 001.48-.61V34.51h.866c4.306-.005 7.795-3.478 7.8-7.765V16.392c-.005-4.286-3.494-7.76-7.8-7.765zm-26.867 15.53a.86.86 0 00-.612.253L10.4 30.702V25.02a.86.86 0 00-.867-.863H7.8c-3.349-.004-6.063-2.705-6.067-6.04V7.766C1.737 4.43 4.451 1.729 7.8 1.725h16.467c3.349.004 6.063 2.706 6.066 6.04v.862h-2.6c-4.306.006-7.795 3.479-7.8 7.765v7.765h-2.6zm32.934 2.588c-.004 3.334-2.718 6.036-6.067 6.04h-1.733a.861.861 0 00-.867.863v7.407l-8.054-8.018a.868.868 0 00-.613-.252h-5.2c-3.349-.004-6.063-2.706-6.066-6.04V16.392c.003-3.334 2.717-6.035 6.066-6.039H44.2c3.349.004 6.063 2.705 6.067 6.04v10.352z" fill="#009B97"/><path d="M45.143 15.75H25.429a.848.848 0 00-.606.256.884.884 0 000 1.238c.16.164.378.256.606.256h19.714a.849.849 0 00.606-.256.884.884 0 000-1.238.849.849 0 00-.606-.256zm0 5.25H25.429a.848.848 0 00-.606.256.884.884 0 000 1.238c.16.164.378.256.606.256h19.714a.849.849 0 00.606-.256.884.884 0 000-1.238.849.849 0 00-.606-.256zm0 5.25H25.429a.848.848 0 00-.606.256.884.884 0 000 1.238c.16.164.378.256.606.256h19.714a.849.849 0 00.606-.256.884.884 0 000-1.238.849.849 0 00-.606-.256zM4.857 8.75h18a.848.848 0 00.606-.256.884.884 0 000-1.238.848.848 0 00-.606-.256h-18a.848.848 0 00-.606.256.884.884 0 000 1.238c.16.164.379.256.606.256zm12.857 3.5H4.857a.848.848 0 00-.606.256.884.884 0 000 1.238c.16.164.379.256.606.256h12.857a.849.849 0 00.606-.256.884.884 0 000-1.238.849.849 0 00-.606-.256zm-.857 5.25h-12a.848.848 0 00-.606.256.884.884 0 000 1.238c.16.164.379.256.606.256h12a.848.848 0 00.606-.256.884.884 0 000-1.238.848.848 0 00-.606-.256z" fill="#009B97"/></svg>