<svg width="33" height="43" fill="none" xmlns="http://www.w3.org/2000/svg"><path d="M6.402 5.013a1.59 1.59 0 01-1.125-.464l-.988-.986a1.58 1.58 0 01-.467-1.124c0-.424.166-.823.467-1.123l.647-.648a2.298 2.298 0 013.24 0c.893.89.893 2.342 0 3.233l-.648.647a1.586 1.586 0 01-1.126.465zM5.786 2.44l.616.615.462-.461a.435.435 0 00-.616-.615l-.462.461zM22.43 5.013a1.59 1.59 0 01-1.126-.464l-.648-.647a2.266 2.266 0 01-.672-1.616c0-.611.239-1.185.672-1.618a2.297 2.297 0 013.24 0l.647.647a1.582 1.582 0 01-.001 2.247l-.986.986a1.586 1.586 0 01-1.126.465zm-.154-3.162a.434.434 0 00-.308.741l.462.461.616-.614-.462-.46a.437.437 0 00-.308-.128zM21.113 43c-4.164 0-7.553-3.381-7.553-7.538v-5.624h1.856v5.624a5.686 5.686 0 001.67 4.019 5.71 5.71 0 004.027 1.667 5.71 5.71 0 004.027-1.667 5.687 5.687 0 001.671-4.02V34.23h1.856v1.233c0 4.156-3.388 7.538-7.554 7.538z" fill="#fff"/><path d="M27.403 34.4a5.135 5.135 0 01-3.594-1.466 4.966 4.966 0 01-1.492-3.535 4.966 4.966 0 011.492-3.535 5.134 5.134 0 013.594-1.467c1.119 0 2.181.351 3.073 1.015a.906.906 0 01.17 1.278.945.945 0 01-1.298.183 3.226 3.226 0 00-1.945-.642 3.251 3.251 0 00-2.275.929 3.144 3.144 0 00-.945 2.238c0 1.745 1.445 3.166 3.22 3.166 1.776 0 3.22-1.42 3.22-3.166a.91.91 0 01.273-.649.94.94 0 011.32 0 .91.91 0 01.273.649 4.967 4.967 0 01-1.491 3.535 5.135 5.135 0 01-3.595 1.467zm-13.326-7.899C6.315 26.501 0 20.29 0 12.656c0-3.641 1.426-7.08 4.014-9.681l1.334 1.283a11.839 11.839 0 00-3.482 8.398c0 6.623 5.478 12.01 12.211 12.01 6.734 0 12.211-5.387 12.211-12.01.005-1.578-.31-3.14-.923-4.598a11.918 11.918 0 00-2.653-3.894l1.32-1.297a13.743 13.743 0 013.058 4.488 13.557 13.557 0 011.064 5.3c.001 7.635-6.314 13.846-14.077 13.846z" fill="#fff"/><path d="M14.333 30.578c-1.013-.001-1.985-.362-2.701-1.004-.717-.642-1.12-1.513-1.12-2.42V25.8h1.975v1.353c0 .912.829 1.653 1.846 1.653 1.018 0 1.846-.741 1.846-1.653V25.8h1.977v1.353c-.002.908-.404 1.778-1.121 2.42-.717.642-1.688 1.004-2.702 1.005zm12.9.955a1.433 1.433 0 100-2.866 1.433 1.433 0 000 2.866z" fill="#fff"/></svg>