<svg width="81" height="64" fill="none" xmlns="http://www.w3.org/2000/svg"><g clip-path="url(#clip0_801_698)" fill="#009B97"><path d="M40 1C23.807 1 9 14.446 9 31.031a.969.969 0 101.938 0C10.938 16.064 24.5 2.938 40 2.938a29.063 29.063 0 11-20.625 49.536A.97.97 0 1018 53.841 31.001 31.001 0 1040 1z"/><path d="M40 54.766a22.536 22.536 0 01-10.22-2.422.969.969 0 00-.872 1.729 24.417 24.417 0 0011.093 2.63 24.703 24.703 0 10-24.704-25.735.969.969 0 101.938.063A22.765 22.765 0 1140 54.766z"/><path d="M52.11 46.531a3.875 3.875 0 00-3.876-3.875h-.31a6.296 6.296 0 10-10.297-6.883 5.526 5.526 0 00-4.127-1.835H9.969a.969.969 0 000 1.937h12.71l1.4 3.73a.97.97 0 00.905.63h.078l5.851-.456a.971.971 0 10-.15-1.937l-5.13.402-.886-2.369H33.5a3.39 3.39 0 110 6.781H21.817l-1.749-4.243a.971.971 0 00-1.264-.528.968.968 0 00-.528 1.265l1.453 3.506h-9.76a.969.969 0 100 1.938h38.265a1.938 1.938 0 010 3.875H9.97a.969.969 0 100 1.937h38.265a3.875 3.875 0 003.875-3.875zm-14.391-3.875c.195-.233.37-.482.523-.746.186.264.392.513.615.746h-1.138zm5.672 0a4.36 4.36 0 110-8.718 4.36 4.36 0 010 8.718z"/></g><defs><clipPath id="clip0_801_698"><path fill="#fff" transform="translate(9 1)" d="M0 0h62v62H0z"/></clipPath></defs></svg>