<svg width="81" height="65" fill="none" xmlns="http://www.w3.org/2000/svg"><path fill-rule="evenodd" clip-rule="evenodd" d="M65 15.87h-6.087v6.086H65V15.87zM58.912 15a.87.87 0 00-.87.87v6.086c0 .48.39.87.87.87H65c.48 0 .87-.39.87-.87V15.87A.87.87 0 0065 15h-6.087z" fill="#009B97"/><path fill-rule="evenodd" clip-rule="evenodd" d="M40.216 49.783c.24 0 .435-.195.435-.435v-18.02a3.622 3.622 0 01.127-.326c.1-.224.245-.521.425-.872.361-.699.85-1.589 1.357-2.494a314.662 314.662 0 012.035-3.56 169.155 169.155 0 00.465-.809c.41-.726.86-1.524 1.757-2.183.975-.718 2.53-1.301 5.23-1.301h8.604a.435.435 0 100-.87h-8.604c-2.826 0-4.579.612-5.746 1.47-1.053.776-1.589 1.728-1.996 2.452a35.768 35.768 0 01-.457.797c-.47.812-1.279 2.21-2.046 3.578a87.334 87.334 0 00-1.371 2.522c-.184.356-.339.67-.448.918a4.391 4.391 0 00-.135.334c-.028.08-.067.202-.067.32v18.044c0 .24.195.435.435.435z" fill="#009B97"/><path fill-rule="evenodd" clip-rule="evenodd" d="M61.739 19.783a.652.652 0 100-1.305.652.652 0 000 1.305zm0 .87a1.522 1.522 0 100-3.044 1.522 1.522 0 000 3.043zM36.432 50.978v6.867c0 .297-.077.568-.188.797a3.773 3.773 0 106.671-.236 1.833 1.833 0 01-.25-.912v-6.516h-6.233zm-.87 0c0-.48.39-.87.87-.87h6.233c.48 0 .87.39.87.87v6.516c0 .169.05.333.134.479a4.642 4.642 0 11-8.208.29.963.963 0 00.102-.418v-6.867z" fill="#009B97"/><path fill-rule="evenodd" clip-rule="evenodd" d="M39.565 64.13a3.696 3.696 0 100-7.39 3.696 3.696 0 000 7.39zm0 .87a4.565 4.565 0 100-9.13 4.565 4.565 0 000 9.13z" fill="#009B97"/><path fill-rule="evenodd" clip-rule="evenodd" d="M39.349 61.087a.87.87 0 100-1.74.87.87 0 000 1.74zm0 .87a1.74 1.74 0 100-3.479 1.74 1.74 0 000 3.478zm-1.306-9.131v1.304h3.044v-1.304h-3.044zm-.434-.87a.435.435 0 00-.435.435v2.174c0 .24.194.435.435.435h3.913c.24 0 .434-.195.434-.435v-2.174a.435.435 0 00-.434-.434h-3.913zM29.13 15.217c-1.933 0-4.374.96-5.36 1.453a.652.652 0 11-.583-1.166c1.043-.522 3.703-1.59 5.944-1.59 2.16 0 4.335.446 5.171.674a.652.652 0 01-.343 1.259c-.758-.207-2.814-.63-4.828-.63zm8.061 1.239a.652.652 0 01.919.083c.142.17.43.451.792.684.368.237.75.386 1.098.386.348 0 .73-.149 1.098-.386.363-.233.65-.514.793-.684a.652.652 0 111.002.835 5.012 5.012 0 01-1.089.946c-.476.307-1.108.593-1.804.593s-1.327-.286-1.804-.593a5.016 5.016 0 01-1.088-.946.652.652 0 01.083-.918z" fill="#009B97"/><path fill-rule="evenodd" clip-rule="evenodd" d="M50.87 15.217c1.933 0 4.374.96 5.36 1.453a.652.652 0 10.583-1.166c-1.043-.522-3.704-1.59-5.944-1.59-2.16 0-4.335.446-5.171.674a.652.652 0 00.343 1.259c.758-.207 2.814-.63 4.828-.63zm-8.061 1.239a.652.652 0 00-.919.083c-.142.17-.43.451-.792.684-.368.237-.75.386-1.098.386-.348 0-.73-.149-1.098-.386a3.722 3.722 0 01-.793-.684.652.652 0 10-1.002.835c.221.265.607.636 1.089.946.476.307 1.108.593 1.804.593s1.327-.286 1.804-.593c.481-.31.867-.681 1.088-.946a.652.652 0 00-.083-.918zM32.224.002c.36.028.628.341.6.7l-.462 6.014-.322.167c-1.8.936-5.755 2.965-7 3.5l-.123.052h-3.613c-2.561 0-4.793 1.368-7.365 3.94-.921.921-1.573 2.418-2 3.996a19.386 19.386 0 00-.635 4.033V39.13a.652.652 0 11-1.304 0V22.367c.038-1.022.23-2.67.68-4.336.447-1.65 1.172-3.414 2.337-4.58 2.646-2.645 5.197-4.32 8.287-4.32h3.343c1.237-.55 4.608-2.273 6.47-3.238l.407-5.29a.652.652 0 01.7-.601z" fill="#009B97"/><path fill-rule="evenodd" clip-rule="evenodd" d="M47.776.002a.652.652 0 00-.6.7l.462 6.014.322.167c1.8.936 5.755 2.965 7 3.5l.123.052h3.613c2.561 0 4.793 1.368 7.365 3.94.921.921 1.573 2.418 2 3.996.42 1.555.599 3.097.635 4.033V39.13a.652.652 0 101.304 0V22.367c-.038-1.022-.23-2.67-.68-4.336-.446-1.65-1.172-3.414-2.337-4.58-2.646-2.645-5.197-4.32-8.287-4.32h-3.343c-1.237-.55-4.608-2.273-6.47-3.238l-.407-5.29a.652.652 0 00-.7-.601zM21.779 39.183a.652.652 0 01.342.857c-.613 1.43-1.252 3.95-1.252 7.351 0 1.491-.532 3.89-1.164 6.215a97.144 97.144 0 01-1.916 6.175.652.652 0 01-1.23-.431 95.869 95.869 0 001.888-6.086c.636-2.342 1.118-4.58 1.118-5.873 0-3.554.666-6.252 1.357-7.865a.652.652 0 01.857-.343zm36.442 0a.652.652 0 00-.342.857c.613 1.43 1.252 3.95 1.252 7.351 0 1.491.532 3.89 1.164 6.215a97.144 97.144 0 001.916 6.175.652.652 0 001.23-.431 95.869 95.869 0 01-1.888-6.086c-.636-2.342-1.118-4.58-1.118-5.873 0-3.554-.666-6.252-1.357-7.865a.652.652 0 00-.857-.343z" fill="#009B97"/><path fill-rule="evenodd" clip-rule="evenodd" d="M21.973 31.087c.36.01.645.309.636.669a114.717 114.717 0 00-.006 5.57c.026.99.07 1.921.14 2.675.072.789.164 1.287.248 1.481.367.856.646 2.354.836 3.9A40.29 40.29 0 0124.13 50c0 1.361-.17 2.44-.338 3.28-.042.209-.084.403-.122.58l-.008.038-.095.449c-.06.302-.089.505-.089.653v5a.652.652 0 01-1.304 0v-5c0-.287.053-.6.114-.91l.098-.465.009-.039c.038-.177.078-.363.118-.562.158-.79.313-1.777.313-3.024a38.99 38.99 0 00-.294-4.459c-.19-1.55-.455-2.879-.74-3.545-.178-.414-.279-1.117-.348-1.876a44.47 44.47 0 01-.145-2.76c-.053-2.01-.03-4.217.006-5.638a.652.652 0 01.668-.635zm36.054 0a.652.652 0 00-.636.669c.037 1.405.058 3.589.006 5.57a42.33 42.33 0 01-.14 2.675c-.072.789-.164 1.287-.248 1.481-.367.856-.646 2.354-.836 3.9A40.29 40.29 0 0055.87 50c0 1.361.17 2.44.338 3.28.042.209.084.403.122.58l.008.038c.035.164.067.312.094.449.06.302.09.505.09.653v5a.652.652 0 001.304 0v-5c0-.287-.053-.6-.114-.91l-.098-.465-.009-.039a39.219 39.219 0 01-.118-.562A14.948 14.948 0 0157.174 50c0-1.274.107-2.932.294-4.459.19-1.55.455-2.879.74-3.545.178-.414.279-1.117.348-1.876a44.47 44.47 0 00.145-2.76c.053-2.01.03-4.217-.006-5.638a.652.652 0 00-.668-.635z" fill="#009B97"/><path fill-rule="evenodd" clip-rule="evenodd" d="M19.96 23.697a.652.652 0 01.69.611c.07 1.143.364 2.98 1.015 4.731.659 1.77 1.638 3.33 3 4.087 1.806 1.004 4.873 1.44 7.793 1.494a30.84 30.84 0 003.922-.166c1.144-.13 1.921-.312 2.241-.472a.652.652 0 01.584 1.167c-.55.274-1.54.472-2.678.601-1.172.133-2.6.202-4.094.174-2.95-.055-6.296-.488-8.402-1.658-1.769-.983-2.891-2.9-3.588-4.772a18.824 18.824 0 01-1.094-5.107.652.652 0 01.611-.69zm40.08 0a.652.652 0 00-.69.611 17.529 17.529 0 01-1.015 4.731c-.659 1.77-1.638 3.33-3 4.087-1.806 1.004-4.873 1.44-7.793 1.494a30.84 30.84 0 01-3.922-.166c-1.144-.13-1.921-.312-2.241-.472a.652.652 0 00-.584 1.167c.55.274 1.54.472 2.678.601 1.172.133 2.6.202 4.094.174 2.95-.055 6.296-.488 8.402-1.658 1.769-.983 2.892-2.9 3.588-4.772a18.824 18.824 0 001.094-5.107.652.652 0 00-.611-.69z" fill="#009B97"/></svg>