<svg width="81" height="64" fill="none" xmlns="http://www.w3.org/2000/svg"><mask id="mask0_801_690" style="mask-type:luminance" maskUnits="userSpaceOnUse" x="13" y="4" width="55" height="55"><path d="M13 4h55v55H13V4z" fill="#fff"/></mask><g mask="url(#mask0_801_690)" stroke="#009B97" stroke-width="1.5" stroke-miterlimit="10" stroke-linecap="round" stroke-linejoin="round"><path d="M14.037 24.256V57.12c0 .593.481 1.074 1.074 1.074h50.78c.594 0 1.075-.48 1.075-1.074V5.88c0-.593-.481-1.074-1.074-1.074h-50.78c-.594 0-1.075.48-1.075 1.074v14.616"/><path d="M31.963 43.011l-.035.048m0 0c-1.014 1.345-2.92 1.708-4.732 1.06a.596.596 0 00-.685.206l-1.332 1.846c-.072.1-.11.22-.11.343v11.68h-4.032v-7.912c0-.317-.061-.63-.18-.924l-1.187-2.942a3.612 3.612 0 01-.051-2.567l.326-.913c.222-.62.9-.946 1.523-.733l.442.153c.5.172 1.055-.004 1.365-.434l.578-.8c-.642-1.373-.613-2.882.224-3.99a3.307 3.307 0 011.883-1.234c.935-.038 3.182.57 4.404 2.302 1.221 1.733 1.564 2.922 1.564 4.859zm17.145 0c1.014 1.345 2.92 1.708 4.732 1.06a.599.599 0 01.686.206l1.332 1.846c.072.1.11.22.11.343v11.68h4.032v-7.912c0-.317.06-.63.18-.924l1.186-2.942a3.61 3.61 0 00.052-2.567l-.327-.913c-.22-.62-.9-.946-1.522-.733l-.442.153a1.203 1.203 0 01-1.366-.434l-.578-.8c.643-1.373.614-2.882-.223-3.99a3.307 3.307 0 00-1.883-1.234c-.875-.052-2.959.256-4.297 1.9-.557.716-1.672 2.771-1.672 5.26zm0 0l-.034-.048M36.727 4.806v24.44m7.548-.001V4.805M36.727 22.75c2.22 1.59 5.325 1.59 7.546 0m-7.546-7.206c2.22 1.591 5.325 1.591 7.546 0m-7.546-7.206c2.22 1.59 5.325 1.59 7.546 0"/><path d="M52.65 22.651a6.893 6.893 0 00-3.355 2.899c-1.19 2.027-3.248 3.395-5.562 3.81a18.292 18.292 0 01-6.464 0c-2.314-.415-4.371-1.782-5.561-3.81a6.864 6.864 0 00-6.308-3.386c-3.497.189-6.32 3.037-6.482 6.534a6.87 6.87 0 006.863 7.197c3.92 0 6.189 3.623 6.189 7.506a4.486 4.486 0 007.959 2.84.744.744 0 011.144 0 4.486 4.486 0 007.959-2.84c0-3.883 2.27-7.506 6.19-7.506a6.87 6.87 0 006.862-7.197c-.15-3.25-2.6-5.94-5.751-6.455m-8.332 11c-1.26 3.083-3 6.653-7.5 6.653s-6.24-3.57-7.5-6.653c-.261-.64.408-1.266 1.028-.961 4.315 2.122 8.63 2.122 12.944 0 .62-.305 1.29.32 1.028.96zM19.02 8.66h2.263m-2.263 3.446h6.986m-6.986 3.446h6.986"/></g></svg>