<svg width="81" height="72" fill="none" xmlns="http://www.w3.org/2000/svg"><path d="M26.504 13.105a2.156 2.156 0 01-1.538-.644l-1.35-1.37a2.196 2.196 0 01-.637-1.56c0-.589.227-1.143.637-1.56l.885-.9a3.105 3.105 0 014.428 0 3.21 3.21 0 010 4.49l-.885.899a2.166 2.166 0 01-1.54.645zm-.841-3.574l.841.854.632-.64a.61.61 0 00-.019-.835.592.592 0 00-.823-.02l-.631.641zm22.744 3.574a2.154 2.154 0 01-1.538-.644l-.886-.899a3.172 3.172 0 01-.918-2.244c0-.849.325-1.646.918-2.247a3.114 3.114 0 012.213-.927c.83 0 1.626.333 2.214.927l.885.9c.41.416.638.97.638 1.559 0 .59-.227 1.144-.64 1.56l-1.347 1.37a2.165 2.165 0 01-1.54.645zm-.21-4.39a.586.586 0 00-.553.37.608.608 0 00.131.658l.632.64.842-.852-.632-.64a.592.592 0 00-.42-.176zm-1.588 57.143c-5.692 0-10.322-4.695-10.322-10.468v-7.81h2.536v7.81a7.961 7.961 0 002.282 5.581 7.74 7.74 0 005.504 2.316 7.742 7.742 0 005.504-2.316 7.962 7.962 0 002.283-5.581v-1.713h2.536v1.713c0 5.771-4.63 10.468-10.323 10.468z" fill="#009B97"/><path d="M55.664 54.588a6.87 6.87 0 01-4.884-2.055 7.067 7.067 0 010-9.906 6.87 6.87 0 014.884-2.055 6.8 6.8 0 014.175 1.422 1.299 1.299 0 01.23 1.791 1.255 1.255 0 01-1.763.257 4.297 4.297 0 00-2.642-.9 4.35 4.35 0 00-3.092 1.301 4.474 4.474 0 00-1.283 3.136c0 2.446 1.962 4.436 4.375 4.436 2.413 0 4.375-1.99 4.375-4.436 0-.34.134-.668.372-.909a1.26 1.26 0 011.793 0c.237.241.371.568.371.91a7.067 7.067 0 01-2.026 4.953 6.87 6.87 0 01-4.885 2.055zM37.555 43.52c-10.547 0-19.13-8.703-19.13-19.399 0-5.101 1.938-9.919 5.455-13.564l1.813 1.797a16.853 16.853 0 00-4.732 11.767c0 9.28 7.444 16.828 16.594 16.828 9.15 0 16.594-7.549 16.594-16.828.006-2.21-.42-4.4-1.255-6.442a16.73 16.73 0 00-3.605-5.456l1.793-1.818a19.292 19.292 0 014.156 6.29 19.507 19.507 0 011.447 7.426c0 10.696-8.581 19.4-19.13 19.4z" fill="#009B97"/><path d="M37.554 48.866a4.875 4.875 0 01-3.466-1.458 5.014 5.014 0 01-1.438-3.515v-1.966h2.536v1.965c0 1.324 1.063 2.401 2.368 2.401 1.306 0 2.369-1.077 2.369-2.401v-1.965h2.535v1.965a5.016 5.016 0 01-1.437 3.515 4.877 4.877 0 01-3.467 1.459zm18.111.403c.92 0 1.664-.756 1.664-1.688 0-.933-.745-1.689-1.664-1.689-.92 0-1.665.756-1.665 1.688 0 .933.745 1.689 1.665 1.689z" fill="#009B97"/></svg>