<svg width="44" height="44" fill="none" xmlns="http://www.w3.org/2000/svg"><g clip-path="url(#clip0_413_1904)" fill="#009B97"><path d="M33 25.385A3.388 3.388 0 0036.385 22 3.388 3.388 0 0033 18.615h-1.692v-7.333H33a3.389 3.389 0 003.385-3.385A3.388 3.388 0 0033 4.513h-1.692V.846A.846.846 0 0030.462 0H13.538a.846.846 0 00-.846.846v3.667H11a3.388 3.388 0 00-3.385 3.384A3.388 3.388 0 0011 11.282h1.692v7.333H11A3.389 3.389 0 007.615 22 3.388 3.388 0 0011 25.385h1.692v7.333H11a3.389 3.389 0 00-3.385 3.385A3.388 3.388 0 0011 39.487h1.692v3.667c0 .467.38.846.846.846h16.924a.846.846 0 00.846-.846v-3.667H33a3.388 3.388 0 003.385-3.384A3.389 3.389 0 0033 32.718h-1.692v-7.333H33zM11 9.59c-.933 0-1.692-.76-1.692-1.693S10.067 6.205 11 6.205h2.538a.846.846 0 00.847-.846V1.692h15.23v2.82h-2.538a.846.846 0 000 1.693H33c.933 0 1.692.76 1.692 1.692 0 .933-.759 1.693-1.692 1.693h-2.538a.846.846 0 00-.847.846v3.666h-15.23v-3.666a.846.846 0 00-.846-.846H11zm22 24.82c.933 0 1.692.76 1.692 1.693s-.759 1.692-1.692 1.692h-2.538a.846.846 0 00-.847.846v3.667h-15.23V38.64a.846.846 0 00-.846-.846H11a1.693 1.693 0 010-3.384h2.538a.846.846 0 00.847-.846v-3.666h15.23v3.666c0 .467.38.846.847.846H33zm-2.538-10.718a.846.846 0 00-.847.846v3.667h-15.23v-3.667a.846.846 0 00-.846-.846H11A1.694 1.694 0 019.308 22c0-.933.759-1.692 1.692-1.692h2.538a.846.846 0 00.847-.846v-3.667h15.23v3.667c0 .467.38.846.847.846H33c.933 0 1.692.759 1.692 1.692 0 .933-.759 1.692-1.692 1.692h-2.538z"/><path d="M20.308 9.59h-.846c-.933 0-1.693-.76-1.693-1.693s.76-1.692 1.693-1.692h.846a.846.846 0 000-1.692h-.846a3.389 3.389 0 00-3.385 3.384 3.389 3.389 0 003.385 3.385h.846a.846.846 0 000-1.692zm0 14.102h-.846A1.695 1.695 0 0117.769 22c0-.933.76-1.692 1.693-1.692h.846a.846.846 0 000-1.693h-.846A3.388 3.388 0 0016.077 22a3.389 3.389 0 003.385 3.385h.846a.846.846 0 000-1.693zm0 14.103h-.846c-.933 0-1.693-.76-1.693-1.692 0-.934.76-1.693 1.693-1.693h.846a.846.846 0 000-1.692h-.846a3.388 3.388 0 00-3.385 3.385 3.389 3.389 0 003.385 3.384h.846a.846.846 0 000-1.692zm22.846-16.641h-4.23a.846.846 0 100 1.692h4.23a.846.846 0 000-1.692zm-1.122-7.34a.846.846 0 00-1.197 0l-2.51 2.51a.846.846 0 101.196 1.197l2.51-2.51a.846.846 0 000-1.197zm0 15.175l-2.51-2.51a.846.846 0 00-1.197 1.196l2.51 2.51a.844.844 0 001.197 0 .846.846 0 000-1.196zM5.077 21.154H.847a.846.846 0 000 1.692h4.23a.846.846 0 000-1.692zm.598-4.83l-2.51-2.51a.847.847 0 00-1.197 1.197l2.51 2.51a.844.844 0 001.197 0 .846.846 0 000-1.196zm0 10.155a.846.846 0 00-1.196 0l-2.51 2.51a.846.846 0 001.196 1.197l2.51-2.51a.846.846 0 000-1.197zM25.137 4.76a.853.853 0 00-.599-.248c-.222 0-.44.09-.598.248a.852.852 0 00-.248.599.85.85 0 00.846.846.849.849 0 00.847-.846.855.855 0 00-.248-.599z"/></g><defs><clipPath id="clip0_413_1904"><path fill="#fff" d="M0 0h44v44H0z"/></clipPath></defs></svg>