<svg width="82" height="65" fill="none" xmlns="http://www.w3.org/2000/svg"><path d="M39.675 17.208h1.266c.93 0 1.69-.83 1.716-1.861.924-.03 1.666-.88 1.666-1.918v-1.415c0-1.038-.742-1.887-1.666-1.918-.027-1.031-.786-1.86-1.716-1.86h-1.266c-.93 0-1.69.829-1.716 1.86-.924.03-1.666.88-1.666 1.918v1.415c0 1.039.742 1.887 1.666 1.918.027 1.031.786 1.861 1.716 1.861zm-1.916-3.779v-1.415c0-.074.026-.146.073-.198a.24.24 0 01.178-.083h.629c.432 0 .784-.393.784-.877v-.702c0-.074.027-.146.074-.198a.239.239 0 01.178-.083h1.266c.067 0 .13.03.178.083a.298.298 0 01.073.198v.702c0 .484.352.877.785.877h.629c.066 0 .13.03.178.083a.3.3 0 01.073.198v1.415a.299.299 0 01-.073.199.24.24 0 01-.178.082h-.629c-.432 0-.785.393-.785.877v.702a.298.298 0 01-.073.199.24.24 0 01-.178.082h-1.266a.239.239 0 01-.178-.082.299.299 0 01-.074-.199v-.702c0-.483-.352-.877-.785-.877h-.628a.239.239 0 01-.178-.082.299.299 0 01-.073-.199z" fill="#009B97"/><path d="M54.934 41.652L45.8 37.825a.635.635 0 01-.29-.254.75.75 0 01-.11-.392v-3.618c2.243-1.67 3.814-4.381 4.157-7.51 1.741-.155 3.116-1.786 3.116-3.77 0-1.957-1.337-3.572-3.045-3.763v-7.72c0-1.47-.697-2.857-1.819-3.622l-1.782-1.215A5.422 5.422 0 0042.967 5h-5.602c-1.08 0-2.139.332-3.06.961l-1.783 1.215c-1.122.765-1.82 2.153-1.82 3.621v7.711c-1.759.133-3.154 1.774-3.154 3.773 0 2.026 1.434 3.685 3.227 3.778.345 3.126 1.916 5.833 4.156 7.502v3.618a.75.75 0 01-.11.392.635.635 0 01-.29.254l-9.133 3.827C22.169 43.004 20 46.502 20 50.354v5.035a.87.87 0 00.215.58c.137.153.323.24.518.24a.7.7 0 00.518-.24.87.87 0 00.215-.58v-5.035c0-3.173 1.787-6.054 4.446-7.169L28.742 42v5.24c-1.249.365-2.174 1.636-2.174 3.144 0 1.791 1.304 3.248 2.907 3.248s2.907-1.457 2.907-3.248c0-1.508-.925-2.78-2.174-3.143v-5.855l.42-.175c.019.02.04.04.061.058l1.814 1.503c2.233 1.851 4.883 2.83 7.663 2.83 2.78 0 5.43-.979 7.662-2.83l1.817-1.506a.8.8 0 00.06-.055l1.014.425v4.92c-1.83.138-3.28 1.843-3.28 3.921v6.486a.87.87 0 00.215.579c.137.153.324.24.518.24h1.116c.405 0 .733-.367.733-.82 0-.451-.328-.818-.733-.818h-.383v-5.667c0-1.264.92-2.293 2.052-2.293h.906c1.132 0 2.052 1.029 2.052 2.293v5.667h-.379a.696.696 0 00-.518.24.87.87 0 00-.215.579.87.87 0 00.215.579c.137.153.324.24.518.24h1.112a.696.696 0 00.518-.24.87.87 0 00.215-.58v-6.485c0-2.046-1.407-3.731-3.196-3.914V42.25l2.234.936c2.66 1.115 4.446 3.996 4.446 7.17v8.671c0 .01-.003.018-.009.025a.03.03 0 01-.022.01H21.497a.03.03 0 01-.022-.01.037.037 0 01-.01-.025v-.36a.87.87 0 00-.214-.58.696.696 0 00-.518-.24.696.696 0 00-.518.24.87.87 0 00-.215.58v.36c0 .923.672 1.673 1.497 1.673h37.337c.825 0 1.497-.75 1.497-1.673v-8.672c0-3.852-2.17-7.35-5.397-8.702zm-24.017 8.731c0 .888-.647 1.61-1.442 1.61-.795 0-1.441-.722-1.441-1.61 0-.888.646-1.61 1.441-1.61s1.441.722 1.441 1.61zm20.29-28.102c0 1.053-.682 1.929-1.579 2.11v-4.219c.897.18 1.58 1.056 1.58 2.11zm-22.193 0c0-1.095.739-2 1.689-2.127v4.255c-.95-.128-1.689-1.033-1.689-2.128zm3.155 2.476v-4.611h4.015a.696.696 0 00.519-.24.87.87 0 00.214-.579.87.87 0 00-.215-.58.696.696 0 00-.518-.239H32.17v-7.71c0-.902.428-1.754 1.116-2.224l1.783-1.215a4.069 4.069 0 012.297-.721h5.601c.81 0 1.605.25 2.297.721l1.783 1.215c.688.47 1.116 1.322 1.116 2.223v7.711h-9.046a.696.696 0 00-.518.24.87.87 0 00-.215.579.87.87 0 00.215.579c.137.154.324.24.518.24h9.046v4.611c0 4.927-3.587 8.936-7.996 8.936-4.41 0-7.997-4.009-7.997-8.936zm14.785 16.7c-1.978 1.639-4.325 2.506-6.788 2.506-2.464 0-4.811-.867-6.79-2.507l-1.12-.929 2.79-1.169c.808-.338 1.351-1.214 1.351-2.179v-2.724a8.57 8.57 0 003.769.876 8.57 8.57 0 003.768-.876v2.724c0 .965.543 1.84 1.351 2.18l2.79 1.168-1.12.93z" fill="#009B97"/></svg>