<svg width="52" height="52" fill="none" xmlns="http://www.w3.org/2000/svg"><g clip-path="url(#clip0_413_1891)"><g clip-path="url(#clip1_413_1891)" fill="#009B97"><path d="M37.112 7.497l3.64 1.562a9.633 9.633 0 012.136 1.264.657.657 0 00.791.018.66.66 0 00.024-1.059 10.96 10.96 0 00-2.43-1.437l-3.64-1.562a6.164 6.164 0 01-1.827-1.206 6.216 6.216 0 01-1.92-4.48V-.34a.66.66 0 10-1.321 0v.935a7.54 7.54 0 002.33 5.437 7.484 7.484 0 002.217 1.464zm11.813 29.16l-.769-1.477a.73.73 0 01-.081-.335V27.46a3.746 3.746 0 00-1.212-2.759l.002-.024v-2.19a10.92 10.92 0 00-1.039-10.99.66.66 0 10-1.073.771 9.6 9.6 0 01.855 9.782.661.661 0 00-.065.288v1.23l-6.187-5.284v-.768a.66.66 0 10-1.322 0v9.245a7.7 7.7 0 01-.474 2.65l-.117-.193a2.394 2.394 0 00-1.545-1.115 2.418 2.418 0 00-2.747 3.31l1.82 4.247a8.24 8.24 0 002.037 2.856v.045l.295 4.653a.66.66 0 001.32-.083l-.228-3.596c.221.13.45.249.682.357l.745.346 2.585 3.495a.66.66 0 001.122-.096.66.66 0 00-.06-.69l-2.685-3.63a.66.66 0 00-.252-.206l-.898-.417a6.918 6.918 0 01-3.448-3.554l-1.82-4.248a1.095 1.095 0 011.944-.994l1.33 2.217c.277.46.783.747 1.32.747h.902c.758 0 1.397-.543 1.52-1.292l.135-.83a.662.662 0 00-1.305-.212l-.135.83a.218.218 0 01-.215.183h-.901a.22.22 0 01-.187-.106l-.38-.632a9.03 9.03 0 00.962-4.043v-2.63l1.52 1.816a.235.235 0 01.051.19l-.256 1.575a.659.659 0 00.653.767.662.662 0 00.651-.554l.257-1.576a1.556 1.556 0 00-.343-1.25l-2.533-3.027v-2.049l6.545 5.59a2.426 2.426 0 01.852 1.848v7.386c0 .328.08.654.23.944l.769 1.478a.66.66 0 001.245-.362.66.66 0 00-.072-.248zM31.329 25.925a5.7 5.7 0 00-1.234 6.882.662.662 0 001.216-.113.66.66 0 00-.046-.504 4.374 4.374 0 01.947-5.282.658.658 0 00.055-.939.66.66 0 00-.938-.044z"/><path d="M33.956 24.59a.66.66 0 00.272 1.293 4.441 4.441 0 011.697-.022.66.66 0 10.238-1.3 5.766 5.766 0 00-2.207.028zM19.775-1a.661.661 0 00-.661.66v.936c0 1.685-.7 3.318-1.92 4.48a6.17 6.17 0 01-1.828 1.207l-3.639 1.562a10.823 10.823 0 00-5.92 6.209 10.82 10.82 0 00.328 8.431v2.19l.002.024a3.67 3.67 0 00-1.212 2.725v1.172a.66.66 0 101.322 0v-1.172a2.351 2.351 0 01.825-1.79l6.572-5.613v2.05l-2.533 3.026a1.558 1.558 0 00-.343 1.25l.85 5.222a1.533 1.533 0 001.52 1.292h.901c.538 0 1.044-.286 1.32-.747l1.33-2.217a1.084 1.084 0 01.7-.505 1.085 1.085 0 01.849.16 1.095 1.095 0 01.396 1.339l-1.82 4.248a6.92 6.92 0 01-3.449 3.554l-.897.417a.662.662 0 00-.253.206l-2.685 3.63a.66.66 0 101.063.786l2.585-3.495.744-.346a8.28 8.28 0 00.683-.357l-.227 3.596a.66.66 0 101.319.083l.294-4.653v-.045a8.239 8.239 0 002.037-2.856l1.82-4.247a2.417 2.417 0 00-2.747-3.31 2.393 2.393 0 00-1.545 1.115l-.116.194a7.701 7.701 0 01-.474-2.651v-9.245a.66.66 0 10-1.322 0v.768l-6.187 5.285v-1.231c0-.1-.023-.198-.066-.288a9.513 9.513 0 01-.346-7.532 9.514 9.514 0 015.204-5.458l3.639-1.562a7.488 7.488 0 002.218-1.463 7.544 7.544 0 002.33-5.438v-.935A.66.66 0 0019.774-1zm-5.549 32.434a.22.22 0 01-.187.106h-.9a.217.217 0 01-.216-.183l-.85-5.223a.234.234 0 01.052-.189l1.52-1.815v2.63a9.03 9.03 0 00.96 4.042l-.379.632z"/><path d="M5.586 30.752a.661.661 0 00-.66.66v3.451a.653.653 0 01-.074.3l-.776 1.494a.66.66 0 001.172.61l.777-1.494a1.97 1.97 0 00.222-.91v-3.45a.66.66 0 00-.66-.661zm16.085-4.827a.662.662 0 00-1.038.776.66.66 0 00.155.206 4.378 4.378 0 011.449 3.25c0 .708-.174 1.412-.502 2.033a.661.661 0 001.17.617 5.7 5.7 0 00-1.233-6.882zm-4.834-1.364a.66.66 0 00.238 1.3 4.441 4.441 0 011.697.022.661.661 0 00.272-1.294 5.77 5.77 0 00-2.207-.028zM26.57-1a.661.661 0 00-.66.66v1.546a.66.66 0 101.321 0V-.339a.66.66 0 00-.66-.661zm0 5.914a.661.661 0 00-.66.661V7.12a.66.66 0 101.321 0V5.575a.66.66 0 00-.66-.66zm0 5.914a.66.66 0 00-.66.661v1.545a.66.66 0 101.321 0V11.49a.66.66 0 00-.66-.66zm0 5.915a.662.662 0 00-.66.66v1.546a.66.66 0 101.321 0v-1.546a.66.66 0 00-.66-.66zm0 5.914a.662.662 0 00-.66.66v1.546a.66.66 0 101.321 0v-1.545a.66.66 0 00-.66-.661zm0 5.914a.662.662 0 00-.66.66v1.546a.66.66 0 101.321 0v-1.545a.66.66 0 00-.66-.661zm0 5.914a.66.66 0 00-.66.661v1.545a.66.66 0 101.321 0v-1.545a.66.66 0 00-.66-.66zm0 5.914a.662.662 0 00-.66.661v1.545a.66.66 0 101.321 0V41.06a.66.66 0 00-.66-.66z"/></g></g><defs><clipPath id="clip0_413_1891"><path fill="#fff" d="M0 0h52v52H0z"/></clipPath><clipPath id="clip1_413_1891"><path fill="#fff" transform="translate(4 -1)" d="M0 0h45v45H0z"/></clipPath></defs></svg>