<svg width="81" height="65" fill="none" xmlns="http://www.w3.org/2000/svg"><path fill-rule="evenodd" clip-rule="evenodd" d="M25.538 8.742C27.52 6.106 30.408 4 33.898 4c3.24 0 5.5 1.36 7.218 3.252l-1.581 1.522c-1.38-1.52-3.093-2.545-5.637-2.545-2.59 0-4.91 1.567-6.649 3.878-2.642 3.512-4.083 7.603-4.083 12.833a10.89 10.89 0 002.977 7.506c2.305 2.421 3.597 5.676 3.597 9.066v10.814c0 4.08 3.214 7.39 7.179 7.39 2.222 0 4.207-1.038 5.526-2.672l1.666 1.424c-1.713 2.122-4.3 3.476-7.192 3.476-5.161 0-9.345-4.306-9.345-9.618V39.512a10.89 10.89 0 00-2.978-7.506C22.291 29.585 21 26.33 21 22.94c0-5.707 1.59-10.282 4.538-14.198z" fill="#009B97"/><path fill-rule="evenodd" clip-rule="evenodd" d="M26.516 18.323C24.952 15.25 24.64 10.7 27.43 7.73l.764.785c-2.345 2.497-2.166 6.464-.732 9.281 1.186 2.33 3.008 4.187 4.89 6.104.418.426.84.856 1.259 1.295 2.262 2.372 4.522 5.232 5.027 8.723l-.53.084.53-.084c.41 2.83-.455 5.827-2.294 7.947l-.397-.377.397.377c-1.859 2.143-4.861 3.16-7.54 3.16v-1.12c2.467 0 5.145-.946 6.747-2.793 1.622-1.871 2.389-4.529 2.028-7.026-.45-3.107-2.483-5.747-4.727-8.1-.393-.41-.797-.822-1.205-1.238-1.888-1.92-3.859-3.925-5.131-6.425zm27.698-9.45l.002.002.005.006-.86.67-.007-.01-.002-.002-.011-.016.864-.664.01.014z" fill="#009B97"/><path fill-rule="evenodd" clip-rule="evenodd" d="M38.46 8.742C40.408 6.106 43.245 4 46.674 4c3.772 0 6.165 1.903 7.93 4.282l.001.001.028.036.005.008.004.004.001.002.002.002v.002l.002.002.002.002.001.002.008.01v.001l-.585.453.585-.452a5.704 5.704 0 00.002.002l-.002-.002.011.015.006.009.006.007.005.007c4.629 6.552 6.296 14.883 4.753 22.852a33.54 33.54 0 00-.612 6.377v12.704c0 5.312-4.111 9.618-9.184 9.618-5.072 0-9.183-4.306-9.183-9.618V39.512c0-2.806-1.05-5.502-2.926-7.506C35.269 29.585 34 26.33 34 22.94c0-5.707 1.563-10.282 4.46-14.198zm16.21-.371l-1.712 1.322a2.457 2.457 0 00.02.025l.853-.662-.836.671c.664.36 1.837-.504 1.69-1.332a1.006 1.006 0 00-.015-.024zm-1.69 1.356c-1.506-2.058-3.347-3.498-6.306-3.498-2.544 0-4.825 1.567-6.533 3.878-2.598 3.512-4.014 7.603-4.014 12.833 0 2.806 1.05 5.501 2.926 7.506 2.266 2.421 3.535 5.676 3.535 9.066v10.814c0 4.08 3.159 7.39 7.056 7.39 3.896 0 7.055-3.31 7.055-7.39V37.622c0-2.29.22-4.575.654-6.82 1.427-7.366-.117-15.048-4.373-21.075zm1.678-1.372z" fill="#009B97"/><path fill-rule="evenodd" clip-rule="evenodd" d="M38.821 18.323c-1.601-3.073-1.92-7.623.935-10.593l.783.785c-2.4 2.497-2.218 6.464-.75 9.281 1.215 2.33 3.08 4.187 5.005 6.104.429.426.86.856 1.289 1.295 2.316 2.372 4.629 5.232 5.146 8.723.42 2.83-.466 5.827-2.348 7.947-1.903 2.143-4.976 3.16-7.717 3.16v-1.12c2.524 0 5.265-.946 6.904-2.793l.407.376-.407-.376c1.66-1.871 2.446-4.529 2.076-7.026-.46-3.107-2.54-5.747-4.838-8.1-.401-.41-.816-.822-1.233-1.238-1.933-1.92-3.95-3.925-5.252-6.425z" fill="#009B97"/></svg>