<svg width="52" height="52" fill="none" xmlns="http://www.w3.org/2000/svg"><path d="M51.785 38.86l-3.947-4.642L46.43 27.3a.908.908 0 00-.355-.553l-6.61-4.816c.201-1.773.375-3.499.507-5.161a6.995 6.995 0 00-.749-3.758V6.996c0-.723-.283-1.397-.79-1.892a2.66 2.66 0 00-1.892-.781c-.452 0-.87.123-1.244.321a2.663 2.663 0 00-.398-.527 2.668 2.668 0 00-1.9-.79 2.64 2.64 0 00-1.294.349 2.656 2.656 0 00-2.25-1.229c-.423 0-.819.109-1.176.287a2.803 2.803 0 00-.474-.672 2.699 2.699 0 00-1.892-.774c-.532 0-1.023.16-1.44.43a3.722 3.722 0 00-.507-.64A3.765 3.765 0 0021.348 0a3.701 3.701 0 00-3.698 3.697V8.2c-1.404 1.919-1.959 4.718-1.483 7.498.168 1.01.482 2 .904 2.867.385.786.865 1.516 1.33 2.221.782 1.193 1.523 2.318 1.724 3.577.156.964-.014 1.982-.195 3.058-.06.36-.12.72-.17 1.077-.45 3.257.088 6.718 1.519 9.742.765 1.627 1.563 2.904 2.969 3.855a8.592 8.592 0 004.737 1.45 8.378 8.378 0 006.862-3.563c.06.08.127.154.21.211l6.987 4.826a.906.906 0 101.03-1.493l-6.772-4.675-2.192-5.149a.909.909 0 00-.182-.275l-3.736-3.866a1.105 1.105 0 01-.211-1.235 1.098 1.098 0 01.7-.603c.316-.09.639-.043.914.133l4.374 2.833a.408.408 0 00.057.037l1.726 1.119a.906.906 0 00.984-1.52l-1.28-.83c.29-1.91.542-3.736.763-5.498l5.505 4.01 1.384 6.8c.03.15.099.29.198.407l4.098 4.82a.902.902 0 001.277.103.906.906 0 00.104-1.277zM35.681 6.995a.861.861 0 011.478-.602.832.832 0 01.252.602v3.763a6.975 6.975 0 00-1.73-1.045V6.995zm-3.543-.988a.866.866 0 111.73 0v3.217c-.137-.019-.274-.041-.415-.052l-1.315-.096V6.007zm-3.543-.879c0-.48.386-.87.86-.87a.873.873 0 01.87.87v3.537a5.198 5.198 0 01-.893-.468l-.837-.555V5.128zm-3.542-1.16a.866.866 0 111.73 0v2.488a7.033 7.033 0 00-1.73-.743V3.968zm-5.59-.271c0-1.039.845-1.885 1.884-1.885.498 0 .99.203 1.343.551.356.354.55.828.55 1.334v1.761a6.843 6.843 0 00-3.778 1.048v-2.81zm18.703 12.929c-.288 3.631-.748 7.514-1.382 11.785l-3.203-2.075a2.917 2.917 0 00-2.405-.352 2.921 2.921 0 00-1.84 1.587 2.905 2.905 0 00.554 3.249l3.618 3.745 1.441 3.385a6.574 6.574 0 01-5.964 3.782 6.756 6.756 0 01-3.724-1.14c-1.065-.72-1.686-1.728-2.344-3.125-1.282-2.711-1.766-5.808-1.36-8.723.045-.34.102-.681.16-1.023.197-1.174.402-2.389.198-3.646-.264-1.641-1.147-2.984-2-4.284-.454-.689-.881-1.338-1.215-2.022a8.78 8.78 0 01-.746-2.373c-.397-2.318.04-4.614 1.17-6.143.819-1.109 1.953-1.764 3.37-1.948a5.23 5.23 0 013.589.844l2.343 1.556c1.671 1.12 2.98 1.135 4.894 1.274a5.226 5.226 0 013.602 1.822 5.202 5.202 0 011.244 3.826v-.001z" fill="#009B97"/><path d="M31.443 22.532a4.73 4.73 0 00-5.748 6.83.906.906 0 001.56-.922 2.906 2.906 0 01-.217-2.523 2.922 2.922 0 013.761-1.692.906.906 0 00.644-1.693z" fill="#009B97"/></svg>