<svg width="81" height="64" fill="none" xmlns="http://www.w3.org/2000/svg"><g clip-path="url(#clip0_801_697)" fill="#009B97"><path d="M54.886 13.33l4.933 2.083a13.112 13.112 0 012.897 1.685.906.906 0 001.072.024.883.883 0 00.327-.43.867.867 0 00-.295-.982 14.91 14.91 0 00-3.294-1.917l-4.933-2.083a8.37 8.37 0 01-2.477-1.608 8.224 8.224 0 01-2.603-5.974V2.881A.888.888 0 0049.618 2a.888.888 0 00-.896.881v1.247a9.98 9.98 0 003.158 7.25 10.16 10.16 0 003.006 1.952zM70.9 52.21l-1.042-1.97a.958.958 0 01-.11-.447v-9.848c0-.691-.146-1.376-.429-2.009a4.994 4.994 0 00-1.214-1.669l.002-.033v-2.92c2.258-4.77 1.725-10.366-1.407-14.653a.89.89 0 00-.583-.356.911.911 0 00-.668.155.886.886 0 00-.36.573.868.868 0 00.156.656 12.625 12.625 0 011.16 13.044.872.872 0 00-.09.383v1.64l-8.386-7.045v-1.024a.888.888 0 00-.896-.882.888.888 0 00-.896.881v12.327c0 1.204-.22 2.406-.643 3.535l-.158-.259a3.243 3.243 0 00-2.094-1.486 3.292 3.292 0 00-2.539.469 3.194 3.194 0 00-1.185 3.943l2.467 5.664a10.992 10.992 0 002.76 3.808c0 .02 0 .04.002.06l.399 6.204a.876.876 0 00.302.606.905.905 0 001.264-.08.873.873 0 00.222-.637l-.309-4.795c.301.173.61.332.926.477l1.01.461 3.504 4.66a.891.891 0 00.72.357.907.907 0 00.47-.131.886.886 0 00.33-.354.868.868 0 00-.08-.92l-3.64-4.84a.893.893 0 00-.342-.275l-1.217-.556a9.296 9.296 0 01-4.674-4.739l-2.467-5.664a1.437 1.437 0 01-.059-.988 1.485 1.485 0 011.745-1.01 1.48 1.48 0 01.949.673l1.803 2.956c.375.614 1.06.996 1.79.996h1.221a2.07 2.07 0 002.06-1.723l.183-1.106a.866.866 0 00-.157-.657.89.89 0 00-.583-.355.907.907 0 00-.667.155.88.88 0 00-.36.573l-.184 1.107a.288.288 0 01-.1.175.298.298 0 01-.192.069h-1.221a.3.3 0 01-.254-.141l-.513-.842a11.88 11.88 0 001.303-5.39v-3.507l2.06 2.42a.31.31 0 01.07.253l-.348 2.101a.866.866 0 00.202.713.894.894 0 00.683.31.905.905 0 00.58-.21.878.878 0 00.303-.53l.348-2.101a2.042 2.042 0 00-.465-1.666l-3.433-4.035v-2.733l8.873 7.455a3.198 3.198 0 011.154 2.462v9.848c0 .437.108.873.313 1.26l1.04 1.97a.886.886 0 00.526.433.91.91 0 00.956-.273.877.877 0 00.206-.643.87.87 0 00-.097-.33zM47.046 37.9a7.544 7.544 0 00-2.558 5.642c0 1.23.307 2.452.886 3.534a.886.886 0 00.528.43.91.91 0 00.683-.062.885.885 0 00.438-.519.868.868 0 00-.064-.671 5.756 5.756 0 01-.679-2.712c0-.817.176-1.625.514-2.37a5.842 5.842 0 011.45-1.962.883.883 0 00.303-.61.866.866 0 00-.228-.64.895.895 0 00-.624-.292.908.908 0 00-.649.232z"/><path d="M50.608 36.119a.896.896 0 00-.558.383.87.87 0 00.26 1.212.908.908 0 00.667.13 6.117 6.117 0 012.3-.03.91.91 0 00.677-.136.886.886 0 00.377-.569.867.867 0 00-.147-.664.89.89 0 00-.583-.363 7.941 7.941 0 00-2.993.037zM31.385 2a.909.909 0 00-.634.258.88.88 0 00-.262.623v1.247a8.225 8.225 0 01-2.602 5.974 8.373 8.373 0 01-2.478 1.608l-4.933 2.083c-3.746 1.582-6.597 4.522-8.025 8.279a14.211 14.211 0 00.445 11.242v2.92l.002.031a4.897 4.897 0 00-1.213 1.646 4.824 4.824 0 00-.43 1.988v1.562a.89.89 0 00.897.882.888.888 0 00.896-.882V39.9c0-.454.1-.902.292-1.314a3.14 3.14 0 01.826-1.073l8.909-7.484v2.733l-3.434 4.035a2.063 2.063 0 00-.465 1.666l1.153 6.963c.078.482.328.92.706 1.236a2.1 2.1 0 001.354.487h1.221c.73 0 1.415-.382 1.79-.996l1.803-2.956a1.456 1.456 0 01.949-.673 1.493 1.493 0 011.15.212c.286.19.497.472.595.798.098.326.077.676-.059.988l-2.467 5.664a9.297 9.297 0 01-4.674 4.739l-1.216.556a.892.892 0 00-.343.275l-3.64 4.84a.873.873 0 00.187 1.232.9.9 0 00.936.079.89.89 0 00.317-.263l3.505-4.66 1.009-.461c.316-.145.624-.303.925-.476l-.308 4.794a.868.868 0 00.222.638.906.906 0 001.264.079.876.876 0 00.302-.606l.4-6.204v-.06a10.994 10.994 0 002.76-3.808l2.468-5.664a3.193 3.193 0 00-1.185-3.943 3.29 3.29 0 00-2.539-.469 3.242 3.242 0 00-2.095 1.487l-.157.258a10.118 10.118 0 01-.643-3.535V26.687a.888.888 0 00-.896-.882.888.888 0 00-.896.881v1.025l-8.387 7.046v-1.641a.872.872 0 00-.089-.383 12.495 12.495 0 01-.469-10.044c1.255-3.302 3.76-5.886 7.054-7.276l4.933-2.083a10.165 10.165 0 003.007-1.952 9.98 9.98 0 003.158-7.25V2.881A.888.888 0 0031.385 2zm-7.521 43.245a.296.296 0 01-.254.141h-1.22a.297.297 0 01-.192-.069.288.288 0 01-.1-.175l-1.152-6.963a.31.31 0 01.07-.252l2.06-2.42v3.506c0 1.865.45 3.724 1.303 5.39l-.514.842z"/><path d="M12.152 44.336a.91.91 0 00-.633.258.88.88 0 00-.263.623v4.6a.86.86 0 01-.1.401l-1.052 1.992a.868.868 0 00-.056.669.903.903 0 001.12.573.893.893 0 00.526-.43l1.052-1.99c.198-.376.301-.792.302-1.214v-4.601a.867.867 0 00-.262-.623.897.897 0 00-.634-.258zM33.956 37.9a.897.897 0 00-.646-.225.907.907 0 00-.619.29.878.878 0 00-.228.637.87.87 0 00.295.608 5.84 5.84 0 011.45 1.961 5.73 5.73 0 01.514 2.371c0 .945-.235 1.883-.679 2.712a.868.868 0 00-.058.668.89.89 0 00.437.515.91.91 0 00.678.063.893.893 0 00.528-.424 7.503 7.503 0 00.886-3.534 7.544 7.544 0 00-2.558-5.642zm-6.553-1.819a.882.882 0 00-.72 1.026.895.895 0 001.043.708 6.121 6.121 0 012.3.028.908.908 0 00.674-.124.881.881 0 00.391-.9.873.873 0 00-.375-.565.903.903 0 00-.321-.135 7.946 7.946 0 00-2.992-.038zM40.597 2a.909.909 0 00-.634.258.881.881 0 00-.262.623v2.06a.89.89 0 00.896.882.888.888 0 00.896-.881v-2.06A.888.888 0 0040.597 2zm0 7.886a.909.909 0 00-.634.258.88.88 0 00-.262.623v2.06c0 .487.401.881.896.881a.888.888 0 00.896-.88v-2.061a.874.874 0 00-.263-.623.904.904 0 00-.633-.258zm0 7.885a.909.909 0 00-.634.258.881.881 0 00-.262.623v2.06a.89.89 0 00.896.882.888.888 0 00.896-.881v-2.06a.874.874 0 00-.263-.624.904.904 0 00-.633-.258zm0 7.886a.907.907 0 00-.634.258.881.881 0 00-.262.623v2.06c0 .487.401.881.896.881a.888.888 0 00.896-.88v-2.061a.874.874 0 00-.263-.623.904.904 0 00-.633-.258zm0 7.885a.91.91 0 00-.634.258.88.88 0 00-.262.624v2.06c0 .487.401.881.896.881a.888.888 0 00.896-.881v-2.06a.888.888 0 00-.896-.882zm0 7.886a.909.909 0 00-.634.258.88.88 0 00-.262.623v2.06a.89.89 0 00.896.882.888.888 0 00.896-.881v-2.06a.888.888 0 00-.896-.882zm0 7.886a.907.907 0 00-.634.258.881.881 0 00-.262.623v2.06c0 .487.401.881.896.881a.888.888 0 00.896-.881v-2.06a.888.888 0 00-.896-.881zm0 7.885a.908.908 0 00-.634.258.881.881 0 00-.262.623v2.06a.89.89 0 00.896.882.888.888 0 00.896-.881v-2.06a.888.888 0 00-.896-.882z"/></g><defs><clipPath id="clip0_801_697"><path fill="#fff" transform="translate(10 2)" d="M0 0h61v60H0z"/></clipPath></defs></svg>