<svg width="44" height="44" fill="none" xmlns="http://www.w3.org/2000/svg"><g clip-path="url(#clip0_413_1913)" fill="#009B97"><path d="M21.567 9.644h1.118c.82 0 1.49-.655 1.515-1.47a1.517 1.517 0 001.47-1.515V5.54c0-.82-.656-1.49-1.47-1.515a1.517 1.517 0 00-1.515-1.47h-1.118c-.82 0-1.49.655-1.515 1.47a1.518 1.518 0 00-1.47 1.515v1.118c0 .82.655 1.49 1.47 1.515.024.815.695 1.47 1.515 1.47zm-1.691-2.985V5.54a.222.222 0 01.222-.222h.554c.382 0 .693-.31.693-.693v-.554a.222.222 0 01.222-.222h1.118a.222.222 0 01.222.222v.554c0 .382.31.693.692.693h.555a.223.223 0 01.222.222v1.12a.222.222 0 01-.222.222H23.6a.694.694 0 00-.692.693v.554a.222.222 0 01-.222.222h-1.118a.222.222 0 01-.222-.222v-.554a.694.694 0 00-.693-.693h-.554a.222.222 0 01-.222-.222z"/><path d="M35.035 28.953l-8.062-3.023a.548.548 0 01-.353-.51v-2.858a8.362 8.362 0 003.67-5.933 2.992 2.992 0 002.75-2.978 2.992 2.992 0 00-2.688-2.973V4.58a3.37 3.37 0 00-1.605-2.86L27.174.76A5.186 5.186 0 0024.472 0h-4.944c-.953 0-1.888.263-2.702.76l-1.573.96a3.371 3.371 0 00-1.605 2.86v6.091a2.991 2.991 0 00-2.785 2.98c0 1.6 1.265 2.911 2.848 2.985a8.362 8.362 0 003.669 5.926v2.858a.547.547 0 01-.353.51l-8.062 3.023A7.376 7.376 0 004.2 35.828v3.978a.647.647 0 001.293 0v-3.978a6.077 6.077 0 013.925-5.663l2.498-.937v4.14a2.57 2.57 0 00-1.919 2.483 2.569 2.569 0 002.566 2.566 2.569 2.569 0 002.566-2.566 2.57 2.57 0 00-1.92-2.483v-4.625l.37-.139a.632.632 0 00.056.046l1.6 1.188A11.272 11.272 0 0022 32.073a11.27 11.27 0 006.763-2.235l1.604-1.19a.64.64 0 00.053-.044l.895.336v3.887a3.109 3.109 0 00-2.895 3.097v5.124a.647.647 0 00.647.646h.985a.647.647 0 100-1.293h-.338v-4.477c0-.999.812-1.811 1.811-1.811h.8c.999 0 1.811.812 1.811 1.811v4.477h-.334a.647.647 0 000 1.293h.981a.647.647 0 00.647-.646v-5.124a3.11 3.11 0 00-2.821-3.091v-3.408l1.972.74a6.076 6.076 0 013.925 5.663v6.85a.028.028 0 01-.028.028H5.522a.028.028 0 01-.028-.028v-.285a.647.647 0 00-1.293 0v.285c0 .73.592 1.322 1.321 1.322h32.956c.728 0 1.321-.593 1.321-1.322v-6.85a7.376 7.376 0 00-4.764-6.875zm-21.199 6.898c0 .701-.57 1.272-1.272 1.272a1.273 1.273 0 111.272-1.272zm17.91-22.2c0 .832-.602 1.524-1.394 1.666v-3.332a1.696 1.696 0 011.394 1.666zm-19.589 0c0-.865.652-1.58 1.49-1.68v3.361a1.696 1.696 0 01-1.49-1.68zm2.784 1.956v-3.642h3.545a.647.647 0 100-1.294H14.94V4.58c0-.712.378-1.385.986-1.756l1.573-.96a3.89 3.89 0 012.028-.57h4.944c.715 0 1.417.197 2.028.57l1.573.96a2.07 2.07 0 01.986 1.756v6.09h-7.986a.647.647 0 000 1.295h7.986v3.642A7.067 7.067 0 0122 22.666a7.067 7.067 0 01-7.059-7.059zM27.992 28.8A9.987 9.987 0 0122 30.779a9.987 9.987 0 01-5.992-1.98l-.99-.734 2.463-.923a1.847 1.847 0 001.193-1.722v-2.152A8.303 8.303 0 0022 23.96a8.303 8.303 0 003.326-.692v2.152c0 .762.48 1.454 1.193 1.722l2.462.923-.989.734z"/></g><defs><clipPath id="clip0_413_1913"><path fill="#fff" d="M0 0h44v44H0z"/></clipPath></defs></svg>