<svg width="31" height="44" fill="none" xmlns="http://www.w3.org/2000/svg"><path fill-rule="evenodd" clip-rule="evenodd" d="M3.534 3.73C5.08 1.655 7.328 0 10.045 0c2.524 0 4.284 1.07 5.623 2.558l-1.232 1.197c-1.075-1.195-2.41-2.002-4.39-2.002-2.017 0-3.824 1.233-5.179 3.05-2.058 2.762-3.18 5.98-3.18 10.093 0 2.207.832 4.327 2.319 5.904 1.795 1.904 2.8 4.464 2.8 7.13v8.505c0 3.21 2.504 5.812 5.593 5.812 1.73 0 3.277-.816 4.304-2.101L18 41.266C16.666 42.935 14.652 44 12.399 44c-4.02 0-7.279-3.387-7.279-7.565V27.93c0-2.207-.832-4.327-2.319-5.903C1.006 20.122 0 17.562 0 14.896c0-4.489 1.239-8.087 3.534-11.167z" fill="#009B97"/><path fill-rule="evenodd" clip-rule="evenodd" d="M3.942 11.237C2.697 8.847 2.45 5.31 4.67 3l.609.611c-1.867 1.941-1.725 5.026-.583 7.216.944 1.812 2.395 3.256 3.893 4.746.333.332.67.666 1.002 1.007 1.801 1.844 3.6 4.069 4.003 6.783l-.422.065.422-.065c.326 2.201-.362 4.53-1.826 6.18l-.316-.294.316.293C10.288 31.21 7.897 32 5.765 32v-.872c1.963 0 4.095-.735 5.37-2.172 1.292-1.454 1.903-3.52 1.615-5.462-.358-2.417-1.976-4.469-3.763-6.298-.313-.32-.635-.64-.96-.963-1.503-1.493-3.071-3.052-4.085-4.996zm22.053-7.348l.002.002.003.005-.685.52-.005-.007v-.001l-.001-.001-.01-.013.689-.516.007.01z" fill="#009B97"/><path fill-rule="evenodd" clip-rule="evenodd" d="M13.602 3.73C15.177 1.655 17.468 0 20.238 0c3.046 0 4.98 1.497 6.405 3.368l.023.029.005.006.003.004v.001l.002.002.002.002v.002l.002.002.006.008-.473.357.473-.356.005.007a.188.188 0 00-.003-.006l-.002-.001.01.012a.277.277 0 00.004.007l.005.006.004.005c3.739 5.153 5.085 11.706 3.839 17.973a25.71 25.71 0 00-.494 5.016v9.991c0 4.178-3.321 7.565-7.418 7.565-4.096 0-7.418-3.387-7.418-7.565V27.93a8.522 8.522 0 00-2.363-5.903A10.293 10.293 0 0110 14.896c0-4.489 1.263-8.087 3.602-11.167zm13.093-.292l-1.382 1.04.015.018.69-.52-.676.528c.537.284 1.484-.396 1.366-1.047l-.008-.013-.005-.006zm-1.364 1.066c-1.216-1.619-2.703-2.751-5.093-2.751-2.055 0-3.897 1.233-5.277 3.05-2.098 2.762-3.242 5.98-3.242 10.093 0 2.207.849 4.327 2.364 5.904a10.293 10.293 0 012.854 7.13v8.505c0 3.21 2.552 5.812 5.7 5.812 3.146 0 5.698-2.602 5.698-5.812v-9.991c0-1.802.177-3.599.528-5.365 1.153-5.793-.095-11.834-3.532-16.575zm1.355-1.079z" fill="#009B97"/><path fill-rule="evenodd" clip-rule="evenodd" d="M13.971 11.237c-1.283-2.39-1.539-5.927.75-8.237l.627.611c-1.924 1.941-1.777 5.026-.6 7.216.973 1.812 2.468 3.256 4.011 4.746.344.332.69.666 1.034 1.007 1.856 1.844 3.71 4.069 4.125 6.783.336 2.201-.374 4.53-1.882 6.18C20.51 31.208 18.046 32 15.849 32v-.872c2.024 0 4.22-.735 5.535-2.172l.326.293-.326-.293a6.716 6.716 0 001.664-5.462c-.368-2.417-2.037-4.469-3.878-6.298-.322-.32-.654-.64-.989-.963-1.549-1.493-3.166-3.052-4.21-4.996z" fill="#009B97"/></svg>