<svg width="33" height="28" fill="none" xmlns="http://www.w3.org/2000/svg"><g clip-path="url(#clip0_807_591)"><mask id="path-1-inside-1_807_591" fill="#fff"><path d="M6.48 27.5c-3.579 0-6.593-3.008-5.224-6.314a16.501 16.501 0 0130.488 0c1.37 3.306-1.645 6.314-5.224 6.314H6.48z"/></mask><path d="M6.48 27.5c-3.579 0-6.593-3.008-5.224-6.314a16.501 16.501 0 0130.488 0c1.37 3.306-1.645 6.314-5.224 6.314H6.48z" stroke="#003837" stroke-width="4" mask="url(#path-1-inside-1_807_591)"/><circle cx="17" cy="20" r="3" stroke="#003837" stroke-width="2"/><path d="M27.285 10.073h0a1.5 1.5 0 001.683-1.485s0 0 0 0V6.494c0-1.16-.61-2.232-1.633-2.723l-.05 6.3zm0 0l-4.151-.517a1.497 1.497 0 01-1.098-.716h0m5.249 1.233L22.036 8.84m0 0l-1.663-2.77v-.001m1.663 2.77l-1.663-2.77m0 0a1.97 1.97 0 00-.718-.7l-.493.87m1.21-.17l-1.21.17m0 0l.493-.87a1.97 1.97 0 00-.97-.256h0-4.975 0l5.452 1.126zM10.358 8.84h0l1.662-2.77s0 0 0 0h0l.858.515-2.52 2.255zm0 0a1.498 1.498 0 01-1.098.716l-4.15.518a1.497 1.497 0 01-1.684-1.485h0m6.932.251l-6.932-.252m0 0V6.495c0-1.16.61-2.23 1.634-2.721h0M3.426 8.587L5.06 3.773m0 0A25.676 25.676 0 0116.197 1.25h.003M5.06 3.773L16.2 1.25m0 0c3.854-.006 7.66.856 11.135 2.522L16.2 1.25z" stroke="#003837" stroke-width="2"/></g><defs><clipPath id="clip0_807_591"><path fill="#fff" d="M0 0h33v28H0z"/></clipPath></defs></svg>