<svg width="374" height="1158" viewBox="0 0 374 1158" fill="none" xmlns="http://www.w3.org/2000/svg">
<path d="M111.959 1014.16L111.96 1014.16C115.259 1019.68 119.804 1024.02 125.587 1027.18L125.591 1027.19C131.378 1030.28 137.864 1031.83 145.038 1031.83C152.213 1031.83 158.699 1030.28 164.486 1027.19L164.489 1027.18C170.273 1024.02 174.818 1019.68 178.117 1014.16C181.418 1008.63 183.065 1002.4 183.065 995.482C183.065 988.563 181.418 982.333 178.117 976.806C174.818 971.285 170.272 966.974 164.488 963.879C158.701 960.716 152.214 959.139 145.038 959.139C137.863 959.139 131.376 960.716 125.589 963.879C119.804 966.975 115.258 971.319 111.959 976.907C108.659 982.433 107.012 988.628 107.012 995.482C107.012 1002.34 108.659 1008.57 111.959 1014.16ZM165.904 983.182L165.906 983.185C167.983 986.82 169.025 990.915 169.025 995.482C169.025 1000.05 167.983 1004.18 165.905 1007.88C163.826 1011.52 160.972 1014.37 157.335 1016.45C153.701 1018.46 149.606 1019.48 145.038 1019.48C140.471 1019.48 136.376 1018.46 132.742 1016.45C129.105 1014.37 126.251 1011.52 124.172 1007.88C122.094 1004.18 121.051 1000.05 121.051 995.482C121.051 990.915 122.094 986.82 124.171 983.185L124.173 983.182C126.252 979.478 129.105 976.625 132.739 974.613L132.739 974.613L132.744 974.61C136.379 972.532 140.473 971.489 145.038 971.489C149.604 971.489 153.698 972.532 157.332 974.61L157.332 974.61L157.338 974.613C160.971 976.625 163.825 979.478 165.904 983.182ZM241.461 1030.62L241.61 1030.83L241.871 1030.83L255.806 1030.83L256.767 1030.83L256.216 1030.04L240.551 1007.66C245.125 1005.77 248.664 1002.97 251.144 999.247C253.796 995.369 255.112 990.755 255.112 985.426C255.112 980.235 253.898 975.724 251.449 971.914C249.001 968.105 245.47 965.191 240.88 963.165C236.356 961.139 231.041 960.135 224.949 960.135L196.281 960.135L195.781 960.135L195.781 960.635L195.781 1030.33L195.781 1030.83L196.281 1030.83L209.222 1030.83L209.722 1030.83L209.722 1030.33L209.722 1010.52L224.949 1010.52C225.97 1010.52 226.787 1010.49 227.393 1010.44L241.461 1030.62ZM258.659 971.587L258.659 972.087L259.159 972.087L281.752 972.087L281.752 1030.33L281.752 1030.83L282.252 1030.83L295.192 1030.83L295.692 1030.83L295.692 1030.33L295.692 972.087L318.286 972.087L318.786 972.087L318.786 971.587L318.786 960.635L318.786 960.135L318.286 960.135L259.159 960.135L258.659 960.135L258.659 960.635L258.659 971.587ZM340.124 1027.18L340.128 1027.19C345.914 1030.28 352.4 1031.83 359.575 1031.83C366.749 1031.83 373.235 1030.28 379.022 1027.19L379.026 1027.18C384.809 1024.02 389.355 1019.68 392.653 1014.16C395.955 1008.63 397.601 1002.4 397.601 995.482C397.601 988.563 395.955 982.333 392.653 976.806C389.354 971.285 384.808 966.974 379.024 963.879C373.238 960.716 366.751 959.139 359.575 959.139C352.399 959.139 345.912 960.716 340.126 963.879C334.34 966.974 329.794 971.319 326.496 976.907C323.195 982.432 321.548 988.628 321.548 995.482C321.548 1002.34 323.195 1008.57 326.495 1014.16L326.496 1014.16C329.795 1019.68 334.341 1024.02 340.124 1027.18ZM380.44 983.182L380.442 983.185C382.519 986.82 383.562 990.915 383.562 995.482C383.562 1000.05 382.519 1004.18 380.442 1007.88C378.363 1011.52 375.509 1014.37 371.872 1016.45C368.237 1018.46 364.142 1019.48 359.575 1019.48C355.008 1019.48 350.913 1018.46 347.278 1016.45C343.642 1014.37 340.787 1011.52 338.709 1007.88C336.63 1004.18 335.588 1000.05 335.588 995.482C335.588 990.915 336.631 986.82 338.707 983.185L338.709 983.182C340.788 979.478 343.642 976.625 347.275 974.613L347.281 974.61C350.915 972.532 355.009 971.489 359.575 971.489C364.141 971.489 368.234 972.532 371.869 974.61L371.875 974.613C375.508 976.625 378.361 979.478 380.44 983.182ZM451.781 1030.62L451.93 1030.83L452.188 1030.83L467.119 1030.83L468.1 1030.83L467.523 1030.04L441.557 994.287L465.732 960.928L466.307 960.135L465.327 960.135L451.292 960.135L451.034 960.135L450.884 960.345L433.671 984.566L416.261 960.343L416.112 960.135L415.855 960.135L401.223 960.135L400.249 960.135L400.817 960.926L425.093 994.783L399.425 1030.04L398.847 1030.83L399.829 1030.83L414.561 1030.83L414.82 1030.83L414.97 1030.62L433.277 1004.71L451.781 1030.62ZM236.876 975.558C239.658 977.835 241.072 981.099 241.072 985.426C241.072 989.752 239.659 993.052 236.873 995.396C234.077 997.683 229.93 998.865 224.352 998.865L209.722 998.865L209.722 972.087L224.352 972.087C229.932 972.087 234.08 973.27 236.876 975.558Z" stroke="#009B97" stroke-opacity="0.15"/>
<path d="M388.523 981.909C386.225 977.815 383.067 974.655 379.047 972.429C375.028 970.131 370.505 968.982 365.481 968.982C360.456 968.982 355.934 970.131 351.914 972.429L388.523 981.909ZM388.523 981.909C390.82 985.931 391.968 990.455 391.968 995.482C391.968 1000.51 390.82 1005.07 388.523 1009.16L388.523 981.909ZM97.6696 1015.67L97.6709 1015.67C101.235 1021.64 106.147 1026.33 112.396 1029.75L112.4 1029.75C118.653 1033.1 125.662 1034.76 133.417 1034.76C141.172 1034.76 148.181 1033.1 154.434 1029.75L154.437 1029.75C160.687 1026.33 165.598 1021.64 169.163 1015.67C172.73 1009.7 174.509 1002.96 174.509 995.482C174.509 988.002 172.73 981.269 169.163 975.297C165.598 969.329 160.686 964.67 154.435 961.324C148.183 957.906 141.173 956.201 133.417 956.201C125.661 956.201 118.651 957.906 112.398 961.324C106.146 964.67 101.234 969.366 97.6702 975.406C94.1039 981.377 92.3242 988.074 92.3242 995.482C92.3242 1002.89 94.1042 1009.62 97.6696 1015.67ZM156.023 982.154L156.025 982.157C158.275 986.097 159.404 990.534 159.404 995.482C159.404 1000.43 158.275 1004.9 156.024 1008.92C153.772 1012.86 150.679 1015.95 146.738 1018.21C142.8 1020.39 138.364 1021.48 133.417 1021.48C128.47 1021.48 124.033 1020.39 120.095 1018.21C116.155 1015.95 113.062 1012.86 110.81 1008.92C108.558 1004.9 107.429 1000.43 107.429 995.482C107.429 990.534 108.559 986.097 110.809 982.157L110.811 982.154C113.063 978.139 116.156 975.047 120.092 972.866L120.092 972.867L120.098 972.863C124.036 970.612 128.471 969.482 133.417 969.482C138.362 969.482 142.798 970.612 146.735 972.863L146.735 972.863L146.741 972.866C150.678 975.047 153.77 978.139 156.023 982.154ZM237.75 1033.47L237.899 1033.69L238.16 1033.69L253.234 1033.69L254.195 1033.69L253.644 1032.9L236.67 1008.64C241.634 1006.6 245.471 1003.56 248.157 999.533C251.021 995.345 252.442 990.36 252.442 984.602C252.442 978.992 251.131 974.119 248.487 970.004C245.844 965.891 242.031 962.743 237.072 960.553C232.185 958.364 226.442 957.278 219.856 957.278L188.846 957.278L188.346 957.278L188.346 957.778L188.346 1033.19L188.346 1033.69L188.846 1033.69L202.844 1033.69L203.344 1033.69L203.344 1033.19L203.344 1011.71L219.856 1011.71C220.973 1011.71 221.864 1011.68 222.52 1011.63L237.75 1033.47ZM256.361 969.628L256.361 970.128L256.861 970.128L281.341 970.128L281.341 1033.19L281.341 1033.69L281.841 1033.69L295.838 1033.69L296.338 1033.69L296.338 1033.19L296.338 970.128L320.818 970.128L321.318 970.128L321.318 969.628L321.318 957.778L321.318 957.278L320.818 957.278L256.861 957.278L256.361 957.278L256.361 957.778L256.361 969.628ZM344.46 1029.75L344.464 1029.75C350.717 1033.09 357.726 1034.76 365.481 1034.76C373.235 1034.76 380.245 1033.09 386.497 1029.75L386.501 1029.75C392.751 1026.33 397.662 1021.64 401.226 1015.67C404.794 1009.7 406.573 1002.96 406.573 995.482C406.573 988.002 404.794 981.269 401.226 975.297C397.662 969.328 392.749 964.669 386.498 961.324C380.246 957.906 373.236 956.201 365.481 956.201C357.725 956.201 350.715 957.906 344.462 961.324C338.21 964.67 333.298 969.366 329.734 975.406C326.168 981.377 324.388 988.074 324.388 995.482C324.388 1002.89 326.168 1009.62 329.733 1015.67L329.735 1015.67C333.299 1021.64 338.211 1026.33 344.46 1029.75ZM388.086 982.154L388.088 982.157C390.339 986.097 391.468 990.534 391.468 995.482C391.468 1000.43 390.339 1004.9 388.088 1008.92C385.836 1012.86 382.743 1015.95 378.803 1018.21C374.864 1020.39 370.428 1021.48 365.481 1021.48C360.534 1021.48 356.097 1020.39 352.159 1018.21C348.219 1015.95 345.126 1012.86 342.873 1008.92C340.622 1004.9 339.493 1000.43 339.493 995.482C339.493 990.534 340.623 986.097 342.873 982.157L342.875 982.154C345.127 978.139 348.219 975.047 352.156 972.866L352.162 972.863C356.1 970.612 360.535 969.482 365.481 969.482C370.426 969.482 374.861 970.612 378.799 972.863L378.805 972.866C382.742 975.047 385.834 978.139 388.086 982.154ZM465.253 1033.48L465.402 1033.69L465.66 1033.69L481.811 1033.69L482.792 1033.69L482.215 1032.89L454.111 994.189L480.277 958.072L480.852 957.278L479.873 957.278L464.691 957.278L464.433 957.278L464.283 957.489L445.63 983.742L426.765 957.487L426.616 957.278L426.359 957.278L410.531 957.278L409.558 957.278L410.125 958.07L436.402 994.726L408.62 1032.89L408.042 1033.69L409.024 1033.69L424.96 1033.69L425.219 1033.69L425.368 1033.47L445.204 1005.39L465.253 1033.48ZM232.783 973.893C235.804 976.366 237.337 979.91 237.337 984.602C237.337 989.292 235.805 992.875 232.78 995.421C229.746 997.903 225.249 999.184 219.21 999.184L203.344 999.184L203.344 970.128L219.21 970.128C225.251 970.128 229.749 971.409 232.783 973.893Z" stroke="#009B97" stroke-opacity="0.15"/>
<path d="M74.8012 1018.08L74.8026 1018.08C78.7919 1024.76 84.289 1030.02 91.2844 1033.85L91.2883 1033.85C98.287 1037.6 106.133 1039.46 114.816 1039.46C123.499 1039.46 131.346 1037.6 138.344 1033.85L138.348 1033.85C145.344 1030.02 150.841 1024.76 154.83 1018.08C158.822 1011.4 160.814 1003.86 160.814 995.482C160.814 987.105 158.822 979.567 154.83 972.881C150.841 966.199 145.343 960.983 138.346 957.237C131.348 953.409 123.5 951.5 114.816 951.5C106.132 951.5 98.2853 953.409 91.2864 957.237C84.2886 960.983 78.7909 966.241 74.8019 973.003C70.8106 979.688 68.8184 987.185 68.8184 995.482C68.8184 1003.78 70.8108 1011.32 74.8012 1018.08ZM140.207 980.508L140.209 980.511C142.736 984.938 144.005 989.925 144.005 995.482C144.005 1001.04 142.737 1006.07 140.208 1010.58C137.678 1015.01 134.203 1018.48 129.777 1021.01C125.353 1023.46 120.37 1024.69 114.816 1024.69C109.262 1024.69 104.279 1023.46 99.8555 1021.01C95.4294 1018.48 91.9548 1015.01 89.425 1010.58C86.896 1006.07 85.628 1001.04 85.628 995.482C85.628 989.925 86.8963 984.938 89.4241 980.511L89.426 980.508C91.9562 975.997 95.43 972.522 99.8525 970.072L99.8525 970.072L99.8584 970.068C104.282 967.539 109.264 966.269 114.816 966.269C120.369 966.269 125.351 967.539 129.774 970.068L129.774 970.068L129.78 970.072C134.203 972.522 137.677 975.997 140.207 980.508ZM231.808 1038.04L231.957 1038.26L232.218 1038.26L249.114 1038.26L250.073 1038.26L249.523 1037.47L230.455 1010.21C236.043 1007.92 240.357 1004.52 243.373 999.989C246.575 995.305 248.165 989.728 248.165 983.283C248.165 977.002 246.697 971.55 243.741 966.948C240.786 962.348 236.522 958.825 230.973 956.375C225.505 953.924 219.077 952.708 211.701 952.708L176.944 952.708L176.444 952.708L176.444 953.208L176.444 1037.76L176.444 1038.26L176.944 1038.26L192.633 1038.26L193.133 1038.26L193.133 1037.76L193.133 1013.62L211.701 1013.62C212.973 1013.62 213.981 1013.59 214.717 1013.52L231.808 1038.04ZM252.678 966.494L252.678 966.994L253.178 966.994L280.677 966.994L280.677 1037.76L280.677 1038.26L281.177 1038.26L296.866 1038.26L297.366 1038.26L297.366 1037.76L297.366 966.994L324.865 966.994L325.365 966.994L325.365 966.494L325.365 953.208L325.365 952.708L324.865 952.708L253.178 952.708L252.678 952.708L252.678 953.208L252.678 966.494ZM351.392 1033.85L351.396 1033.85C358.395 1037.6 366.241 1039.46 374.924 1039.46C383.607 1039.46 391.454 1037.6 398.452 1033.85L398.456 1033.85C405.452 1030.02 410.949 1024.76 414.938 1018.08C418.93 1011.4 420.922 1003.86 420.922 995.482C420.922 987.105 418.93 979.567 414.938 972.881C410.949 966.199 405.451 960.983 398.455 957.237C391.456 953.409 383.608 951.5 374.924 951.5C366.24 951.5 358.393 953.409 351.394 957.237C344.396 960.984 338.898 966.241 334.909 973.004C330.918 979.689 328.926 987.186 328.926 995.482C328.926 1003.78 330.919 1011.32 334.909 1018.08L334.91 1018.08C338.9 1024.76 344.397 1030.02 351.392 1033.85ZM400.315 980.508L400.316 980.511C402.844 984.938 404.113 989.925 404.113 995.482C404.113 1001.04 402.845 1006.07 400.316 1010.57C397.786 1015 394.312 1018.48 389.886 1021.01C385.462 1023.46 380.478 1024.69 374.924 1024.69C369.37 1024.69 364.387 1023.46 359.964 1021.01C355.537 1018.48 352.062 1015 349.532 1010.57C347.004 1006.07 345.736 1001.04 345.736 995.482C345.736 989.925 347.004 984.938 349.532 980.511L349.534 980.508C352.064 975.997 355.538 972.522 359.96 970.072L359.966 970.068C364.39 967.538 369.372 966.269 374.924 966.269C380.477 966.269 385.459 967.538 389.882 970.068L389.888 970.072C394.311 972.522 397.784 975.997 400.315 980.508ZM486.803 1038.05L486.952 1038.26L487.21 1038.26L505.312 1038.26L506.293 1038.26L505.717 1037.46L474.19 994.032L503.545 953.501L504.12 952.708L503.14 952.708L486.124 952.708L485.865 952.708L485.716 952.918L464.76 982.422L443.566 952.916L443.416 952.708L443.16 952.708L425.419 952.708L424.446 952.708L425.013 953.499L454.491 994.634L423.325 1037.46L422.748 1038.26L423.73 1038.26L441.591 1038.26L441.85 1038.26L441.999 1038.04L464.282 1006.49L486.803 1038.05ZM226.229 971.229C229.632 974.015 231.356 978.008 231.356 983.283C231.356 988.556 229.632 992.592 226.226 995.46C222.81 998.255 217.754 999.692 210.977 999.692L193.133 999.692L193.133 966.994L210.977 966.994C217.756 966.994 222.813 968.432 226.229 971.229Z" stroke="#009B97" stroke-opacity="0.15"/>
<path d="M23.1891 652.156L23.1904 652.158C26.489 657.68 31.0347 662.023 36.8178 665.184L36.8217 665.186C42.6081 668.282 49.0942 669.825 56.2689 669.825C63.4435 669.825 69.9296 668.282 75.716 665.186L75.7199 665.184C81.5031 662.023 86.0487 657.68 89.3473 652.158C92.6489 646.632 94.2955 640.402 94.2955 633.482C94.2955 626.563 92.6488 620.333 89.3473 614.806C86.0485 609.285 81.5023 604.974 75.718 601.879C69.9314 598.716 63.4445 597.139 56.2688 597.139C49.0932 597.139 42.6063 598.716 36.8197 601.879C31.0343 604.975 26.4881 609.319 23.1898 614.907C19.8891 620.433 18.2422 626.628 18.2422 633.482C18.2422 640.337 19.8893 646.565 23.1891 652.156ZM77.1344 621.182L77.1363 621.185C79.213 624.82 80.2557 628.915 80.2557 633.482C80.2557 638.049 79.2133 642.178 77.1353 645.881C75.0567 649.519 72.2023 652.374 68.5655 654.453C64.9311 656.465 60.8361 657.475 56.2689 657.475C51.7016 657.475 47.6066 656.465 43.9721 654.453C40.3354 652.374 37.481 649.519 35.4024 645.881C33.3244 642.178 32.282 638.049 32.282 633.482C32.282 628.915 33.3247 624.82 35.4014 621.185L35.4033 621.182C37.4824 617.478 40.3359 614.625 43.969 612.613L43.969 612.613L43.9749 612.61C47.6091 610.532 51.703 609.489 56.2688 609.489C60.8347 609.489 64.9286 610.532 68.5628 612.61L68.5628 612.61L68.5687 612.613C72.2018 614.625 75.0553 617.478 77.1344 621.182ZM152.691 668.616L152.84 668.83L153.101 668.83L167.037 668.83L167.997 668.83L167.447 668.043L151.782 645.66C156.355 643.769 159.895 640.967 162.375 637.247C165.026 633.369 166.342 628.755 166.342 623.426C166.342 618.235 165.128 613.724 162.68 609.914C160.232 606.105 156.701 603.191 152.11 601.165C147.587 599.139 142.272 598.135 136.179 598.135L107.512 598.135L107.012 598.135L107.012 598.635L107.012 668.33L107.012 668.83L107.512 668.83L120.452 668.83L120.952 668.83L120.952 668.33L120.952 648.519L136.179 648.519C137.2 648.519 138.017 648.495 138.624 648.445L152.691 668.616ZM169.889 609.587L169.889 610.087L170.389 610.087L192.983 610.087L192.983 668.33L192.983 668.83L193.483 668.83L206.423 668.83L206.923 668.83L206.923 668.33L206.923 610.087L229.516 610.087L230.016 610.087L230.016 609.587L230.016 598.635L230.016 598.135L229.516 598.135L170.389 598.135L169.889 598.135L169.889 598.635L169.889 609.587ZM251.354 665.184L251.358 665.186C257.144 668.282 263.631 669.825 270.805 669.825C277.98 669.825 284.466 668.282 290.252 665.186L290.256 665.184C296.039 662.023 300.585 657.68 303.884 652.158C307.185 646.632 308.832 640.402 308.832 633.482C308.832 626.563 307.185 620.333 303.884 614.806C300.585 609.285 296.039 604.974 290.255 601.879C284.468 598.716 277.981 597.139 270.805 597.139C263.63 597.139 257.143 598.716 251.356 601.879C245.571 604.974 241.025 609.319 237.726 614.907C234.425 620.432 232.779 626.628 232.779 633.482C232.779 640.337 234.426 646.565 237.725 652.156L237.727 652.158C241.025 657.68 245.571 662.023 251.354 665.184ZM291.671 621.182L291.673 621.185C293.749 624.82 294.792 628.915 294.792 633.482C294.792 638.048 293.75 642.177 291.672 645.88C289.594 649.518 286.739 652.373 283.103 654.453C279.468 656.465 275.373 657.475 270.805 657.475C266.238 657.475 262.143 656.465 258.509 654.453C254.872 652.374 252.018 649.519 249.939 645.881C247.861 642.178 246.818 638.049 246.818 633.482C246.818 628.915 247.861 624.82 249.938 621.185L249.94 621.182C252.019 617.478 254.872 614.625 258.505 612.613L258.511 612.61C262.145 610.532 266.239 609.489 270.805 609.489C275.371 609.489 279.465 610.532 283.099 612.61L283.105 612.613C286.738 614.625 289.592 617.478 291.671 621.182ZM363.011 668.62L363.161 668.83L363.418 668.83L378.349 668.83L379.33 668.83L378.754 668.036L352.788 632.287L376.962 598.928L377.537 598.135L376.557 598.135L362.522 598.135L362.264 598.135L362.115 598.345L344.901 622.566L327.492 598.343L327.342 598.135L327.086 598.135L312.453 598.135L311.48 598.135L312.047 598.926L336.323 632.783L310.656 668.035L310.077 668.83L311.06 668.83L325.792 668.83L326.051 668.83L326.2 668.618L344.508 642.709L363.011 668.62ZM148.106 613.558C150.889 615.835 152.303 619.099 152.303 623.426C152.303 627.752 150.889 631.052 148.103 633.396C145.308 635.683 141.16 636.865 135.582 636.865L120.952 636.865L120.952 610.087L135.582 610.087C141.162 610.087 145.311 611.27 148.106 613.558Z" stroke="#009B97" stroke-opacity="0.15"/>
<path d="M299.753 619.908C297.456 615.815 294.298 612.655 290.278 610.429C286.258 608.13 281.736 606.981 276.711 606.981C271.686 606.981 267.164 608.13 263.144 610.429L299.753 619.908ZM299.753 619.908C302.05 623.93 303.199 628.455 303.199 633.482C303.199 638.509 302.05 643.069 299.753 647.163L299.753 619.908ZM8.90003 653.665L8.90139 653.667C12.4656 659.635 17.3772 664.329 23.6266 667.746L23.6305 667.748C29.8832 671.095 36.8925 672.763 44.6473 672.763C52.4021 672.763 59.4113 671.095 65.664 667.748L65.6679 667.746C71.9173 664.329 76.8289 659.635 80.3931 653.667C83.9603 647.695 85.7398 640.962 85.7398 633.482C85.7398 626.002 83.9603 619.269 80.3931 613.296C76.8286 607.328 71.9164 602.669 65.6659 599.324C59.413 595.905 52.403 594.201 44.6472 594.201C36.8915 594.201 29.8814 595.905 23.6285 599.324C17.3768 602.67 12.4647 607.366 8.90067 613.405C5.33439 619.377 3.55469 626.073 3.55469 633.482C3.5547 640.891 5.33462 647.623 8.90003 653.665ZM67.2531 620.153L67.255 620.156C69.5052 624.096 70.6347 628.534 70.6347 633.482C70.6347 638.429 69.5056 642.903 67.2542 646.916C65.0021 650.859 61.9091 653.954 57.9687 656.207C54.0306 658.387 49.5941 659.482 44.6473 659.482C39.7004 659.482 35.2638 658.387 31.3257 656.207C27.3855 653.954 24.2926 650.859 22.0405 646.917C19.789 642.904 18.6598 638.429 18.6598 633.482C18.6598 628.534 19.7893 624.096 22.0395 620.156L22.0414 620.153C24.294 616.139 27.386 613.046 31.3228 610.866L31.3228 610.866L31.3287 610.863C35.2665 608.611 39.7019 607.481 44.6472 607.481C49.5926 607.481 54.028 608.611 57.9658 610.863L57.9658 610.863L57.9717 610.866C61.9085 613.046 65.0005 616.139 67.2531 620.153ZM148.981 671.472L149.13 671.686L149.391 671.686L164.465 671.686L165.425 671.686L164.875 670.899L147.901 646.639C152.864 644.596 156.701 641.563 159.388 637.533C162.251 633.345 163.673 628.36 163.673 622.602C163.673 616.991 162.361 612.118 159.717 608.004C157.074 603.891 153.261 600.742 148.302 598.553C143.415 596.364 137.672 595.278 131.086 595.278L100.077 595.278L99.5767 595.278L99.5767 595.778L99.5767 671.186L99.5767 671.686L100.077 671.686L114.074 671.686L114.574 671.686L114.574 671.186L114.574 649.71L131.086 649.71C132.203 649.71 133.094 649.683 133.751 649.628L148.981 671.472ZM167.591 607.628L167.591 608.128L168.091 608.128L192.571 608.128L192.571 671.186L192.571 671.686L193.071 671.686L207.069 671.686L207.569 671.686L207.569 671.186L207.569 608.128L232.049 608.128L232.549 608.128L232.549 607.628L232.549 595.778L232.549 595.278L232.049 595.278L168.091 595.278L167.591 595.278L167.591 595.778L167.591 607.628ZM255.69 667.746L255.694 667.748C261.947 671.094 268.956 672.763 276.711 672.763C284.466 672.763 291.475 671.094 297.728 667.748L297.732 667.746C303.981 664.329 308.893 659.635 312.457 653.667C316.024 647.695 317.804 640.962 317.804 633.482C317.804 626.002 316.024 619.269 312.457 613.296C308.892 607.328 303.98 602.669 297.729 599.323C291.476 595.905 284.466 594.201 276.711 594.201C268.955 594.201 261.945 595.905 255.693 599.324C249.441 602.67 244.529 607.366 240.964 613.405C237.398 619.377 235.619 626.073 235.619 633.482C235.619 640.891 237.398 647.623 240.964 653.665L240.965 653.667C244.529 659.635 249.441 664.329 255.69 667.746ZM299.317 620.153L299.319 620.156C301.569 624.096 302.699 628.534 302.699 633.482C302.699 638.429 301.569 642.903 299.318 646.916C297.066 650.859 293.973 653.953 290.033 656.207C286.095 658.387 281.658 659.482 276.711 659.482C271.764 659.482 267.328 658.387 263.39 656.207C259.449 653.954 256.356 650.859 254.104 646.916C251.853 642.903 250.724 638.429 250.724 633.482C250.724 628.534 251.853 624.096 254.103 620.156L254.105 620.153C256.358 616.139 259.45 613.046 263.387 610.866L263.392 610.863C267.33 608.611 271.766 607.481 276.711 607.481C281.656 607.481 286.092 608.611 290.03 610.863L290.036 610.866C293.972 613.046 297.064 616.139 299.317 620.153ZM376.483 671.476L376.633 671.686L376.89 671.686L393.041 671.686L394.022 671.686L393.446 670.892L365.341 632.189L391.508 596.071L392.083 595.278L391.103 595.278L375.921 595.278L375.663 595.278L375.514 595.488L356.861 621.741L337.996 595.486L337.846 595.278L337.59 595.278L321.762 595.278L320.788 595.278L321.356 596.069L347.633 632.725L319.85 670.891L319.272 671.686L320.255 671.686L336.19 671.686L336.449 671.686L336.598 671.474L356.435 643.394L376.483 671.476ZM144.013 611.893C147.035 614.366 148.568 617.91 148.568 622.602C148.568 627.292 147.035 630.875 144.011 633.42C140.976 635.903 136.479 637.183 130.44 637.183L114.574 637.183L114.574 608.128L130.44 608.128C136.481 608.128 140.979 609.409 144.013 611.893Z" stroke="#009B97" stroke-opacity="0.15"/>
<path d="M-13.9683 656.081L-13.9669 656.083C-9.97763 662.764 -4.48057 668.02 2.51482 671.846L2.51879 671.849C9.51748 675.595 17.3638 677.464 26.0469 677.464C34.7299 677.464 42.5762 675.595 49.5749 671.849L49.5789 671.846C56.5743 668.02 62.0713 662.764 66.0606 656.083C70.0529 649.397 72.0449 641.859 72.0449 633.482C72.0449 625.105 70.0529 617.567 66.0606 610.881C62.0711 604.199 56.5735 598.983 49.5769 595.237C42.578 591.409 34.7309 589.5 26.0468 589.5C17.3629 589.5 9.51573 591.409 2.51682 595.237C-4.48091 598.983 -9.9786 604.241 -13.9676 611.003C-17.959 617.688 -19.9512 625.185 -19.9512 633.482C-19.9512 641.779 -17.9587 649.316 -13.9683 656.081ZM51.4372 618.508L51.4391 618.511C53.9669 622.938 55.2352 627.925 55.2352 633.482C55.2352 639.038 53.9673 644.066 51.4382 648.575C48.9085 653.005 45.4338 656.483 41.0077 659.015C36.5839 661.465 31.6008 662.694 26.0468 662.694C20.4929 662.694 15.5098 661.465 11.086 659.015C6.65988 656.483 3.18525 653.005 0.655518 648.575C-1.87357 644.066 -3.14151 639.038 -3.14151 633.482C-3.14151 627.925 -1.87325 622.938 0.654607 618.511L0.656463 618.508C3.18666 613.997 6.66045 610.522 11.0829 608.072L11.0829 608.072L11.0888 608.068C15.5124 605.539 20.4943 604.269 26.0468 604.269C31.5993 604.269 36.5812 605.539 41.0049 608.068L41.0048 608.068L41.0108 608.072C45.4332 610.522 48.907 613.997 51.4372 618.508ZM143.038 676.042L143.187 676.256L143.448 676.256L160.344 676.256L161.304 676.256L160.754 675.469L141.685 648.206C147.273 645.919 151.588 642.515 154.604 637.989C157.805 633.305 159.396 627.728 159.396 621.283C159.396 615.002 157.928 609.55 154.972 604.948C152.017 600.348 147.753 596.825 142.204 594.375C136.735 591.924 130.307 590.708 122.932 590.708L88.1748 590.708L87.6748 590.708L87.6748 591.208L87.6748 675.756L87.6748 676.256L88.1748 676.256L103.864 676.256L104.364 676.256L104.364 675.756L104.364 651.616L122.932 651.616C124.203 651.616 125.211 651.585 125.948 651.522L143.038 676.042ZM163.909 604.494L163.909 604.994L164.409 604.994L191.907 604.994L191.907 675.756L191.907 676.256L192.407 676.256L208.096 676.256L208.596 676.256L208.596 675.756L208.596 604.994L236.095 604.994L236.595 604.994L236.595 604.494L236.595 591.208L236.595 590.708L236.095 590.708L164.409 590.708L163.909 590.708L163.909 591.208L163.909 604.494ZM262.623 671.846L262.627 671.849C269.625 675.595 277.472 677.464 286.155 677.464C294.838 677.464 302.684 675.595 309.683 671.849L309.687 671.846C316.682 668.02 322.179 662.764 326.168 656.083C330.161 649.397 332.153 641.859 332.153 633.482C332.153 625.105 330.161 617.567 326.168 610.881C322.179 604.199 316.682 598.983 309.685 595.237C302.686 591.409 294.839 589.5 286.155 589.5C277.47 589.5 269.623 591.409 262.624 595.237C255.626 598.984 250.129 604.241 246.14 611.004C242.149 617.689 240.157 625.186 240.157 633.482C240.157 641.779 242.149 649.316 246.14 656.081L246.141 656.083C250.13 662.764 255.627 668.02 262.623 671.846ZM311.545 618.508L311.547 618.511C314.075 622.938 315.343 627.925 315.343 633.482C315.343 639.038 314.075 644.065 311.546 648.574C309.017 653.004 305.542 656.482 301.116 659.014C296.692 661.465 291.709 662.694 286.155 662.694C280.601 662.694 275.618 661.465 271.194 659.015C266.768 656.483 263.293 653.005 260.763 648.574C258.234 644.065 256.966 639.038 256.966 633.482C256.966 627.925 258.235 622.938 260.762 618.511L260.764 618.508C263.294 613.997 266.768 610.522 271.191 608.072L271.197 608.068C275.62 605.538 280.602 604.269 286.155 604.269C291.707 604.269 296.689 605.538 301.113 608.068L301.119 608.072C305.541 610.522 309.015 613.997 311.545 618.508ZM398.033 676.046L398.183 676.256L398.44 676.256L416.543 676.256L417.524 676.256L416.947 675.462L385.42 632.032L414.775 591.501L415.35 590.708L414.371 590.708L397.354 590.708L397.096 590.708L396.946 590.918L375.991 620.422L354.796 590.916L354.647 590.708L354.39 590.708L336.65 590.708L335.676 590.708L336.243 591.499L365.721 632.634L334.556 675.462L333.978 676.256L334.96 676.256L352.821 676.256L353.081 676.256L353.23 676.044L375.512 644.491L398.033 676.046ZM137.459 609.229C140.862 612.015 142.586 616.008 142.586 621.283C142.586 626.556 140.863 630.592 137.456 633.46C134.041 636.255 128.984 637.692 122.208 637.692L104.364 637.692L104.364 604.994L122.208 604.994C128.986 604.994 134.043 606.432 137.459 609.229Z" stroke="#009B97" stroke-opacity="0.15"/>
<path d="M-58.3598 46.1559L-58.3584 46.1582C-55.0598 51.6796 -50.5142 56.023 -44.7311 59.1843L-44.7271 59.1864C-38.9407 62.2822 -32.4546 63.8255 -25.28 63.8255C-18.1053 63.8255 -11.6192 62.2822 -5.83283 59.1864L-5.82888 59.1843C-0.0457651 56.023 4.49984 51.6796 7.79845 46.1582C11.1 40.6317 12.7467 34.402 12.7467 27.4823C12.7467 20.5626 11.1 14.3329 7.79844 8.80648C4.49964 3.28471 -0.0465609 -1.026 -5.83079 -4.12109C-11.6174 -7.2839 -18.1043 -8.86085 -25.28 -8.86085C-32.4557 -8.86085 -38.9425 -7.2839 -44.7291 -4.12111C-50.5145 -1.02541 -55.0607 3.31924 -58.359 8.90711C-61.6597 14.4325 -63.3066 20.6285 -63.3066 27.4823C-63.3066 34.3367 -61.6595 40.5651 -58.3598 46.1559ZM-4.41441 15.1819L-4.41252 15.1852C-2.33579 18.8204 -1.29309 22.9153 -1.29308 27.4823C-1.29308 32.0486 -2.33548 36.1777 -4.4135 39.8807C-6.49214 43.5185 -9.34652 46.3737 -12.9833 48.453C-16.6177 50.4647 -20.7127 51.4752 -25.28 51.4752C-29.8473 51.4752 -33.9422 50.4647 -37.5767 48.453C-41.2135 46.3737 -44.0678 43.5185 -46.1465 39.8807C-48.2245 36.1777 -49.2669 32.0486 -49.2669 27.4823C-49.2669 22.9153 -48.2242 18.8204 -46.1474 15.1853L-46.1456 15.1819C-44.0665 11.4777 -41.213 8.62465 -37.5798 6.61298L-37.5798 6.61302L-37.5739 6.60965C-33.9397 4.53244 -29.8458 3.48949 -25.28 3.48949C-20.7142 3.48949 -16.6203 4.53243 -12.986 6.60965L-12.9861 6.60969L-12.9801 6.61297C-9.34701 8.62464 -6.49348 11.4776 -4.41441 15.1819ZM71.1423 62.6158L71.2916 62.8298L71.5524 62.8298L85.4881 62.8298L86.4483 62.8298L85.8977 62.0431L70.233 39.6595C74.8065 37.7687 78.3457 34.9669 80.8259 31.2468C83.4776 27.3692 84.7936 22.7547 84.7936 17.4263C84.7936 12.2348 83.5793 7.72364 81.1308 3.91391C78.683 0.105397 75.1521 -2.80894 70.5614 -4.835C66.0378 -6.86085 60.723 -7.86522 54.6306 -7.86522L25.963 -7.86521L25.463 -7.86521L25.463 -7.36521L25.463 62.3298L25.463 62.8298L25.963 62.8298L38.9032 62.8298L39.4032 62.8298L39.4032 62.3298L39.4032 42.5187L54.6306 42.5187C55.6511 42.5187 56.4685 42.4947 57.0751 42.4447L71.1423 62.6158ZM88.3405 3.58686L88.3405 4.08686L88.8405 4.08686L111.434 4.08685L111.434 62.3298L111.434 62.8298L111.934 62.8298L124.874 62.8298L125.374 62.8298L125.374 62.3298L125.374 4.08685L147.967 4.08685L148.467 4.08685L148.467 3.58685L148.467 -7.36523L148.467 -7.86523L147.967 -7.86523L88.8405 -7.86522L88.3405 -7.86522L88.3405 -7.36522L88.3405 3.58686ZM169.805 59.1843L169.809 59.1864C175.596 62.2822 182.082 63.8255 189.256 63.8255C196.431 63.8255 202.917 62.2822 208.704 59.1864L208.707 59.1842C214.491 56.0229 219.036 51.6796 222.335 46.1581C225.636 40.6317 227.283 34.402 227.283 27.4823C227.283 20.5626 225.636 14.3329 222.335 8.80644C219.036 3.28478 214.49 -1.02583 208.706 -4.1209C202.919 -7.28386 196.432 -8.86089 189.256 -8.86088C182.081 -8.86088 175.594 -7.28399 169.808 -4.12129C164.022 -1.0256 159.476 3.31908 156.177 8.90701C152.877 14.4324 151.23 20.6284 151.23 27.4823C151.23 34.3366 152.877 40.5651 156.177 46.1558L156.178 46.1581C159.477 51.6796 164.022 56.0229 169.805 59.1843ZM210.122 15.1819L210.124 15.1852C212.201 18.8204 213.243 22.9153 213.243 27.4823C213.243 32.0482 212.201 36.1772 210.123 39.88C208.045 43.5179 205.19 46.3733 201.554 48.4526C197.919 50.4645 193.824 51.4751 189.256 51.4751C184.689 51.4751 180.594 50.4647 176.96 48.4531C173.323 46.374 170.469 43.519 168.39 39.8814C166.312 36.1782 165.269 32.0488 165.269 27.4823C165.269 22.9153 166.312 18.8204 168.389 15.1852L168.391 15.1819C170.47 11.4776 173.323 8.62461 176.957 6.61298L176.962 6.60961C180.597 4.5324 184.691 3.48946 189.256 3.48946C193.822 3.48946 197.916 4.5324 201.55 6.60965L201.556 6.61293C205.189 8.6246 208.043 11.4776 210.122 15.1819ZM281.462 62.6204L281.612 62.8298L281.869 62.8298L296.8 62.8298L297.781 62.8298L297.205 62.036L271.239 26.2872L295.413 -7.07186L295.988 -7.86526L295.009 -7.86526L280.973 -7.86526L280.715 -7.86526L280.566 -7.6549L263.352 16.5664L245.943 -7.65706L245.793 -7.86525L245.537 -7.86525L230.905 -7.86525L229.931 -7.86525L230.498 -7.07389L254.775 26.7831L229.107 62.0355L228.529 62.8298L229.511 62.8298L244.243 62.8298L244.502 62.8298L244.651 62.6183L262.959 36.7091L281.462 62.6204ZM66.5574 7.55812C69.3399 9.8353 70.7538 13.0992 70.7538 17.4263C70.7538 21.7519 69.3406 25.0518 66.5546 27.3964C63.7589 29.6828 59.6116 30.8653 54.0333 30.8653L39.4032 30.8653L39.4032 4.08687L54.0333 4.08686C59.6135 4.08686 63.7617 5.27023 66.5574 7.55812Z" stroke="#009B97" stroke-opacity="0.15"/>
<path d="M218.202 13.9079C215.905 9.81432 212.747 6.65437 208.727 4.42805C204.707 2.12991 200.185 0.980842 195.16 0.980843C190.136 0.980843 185.613 2.12991 181.594 4.42806L218.202 13.9079ZM218.202 13.9079C220.499 17.9296 221.648 22.4541 221.648 27.4813C221.648 32.5085 220.499 37.0688 218.202 41.1624L218.202 13.9079ZM-72.6508 47.6646L-72.6494 47.6669C-69.0851 53.6345 -64.1736 58.3288 -57.9242 61.7458L-57.9202 61.7479C-51.6676 65.094 -44.6583 66.7625 -36.9035 66.7625C-29.1487 66.7625 -22.1395 65.094 -15.8868 61.748L-15.8828 61.7458C-9.63346 58.3288 -4.72192 53.6345 -1.15767 47.6669C2.40956 41.6943 4.18903 34.9614 4.18903 27.4813C4.18902 20.0012 2.40955 13.2683 -1.15767 7.29574C-4.72214 1.32778 -9.63435 -3.33118 -15.8849 -6.67656C-22.1378 -10.095 -29.1478 -11.7998 -36.9035 -11.7998C-44.6593 -11.7998 -51.6693 -10.095 -57.9222 -6.6765C-64.1739 -3.33049 -69.0861 1.36515 -72.6501 7.40467C-76.2164 13.3762 -77.9961 20.0726 -77.9961 27.4813C-77.9961 34.8906 -76.2162 41.6223 -72.6508 47.6646ZM-14.2977 14.1526L-14.2958 14.1559C-12.0455 18.0957 -10.9161 22.5335 -10.9161 27.4813C-10.9161 32.4283 -12.0452 36.9028 -14.2966 40.9159C-16.5487 44.8585 -19.6416 47.9531 -23.5821 50.2066C-27.5201 52.3869 -31.9567 53.4818 -36.9035 53.4818C-41.8504 53.4818 -46.287 52.3869 -50.2251 50.2065C-54.1653 47.9532 -57.2582 44.8587 -59.5103 40.9162C-61.7618 36.9031 -62.891 32.4285 -62.891 27.4813C-62.891 22.5335 -61.7615 18.0957 -59.5113 14.1559L-59.5094 14.1526C-57.2568 10.1382 -54.1647 7.04581 -50.228 4.86549L-50.228 4.86553L-50.2221 4.86217C-46.2843 2.61087 -41.8488 1.48088 -36.9035 1.48088C-31.9582 1.48088 -27.5228 2.61086 -23.585 4.86216L-23.585 4.8622L-23.579 4.86549C-19.6423 7.0458 -16.5502 10.1382 -14.2977 14.1526ZM67.4299 65.4712L67.5791 65.6852L67.84 65.6852L82.9142 65.6852L83.8742 65.6852L83.3239 64.8985L66.35 40.6383C71.3133 38.595 75.1506 35.5621 77.8368 31.5321C80.7002 27.3442 82.1221 22.3595 82.1221 16.601C82.1221 10.9907 80.8102 6.11768 78.1665 2.00328C75.5236 -2.1099 71.7107 -5.25824 66.7514 -7.44754C61.8645 -9.6366 56.1214 -10.7226 49.5357 -10.7226L18.526 -10.7226L18.026 -10.7226L18.026 -10.2226L18.026 65.1852L18.026 65.6852L18.526 65.6852L32.5234 65.6852L33.0234 65.6852L33.0234 65.1852L33.0234 43.7092L49.5357 43.7092C50.6526 43.7092 51.5433 43.6826 52.1999 43.6273L67.4299 65.4712ZM86.0405 1.62721L86.0405 2.12721L86.5405 2.12721L111.021 2.12721L111.021 65.1852L111.021 65.6852L111.521 65.6852L125.518 65.6852L126.018 65.6852L126.018 65.1852L126.018 2.1272L150.498 2.1272L150.998 2.1272L150.998 1.6272L150.998 -10.2226L150.998 -10.7226L150.498 -10.7226L86.5405 -10.7226L86.0405 -10.7226L86.0405 -10.2226L86.0405 1.62721ZM174.14 61.7458L174.144 61.7479C180.396 65.094 187.406 66.7624 195.16 66.7624C202.915 66.7624 209.924 65.094 216.177 61.7479L216.181 61.7458C222.43 58.3287 227.342 53.6345 230.906 47.6669C234.473 41.6943 236.253 34.9614 236.253 27.4813C236.253 20.0012 234.473 13.2683 230.906 7.2957C227.341 1.32743 222.429 -3.33165 216.178 -6.67707C209.925 -10.0952 202.916 -11.7999 195.16 -11.7999C187.405 -11.7999 180.395 -10.0951 174.142 -6.67669C167.89 -3.33067 162.978 1.36502 159.414 7.40463C155.847 13.3761 154.068 20.0725 154.068 27.4813C154.068 34.8906 155.848 41.6223 159.413 47.6646L159.414 47.6669C162.979 53.6345 167.89 58.3287 174.14 61.7458ZM217.766 14.1526L217.768 14.1559C220.018 18.0957 221.148 22.5334 221.148 27.4813C221.148 32.4281 220.019 36.9026 217.767 40.9155C215.515 44.858 212.423 47.9527 208.482 50.2061C204.544 52.3868 200.107 53.4817 195.16 53.4817C190.214 53.4817 185.777 52.3869 181.839 50.2066C177.898 47.9531 174.805 44.8583 172.553 40.9154C170.302 36.9025 169.173 32.4281 169.173 27.4813C169.173 22.5334 170.302 18.0957 172.553 14.1559L172.554 14.1526C174.807 10.1382 177.899 7.04577 181.836 4.86549L181.842 4.86213C185.78 2.61083 190.215 1.48084 195.16 1.48084C200.106 1.48084 204.541 2.61082 208.479 4.86216L208.485 4.86545C212.421 7.04576 215.514 10.1381 217.766 14.1526ZM294.933 65.4757L295.082 65.6851L295.34 65.6851L311.49 65.6851L312.471 65.6851L311.895 64.8914L283.79 26.1882L309.957 -9.92927L310.532 -10.7226L309.552 -10.7226L294.37 -10.7226L294.112 -10.7226L293.963 -10.5122L275.31 15.741L256.445 -10.5144L256.295 -10.7226L256.039 -10.7226L240.211 -10.7226L239.238 -10.7226L239.805 -9.9313L266.082 26.7249L238.3 64.8909L237.721 65.6852L238.704 65.6852L254.639 65.6852L254.898 65.6852L255.048 65.4736L274.884 37.3937L294.933 65.4757ZM62.4627 5.89223C65.4838 8.36526 67.017 11.9094 67.017 16.601C67.017 21.2912 65.4845 24.874 62.4598 27.4199C59.4257 29.9021 54.9287 31.1826 48.8896 31.1826L33.0234 31.1826L33.0234 2.12722L48.8896 2.12722C54.9306 2.12722 59.4285 3.4085 62.4627 5.89223Z" stroke="#009B97" stroke-opacity="0.15"/>
<path d="M-95.5171 50.0808L-95.5158 50.0831C-91.5265 56.7645 -86.0294 62.0202 -79.034 65.8464L-79.03 65.8486C-72.0313 69.5951 -64.185 71.4638 -55.502 71.4638C-46.819 71.4638 -38.9726 69.5951 -31.9739 65.8486L-31.97 65.8464C-24.9746 62.0202 -19.4775 56.7645 -15.4882 50.083C-11.496 43.3967 -9.50397 35.8585 -9.50397 27.4819C-9.50398 19.1052 -11.496 11.5671 -15.4882 4.88069C-19.4777 -1.80103 -24.9754 -7.0171 -31.9719 -10.7629C-38.9708 -14.5906 -46.818 -16.5 -55.502 -16.5C-64.186 -16.5 -72.0331 -14.5906 -79.032 -10.763C-86.0297 -7.0165 -91.5274 -1.75936 -95.5165 5.00267C-99.5078 11.688 -101.5 19.1852 -101.5 27.4819C-101.5 35.779 -99.5076 43.3159 -95.5171 50.0808ZM-30.1116 12.5078L-30.1097 12.5111C-27.5819 16.9385 -26.3136 21.9246 -26.3136 27.4819C-26.3136 33.0383 -27.5816 38.0657 -30.1106 42.575C-32.6404 47.005 -36.115 50.4826 -40.5411 53.0146C-44.965 55.4648 -49.948 56.6945 -55.502 56.6945C-61.056 56.6945 -66.039 55.4648 -70.4628 53.0146C-74.889 50.4827 -78.3636 47.005 -80.8933 42.575C-83.4224 38.0657 -84.6903 33.0383 -84.6903 27.4819C-84.6903 21.9246 -83.4221 16.9385 -80.8942 12.5111L-80.8924 12.5078C-78.3622 7.99722 -74.8884 4.52183 -70.4659 2.07168L-70.4659 2.07172L-70.46 2.06835C-66.0364 -0.461491 -61.0545 -1.73074 -55.502 -1.73074C-49.9495 -1.73074 -44.9676 -0.461495 -40.544 2.06834L-40.544 2.06838L-40.5381 2.07167C-36.1156 4.52182 -32.6418 7.99722 -30.1116 12.5078ZM61.4892 70.0418L61.6385 70.2559L61.8994 70.2559L78.7952 70.2559L79.7551 70.2559L79.2049 69.4693L60.1364 42.2062C65.7243 39.9189 70.0389 36.5155 73.055 31.9887C76.2562 27.3048 77.847 21.7284 77.847 15.2828C77.847 9.00213 76.379 3.55028 73.4231 -1.0516C70.4679 -5.65226 66.204 -9.1749 60.6548 -11.6254C55.1867 -14.0756 48.7583 -15.2922 41.3831 -15.2922L6.62595 -15.2922L6.12595 -15.2922L6.12595 -14.7922L6.12596 69.7559L6.12596 70.2559L6.62596 70.2559L22.3149 70.2559L22.8149 70.2559L22.8149 69.7559L22.8149 45.6162L41.3831 45.6162C42.6545 45.6162 43.6625 45.5854 44.3988 45.5216L61.4892 70.0418ZM82.3598 -1.50607L82.3598 -1.00607L82.8598 -1.00607L110.359 -1.00608L110.359 69.7559L110.359 70.2559L110.859 70.2559L126.548 70.2559L127.048 70.2559L127.048 69.7559L127.048 -1.00608L154.546 -1.00609L155.046 -1.00609L155.046 -1.50609L155.046 -14.7922L155.046 -15.2922L154.546 -15.2922L82.8598 -15.2922L82.3598 -15.2922L82.3598 -14.7922L82.3598 -1.50607ZM181.074 65.8464L181.078 65.8485C188.076 69.595 195.923 71.4637 204.606 71.4637C213.289 71.4637 221.135 69.595 228.134 65.8485L228.138 65.8464C235.133 62.0202 240.63 56.7644 244.62 50.083C248.612 43.3966 250.604 35.8585 250.604 27.4818C250.604 19.1051 248.612 11.567 244.62 4.88064C240.63 -1.80097 235.133 -7.01694 228.136 -10.7627C221.137 -14.5906 213.29 -16.5001 204.606 -16.5001C195.922 -16.5001 188.074 -14.5906 181.075 -10.7628C174.077 -7.01614 168.58 -1.75871 164.591 5.00372C160.6 11.6887 158.608 19.1857 158.608 27.4818C158.608 35.779 160.6 43.3159 164.591 50.0807L164.592 50.083C168.581 56.7644 174.078 62.0202 181.074 65.8464ZM229.996 12.5078L229.998 12.5111C232.526 16.9384 233.794 21.9246 233.794 27.4818C233.794 33.038 232.526 38.0652 229.998 42.5743C227.468 47.0044 223.993 50.4821 219.567 53.0141C215.143 55.4646 210.16 56.6944 204.606 56.6944C199.052 56.6944 194.069 55.4647 189.645 53.0146C185.219 50.4826 181.744 47.0046 179.214 42.5742C176.685 38.0651 175.417 33.038 175.417 27.4818C175.417 21.9246 176.686 16.9384 179.214 12.5111L179.215 12.5078C181.746 7.99718 185.219 4.52179 189.642 2.07167L189.648 2.0683C194.071 -0.461537 199.053 -1.73079 204.606 -1.73079C210.158 -1.73079 215.14 -0.46154 219.564 2.06834L219.57 2.07163C223.992 4.52178 227.466 7.99717 229.996 12.5078ZM316.484 70.0463L316.634 70.2559L316.891 70.2559L334.994 70.2559L335.975 70.2559L335.399 69.4621L303.872 26.0321L333.227 -14.499L333.801 -15.2922L332.822 -15.2922L315.805 -15.2922L315.547 -15.2922L315.398 -15.0818L294.442 14.4225L273.248 -15.0839L273.098 -15.2922L272.842 -15.2922L255.101 -15.2922L254.127 -15.2922L254.694 -14.501L284.173 26.6341L253.007 69.4617L252.429 70.2559L253.411 70.2559L271.273 70.2559L271.532 70.2559L271.681 70.0443L293.963 38.4913L316.484 70.0463ZM55.9105 3.22897C59.3133 6.01537 61.0374 10.0078 61.0374 15.2828C61.0374 20.5563 59.314 24.5918 55.9075 27.4598C52.4917 30.2552 47.4353 31.6924 40.6589 31.6924L22.8149 31.6924L22.8149 -1.00606L40.6589 -1.00607C47.4372 -1.00607 52.4946 0.4319 55.9105 3.22897Z" stroke="#009B97" stroke-opacity="0.15"/>
</svg>
