<svg width="1196" height="1268" fill="none" xmlns="http://www.w3.org/2000/svg"><mask id="mask0_413_785" style="mask-type:alpha" maskUnits="userSpaceOnUse" x="0" y="0" width="1196" height="1268"><rect width="1196" height="1268" rx="20" fill="#F0F9F9"/></mask><g mask="url(#mask0_413_785)" stroke="#009B97" stroke-opacity=".15"><path d="M311.704 1184.97h.002c10.852 18.17 25.805 32.46 44.846 42.86l.004.01c19.045 10.19 40.409 15.28 64.079 15.28 23.671 0 45.035-5.09 64.08-15.28l.004-.01c19.041-10.41 33.993-24.69 44.846-42.86 10.856-18.17 16.28-38.67 16.28-61.47 0-22.8-5.424-43.3-16.28-61.47-10.853-18.16-25.806-32.34-44.849-42.53-19.045-10.41-40.409-15.61-64.081-15.61-23.671 0-45.036 5.2-64.081 15.61-19.044 10.19-33.996 24.48-44.849 42.86-10.855 18.17-16.279 38.56-16.279 61.14s5.424 43.08 16.278 61.47zm179.285-102.91h.002c7.01 12.27 10.52 26.08 10.52 41.44s-3.509 29.28-10.521 41.78c-7.012 12.27-16.65 21.91-28.919 28.92-12.268 6.8-26.076 10.2-41.436 10.2-15.359 0-29.167-3.4-41.435-10.2-12.27-7.01-21.908-16.65-28.92-28.93-7.011-12.49-10.52-26.41-10.52-41.77 0-15.36 3.509-29.17 10.519-41.44h.002c7.013-12.5 16.65-22.14 28.916-28.93h.006c12.268-7.01 26.075-10.52 41.432-10.52 15.358 0 29.165 3.51 41.432 10.52h.006c12.267 6.79 21.904 16.43 28.916 28.93zm251.032 157.53l.15.22h47.532l-.551-.79-52.894-75.58c15.67-6.21 27.689-15.57 36.028-28.08 8.665-12.67 12.987-27.77 12.987-45.28 0-17.06-3.989-31.83-11.988-44.27-7.998-12.45-19.546-21.99-34.621-28.65-14.853-6.65-32.346-9.97-52.468-9.97h-95.769v232.62h44.004v-67.5h51.765c3.784 0 6.684-.1 8.691-.3l47.134 67.58zm57.363-195.5v.5h76.744v195.22h44.003v-195.22h76.745v-37.4H799.384v36.9zm225.276 140.88h0c10.85 18.17 25.8 32.45 44.85 42.86v.01c19.04 10.19 40.41 15.28 64.08 15.28s45.03-5.09 64.08-15.28v-.01c19.04-10.41 34-24.69 44.85-42.86 10.85-18.17 16.28-38.67 16.28-61.47 0-22.8-5.43-43.3-16.28-61.47-10.86-18.17-25.81-32.35-44.85-42.53-19.05-10.41-40.41-15.61-64.08-15.61s-45.04 5.2-64.08 15.61c-19.05 10.18-34 24.48-44.85 42.86-10.86 18.17-16.28 38.56-16.28 61.14s5.42 43.08 16.28 61.47zm179.28-102.92v.01c7.01 12.27 10.52 26.08 10.52 41.44s-3.51 29.28-10.52 41.78c-7.01 12.27-16.65 21.91-28.92 28.92-12.26 6.79-26.07 10.2-41.43 10.2s-29.17-3.41-41.44-10.2c-12.27-7.01-21.9-16.65-28.92-28.92-7.01-12.5-10.52-26.42-10.52-41.78s3.51-29.17 10.52-41.44v-.01c7.02-12.49 16.65-22.13 28.92-28.92h.01c12.26-7.01 26.07-10.52 41.43-10.52s29.16 3.51 41.43 10.52h.01c12.26 6.79 21.9 16.43 28.91 28.92zm237.01 157.55l.15.21h50.86l-.57-.8-86.79-119.48 80.83-111.54.58-.8h-47.88l-.15.21-58.15 81.82-58.8-81.82-.15-.21h-49.86l.57.8 81.16 113.19-85.79 117.83-.58.8h50.2l.15-.21 61.78-87.44 62.44 87.44zm-714.383-183.21c9.566 7.83 14.372 19.03 14.372 33.69 0 14.66-4.805 25.98-14.375 34.03-9.579 7.84-23.67 11.79-42.352 11.79h-49.781v-91.31h49.781c18.684 0 32.776 3.96 42.355 11.8z"/><path d="M726.001 1008.48c-16.06-7.19-34.977-10.778-56.738-10.778H565.71v.5l.001 250.598v.5h47.516v-73.03h56.036c4.107 0 7.25-.11 9.42-.33l50.999 73.14.149.22-4.033-240.36m.203-.46l.002.01-.205.45m.203-.46H726l-.202.46m.203-.46c16.3 7.2 28.785 17.52 37.431 30.98 8.648 13.46 12.961 29.42 12.961 47.88 0 18.94-4.673 35.27-14.041 48.97m-36.554-127.37c16.222 7.16 28.626 17.42 37.214 30.79 8.587 13.36 12.881 29.24 12.881 47.61 0 18.86-4.651 35.09-13.955 48.69m.414.28h.002l-.416-.28m.414.28h-.001l-.413-.28m.414.28l-.414-.28m18.249 112.77l-.41.29-.2-.29h.61zm0 0v-.5h-.35l.35.5zm-515.977-58.82l.001.01c11.736 19.64 27.904 35.1 48.496 46.36h.003c20.595 11.02 43.697 16.53 69.296 16.53 25.598 0 48.7-5.51 69.295-16.53h.004c20.591-11.26 36.759-26.72 48.495-46.36 11.739-19.66 17.604-41.82 17.604-66.49 0-24.67-5.865-46.83-17.604-66.49-11.736-19.64-27.905-34.98-48.497-46-20.595-11.263-43.698-16.888-69.297-16.888-25.6 0-48.703 5.625-69.298 16.888-20.593 11.02-36.762 26.48-48.497 46.36-11.738 19.66-17.604 41.7-17.604 66.13 0 24.43 5.866 46.59 17.603 66.48zm193.933-111.34h.002c7.587 13.28 11.385 28.23 11.385 44.86s-3.798 31.7-11.386 45.22c-7.589 13.29-18.02 23.72-31.298 31.31-13.277 7.36-28.22 11.04-44.84 11.04-16.621 0-31.563-3.68-44.84-11.04-13.279-7.59-23.71-18.02-31.299-31.31-7.588-13.52-11.385-28.59-11.385-45.22s3.798-31.58 11.384-44.86h.002c7.589-13.53 18.019-23.96 31.295-31.31l.006-.01c13.276-7.59 28.218-11.39 44.837-11.39 16.619 0 31.56 3.8 44.837 11.39l.006.01c13.275 7.35 23.705 17.78 31.294 31.31zm264.73 88.24l-.295-.42c.16-.06.32-.13.479-.19l.295.42c-.16.07-.319.13-.479.19zm68.865-129.3v.5h83.015v211.22h47.516v-211.22h83.011v-40.379h-.5l-212.542.001h-.5v39.878zm243.672 152.4v.01c11.74 19.64 27.91 35.1 48.5 46.36h0c20.6 11.02 43.7 16.53 69.3 16.53 25.6 0 48.7-5.51 69.29-16.53h.01c20.59-11.26 36.75-26.72 48.49-46.36 11.74-19.66 17.6-41.82 17.6-66.49 0-24.67-5.86-46.83-17.6-66.49-11.74-19.64-27.9-34.98-48.5-46-20.59-11.263-43.69-16.888-69.29-16.888-25.6 0-48.71 5.625-69.3 16.888-20.59 11.02-36.76 26.48-48.5 46.36-11.74 19.66-17.6 41.7-17.6 66.13 0 24.43 5.86 46.59 17.6 66.48zm193.93-111.34h.01c7.58 13.28 11.38 28.23 11.38 44.86s-3.8 31.7-11.39 45.22c-7.58 13.29-18.01 23.72-31.29 31.31-13.28 7.36-28.22 11.04-44.84 11.04-16.62 0-31.57-3.68-44.84-11.04-13.28-7.59-23.71-18.02-31.3-31.31-7.59-13.52-11.39-28.59-11.39-45.22s3.8-31.58 11.39-44.86h0c7.59-13.53 18.02-23.96 31.29-31.31l.01-.01c13.28-7.59 28.22-11.39 44.84-11.39 16.62 0 31.56 3.8 44.83 11.39l.01.01c13.28 7.35 23.7 17.78 31.29 31.31zm256.38 170.45l.15.21h54.91l-.58-.8-93.89-129.3 87.45-120.705.58-.794h-51.69l-.15.211-62.93 88.568-63.64-88.57-.15-.209h-53.83l.56.792 87.82 122.497-92.82 127.51-.58.8h54.2l.15-.21 66.86-94.65 67.58 94.65zm-772.762-198.23c10.359 8.48 15.561 20.61 15.561 36.48 0 15.87-5.202 28.13-15.564 36.85-10.372 8.49-25.625 12.77-45.839 12.77h-53.889v-98.88h53.889c20.216 0 35.47 4.29 45.842 12.78z"/><path d="M188.221 1198.01h.002c13.148 22.02 31.262 39.35 54.332 51.97h.004c23.074 12.35 48.958 18.52 77.641 18.52 28.683 0 54.567-6.17 77.641-18.52h.004c23.07-12.62 41.184-29.95 54.333-51.97 13.151-22.02 19.722-46.86 19.722-74.51 0-27.64-6.571-52.49-19.722-74.51-13.149-22.02-31.264-39.21-54.335-51.565-23.074-12.619-48.959-18.925-77.643-18.925-28.684 0-54.569 6.306-77.643 18.926-23.072 12.354-41.187 29.674-54.335 51.964-13.15 22.02-19.722 46.73-19.722 74.11 0 27.38 6.572 52.22 19.721 74.51zm217.37-124.84h.002c8.509 14.91 12.768 31.68 12.768 50.33s-4.259 35.56-12.769 50.73c-8.512 14.91-20.21 26.62-35.104 35.13-14.891 8.25-31.65 12.38-50.288 12.38-18.638 0-35.397-4.13-50.288-12.38-14.894-8.51-26.593-20.22-35.104-35.13-8.51-15.17-12.769-32.08-12.769-50.73s4.259-35.42 12.768-50.33h.002c8.512-15.17 20.21-26.88 35.1-35.13h.006c14.891-8.52 31.648-12.78 50.285-12.78 18.637 0 35.395 4.26 50.286 12.78h.006c14.89 8.25 26.588 19.96 35.099 35.13zm304.35 191.1l.15.22h57.369l-.55-.79-64.207-91.8c19.043-7.53 33.638-18.88 43.757-34.07 10.492-15.35 15.727-33.65 15.727-54.87 0-20.69-4.832-38.58-14.517-53.66-9.684-15.07-23.669-26.64-41.929-34.702-17.991-8.062-39.186-12.084-63.57-12.084H526.165v281.976h53.138v-81.89h62.868c4.625 0 8.158-.12 10.588-.37l57.182 82.04zm69.567-237.1v.5h93.046v236.82h53.138v-236.82h93.048v-45.156H779.508v44.656zm273.112 170.84h0c13.15 22.02 31.26 39.35 54.33 51.97h.01c23.07 12.35 48.95 18.52 77.64 18.52 28.68 0 54.56-6.17 77.64-18.52v-.01c23.07-12.61 41.19-29.94 54.33-51.96 13.16-22.02 19.73-46.86 19.73-74.51 0-27.64-6.57-52.49-19.73-74.51-13.14-22.02-31.26-39.21-54.33-51.563-23.07-12.621-48.96-18.927-77.64-18.927-28.69 0-54.57 6.306-77.65 18.926-23.07 12.354-41.18 29.674-54.33 51.964-13.15 22.02-19.72 46.73-19.72 74.11 0 27.38 6.57 52.22 19.72 74.51zm217.37-124.84h0c8.51 14.91 12.77 31.68 12.77 50.33s-4.26 35.56-12.77 50.73c-8.51 14.9-20.21 26.61-35.1 35.13-14.89 8.25-31.65 12.38-50.29 12.38s-35.4-4.13-50.29-12.38c-14.89-8.51-26.59-20.22-35.1-35.13-8.51-15.17-12.77-32.08-12.77-50.73s4.26-35.42 12.76-50.33h.01c8.51-15.17 20.21-26.88 35.1-35.13h0c14.89-8.52 31.65-12.78 50.29-12.78 18.63 0 35.39 4.26 50.28 12.78h.01c14.89 8.25 26.59 19.96 35.1 35.13zm287.35 191.11l.15.21h61.4l-.58-.8-105.26-145.01 98.04-135.373.58-.793h-57.79l-.15.21-70.58 99.376-71.38-99.378-.15-.208h-60.19l.57.791 98.45 137.385-104.07 143-.57.8h60.6l.14-.22 75-106.19 75.79 106.2zM691.185 1042c11.627 9.52 17.463 23.15 17.463 40.96 0 17.81-5.835 31.57-17.466 41.36-11.64 9.53-28.753 14.33-51.417 14.33h-60.462v-110.98h60.462c22.666 0 39.78 4.8 51.42 14.33zM16.704 674.967l.002.002c10.852 18.166 25.805 32.456 44.846 42.865l.004.002c19.045 10.19 40.409 15.28 64.079 15.28 23.671 0 45.035-5.09 64.08-15.28l.004-.002c19.041-10.409 33.993-24.699 44.846-42.865 10.856-18.172 16.28-38.665 16.28-61.468 0-22.804-5.424-43.297-16.28-61.469-10.853-18.167-25.806-32.347-44.849-42.535-19.045-10.411-40.409-15.611-64.081-15.611-23.671 0-45.036 5.2-64.081 15.611-19.044 10.189-33.996 24.48-44.85 42.867C5.85 570.535.427 590.918.427 613.501s5.424 43.076 16.278 61.466zM195.99 572.055l.002.003c7.01 12.271 10.52 26.081 10.52 41.443 0 15.361-3.509 29.282-10.521 41.775-7.012 12.273-16.65 21.913-28.919 28.927-12.268 6.792-26.076 10.193-41.436 10.193-15.359 0-29.167-3.401-41.435-10.193-12.27-7.014-21.908-16.655-28.92-28.928-7.011-12.493-10.52-26.414-10.52-41.774 0-15.362 3.51-29.172 10.52-41.443l.001-.003c7.013-12.494 16.65-22.132 28.917-28.924l.005-.004c12.268-7.011 26.075-10.522 41.432-10.522 15.358 0 29.165 3.511 41.432 10.522l.006.004c12.267 6.792 21.904 16.43 28.916 28.924zm251.032 157.538l.15.214h47.532l-.551-.787-52.894-75.581c15.67-6.21 27.689-15.567 36.028-28.077 8.665-12.668 12.987-27.769 12.987-45.28 0-17.065-3.989-31.831-11.988-44.277-7.998-12.444-19.546-21.989-34.621-28.642-14.853-6.651-32.346-9.969-52.468-9.969h-95.769v232.613h44.004v-67.499h51.765c3.784 0 6.684-.1 8.691-.302l47.134 67.587zm57.363-195.503v.5h76.744v195.217h44.003V534.59h76.745v-37.396H504.384v36.896zm225.273 140.876l.001.003c10.853 18.166 25.805 32.456 44.847 42.865l.004.002c19.045 10.189 40.409 15.279 64.079 15.279 23.671 0 45.035-5.09 64.08-15.279l.004-.002c19.041-10.409 33.993-24.699 44.846-42.865 10.856-18.172 16.28-38.666 16.28-61.469 0-22.803-5.424-43.296-16.28-61.468-10.853-18.167-25.807-32.348-44.85-42.536-19.045-10.41-40.409-15.611-64.08-15.611s-45.034 5.201-64.079 15.611c-19.044 10.189-33.998 24.48-44.851 42.867-10.855 18.171-16.279 38.554-16.279 61.137 0 22.584 5.424 43.077 16.278 61.466zm179.285-102.911l.002.003c7.01 12.271 10.52 26.081 10.52 41.442 0 15.362-3.51 29.284-10.522 41.777-7.012 12.272-16.649 21.912-28.919 28.926-12.268 6.792-26.075 10.193-41.435 10.193-15.359 0-29.166-3.401-41.434-10.193-12.27-7.014-21.908-16.653-28.92-28.926-7.012-12.493-10.521-26.415-10.521-41.777 0-15.361 3.509-29.171 10.519-41.442l.002-.003c7.013-12.494 16.65-22.132 28.916-28.924l.006-.004c12.268-7.012 26.075-10.522 41.432-10.522 15.358 0 29.165 3.51 41.432 10.522l.006.004c12.267 6.792 21.904 16.43 28.916 28.924zm237.008 157.542l.15.21h50.859l-.57-.794-86.79-119.483 80.83-111.542.58-.794h-47.88l-.15.21-58.15 81.818-58.8-81.82-.15-.208h-49.859l.568.792 81.161 113.196-85.79 117.83-.579.795h50.199l.15-.212 61.78-87.438 62.44 87.44zM431.567 546.389c9.566 7.829 14.372 19.034 14.372 33.693 0 14.658-4.805 25.976-14.375 34.027-9.579 7.837-23.67 11.796-42.352 11.796h-49.781v-91.314h49.781c18.684 0 32.776 3.959 42.355 11.798z"/><path d="M431.001 498.484c-16.06-7.194-34.977-10.782-56.738-10.782H270.71v.5l.001 250.597v.5h47.516v-73.032h56.036c4.107 0 7.25-.108 9.42-.329l50.999 73.147.149.214-4.033-240.358m.203-.457l.002.001-.205.456m.203-.457H431l-.202.457m.203-.457c16.3 7.195 28.785 17.518 37.431 30.975 8.648 13.458 12.961 29.426 12.961 47.883 0 18.94-4.673 35.27-14.041 48.968m-36.554-127.369c16.222 7.16 28.626 17.423 37.214 30.788 8.587 13.365 12.881 29.236 12.881 47.613 0 18.855-4.651 35.084-13.955 48.688m.414.28l.002-.003-.416-.277m.414.28l-.001.002-.413-.282m.414.28l-.414-.28m18.249 112.769l-.41.286-.2-.286h.61zm0 0v-.5h-.35l.35.5zM-30.79 679.984l.001.002c11.736 19.649 27.904 35.105 48.495 46.364l.005.002c20.594 11.021 43.696 16.527 69.295 16.527 25.598 0 48.7-5.506 69.295-16.527l.004-.002c20.591-11.259 36.759-26.715 48.495-46.364 11.739-19.654 17.604-41.821 17.604-66.486 0-24.665-5.865-46.831-17.604-66.485-11.736-19.65-27.905-34.987-48.497-46.007-20.595-11.261-43.698-16.886-69.297-16.886-25.6 0-48.703 5.625-69.298 16.886-20.593 11.021-36.762 26.478-48.497 46.366-11.738 19.653-17.604 41.699-17.604 66.126 0 24.428 5.866 46.593 17.603 66.484zm193.933-111.347l.002.004c7.587 13.283 11.385 28.232 11.385 44.859 0 16.627-3.798 31.697-11.386 45.22-7.589 13.286-18.02 23.721-31.298 31.314-13.277 7.352-28.22 11.033-44.84 11.033-16.62 0-31.563-3.681-44.84-11.033-13.28-7.593-23.71-18.029-31.298-31.314C3.278 645.196-.518 630.127-.518 613.5s3.798-31.576 11.384-44.859l.002-.004c7.59-13.524 18.019-23.958 31.295-31.311l.006-.003c13.276-7.59 28.218-11.39 44.837-11.39 16.619 0 31.56 3.8 44.837 11.39l.006.003c13.275 7.353 23.705 17.787 31.294 31.311zm264.73 88.244l-.295-.421.479-.188.295.421-.479.188zm68.865-129.3v.5h83.015v211.218h47.516V528.081h83.015v-40.38h-.5l-212.546.001h-.5v39.879zm243.673 152.402l.001.003c11.736 19.649 27.904 35.105 48.495 46.363l.004.003c20.595 11.021 43.697 16.527 69.295 16.527 25.599-.001 48.701-5.506 69.296-16.527l.004-.003c20.591-11.258 36.759-26.714 48.495-46.363 11.738-19.654 17.604-41.821 17.604-66.486 0-24.665-5.866-46.832-17.604-66.486-11.736-19.649-27.905-34.986-48.497-46.006-20.595-11.261-43.698-16.886-69.298-16.886-25.599 0-48.703 5.625-69.297 16.886-20.593 11.021-36.762 26.477-48.497 46.364-11.738 19.654-17.604 41.7-17.604 66.128 0 24.428 5.866 46.593 17.603 66.483zm193.933-111.346l.002.004c7.587 13.283 11.384 28.232 11.384 44.859 0 16.627-3.797 31.697-11.386 45.221-7.589 13.285-18.019 23.72-31.298 31.313-13.277 7.352-28.219 11.033-44.84 11.033-16.62 0-31.563-3.681-44.839-11.033-13.279-7.593-23.709-18.028-31.298-31.313-7.589-13.524-11.386-28.594-11.386-45.221 0-16.627 3.797-31.576 11.384-44.859l.002-.004c7.589-13.524 18.019-23.958 31.294-31.311l.006-.003c13.277-7.59 28.219-11.39 44.837-11.39 16.619 0 31.561 3.8 44.838 11.39l.006.003c13.275 7.353 23.705 17.787 31.294 31.311zm256.376 170.452l.15.209h54.91l-.58-.793-93.89-129.301 87.45-120.709.58-.794h-51.69l-.15.211-62.93 88.57-63.64-88.572-.15-.209h-53.83l.56.792 87.82 122.499-92.82 127.512-.58.795h54.2l.15-.212 66.86-94.652 67.58 94.654zM417.958 540.856c10.359 8.479 15.561 20.616 15.561 36.487 0 15.868-5.202 28.127-15.564 36.846-10.372 8.489-25.625 12.773-45.839 12.773h-53.889v-98.881h53.889c20.216 0 35.47 4.285 45.842 12.775z"/><path d="M-106.779 688.011l.002.003c13.148 22.021 31.262 39.343 54.332 51.961l.004.002C-29.367 752.329-3.483 758.5 25.2 758.5c28.683 0 54.567-6.171 77.641-18.523l.004-.002c23.07-12.618 41.184-29.94 54.333-51.961 13.151-22.027 19.722-46.869 19.722-74.514 0-27.645-6.571-52.487-19.722-74.513-13.149-22.022-31.264-39.21-54.335-51.562C79.769 474.806 53.884 468.5 25.2 468.5c-28.684 0-54.569 6.306-77.643 18.926-23.072 12.351-41.187 29.675-54.335 51.963-13.15 22.026-19.722 46.733-19.722 74.111 0 27.379 6.572 52.22 19.721 74.511zm217.37-124.841l.002.003c8.509 14.903 12.768 31.675 12.768 50.327 0 18.652-4.259 35.559-12.769 50.732-8.512 14.905-20.21 26.613-35.104 35.131-14.89 8.25-31.65 12.379-50.288 12.379-18.638 0-35.397-4.129-50.288-12.379-14.893-8.518-26.593-20.226-35.104-35.132-8.51-15.173-12.769-32.079-12.769-50.731s4.259-35.424 12.768-50.327l.002-.003c8.512-15.174 20.21-26.88 35.1-35.13l.006-.003c14.89-8.516 31.648-12.779 50.285-12.779 18.637 0 35.395 4.263 50.286 12.779l.006.003c14.89 8.25 26.588 19.956 35.099 35.13zm304.35 191.102l.15.214h57.369l-.55-.786-64.207-91.799c19.043-7.527 33.638-18.882 43.757-34.072 10.492-15.347 15.727-33.644 15.727-54.869 0-20.685-4.832-38.577-14.517-53.655-9.684-15.077-23.669-26.644-41.929-34.707-17.991-8.062-39.186-12.084-63.57-12.084H231.165v281.972h53.138v-81.883h62.868c4.625 0 8.158-.123 10.588-.373l57.182 82.042zm69.567-237.105v.5h93.046v236.819h53.138V517.667h93.046v-45.153h-239.23v44.653zm273.111 170.844l.001.002c13.148 22.022 31.262 39.343 54.333 51.962l.004.002c23.073 12.352 48.957 18.523 77.64 18.523 28.684 0 54.568-6.171 77.641-18.523l.004-.002c23.071-12.619 41.188-29.94 54.328-51.962 13.16-22.026 19.73-46.868 19.73-74.513 0-27.645-6.57-52.487-19.73-74.513-13.14-22.021-31.257-39.209-54.328-51.56-23.074-12.621-48.96-18.927-77.645-18.927-28.684 0-54.569 6.306-77.643 18.926-23.072 12.351-41.186 29.674-54.334 51.962-13.151 22.026-19.723 46.734-19.723 74.112 0 27.378 6.572 52.219 19.722 74.511zm217.37-124.841l.001.003c8.51 14.903 12.769 31.675 12.769 50.327 0 18.651-4.259 35.557-12.769 50.729-8.511 14.906-20.209 26.615-35.103 35.133-14.891 8.25-31.651 12.38-50.29 12.38-18.638 0-35.397-4.129-50.288-12.379-14.893-8.518-26.592-20.226-35.103-35.131-8.511-15.173-12.77-32.08-12.77-50.732s4.259-35.424 12.768-50.327l.002-.003c8.512-15.174 20.21-26.881 35.1-35.13l.006-.003c14.891-8.516 31.649-12.779 50.285-12.779 18.637 0 35.395 4.263 50.286 12.779l.006.003c14.89 8.249 26.588 19.956 35.1 35.13zm287.351 191.107l.15.209h61.4l-.58-.794-105.26-145.009 98.04-135.376.58-.793h-57.79l-.15.21-70.58 99.375-71.38-99.377-.15-.208h-60.19l.57.791 98.45 137.383-104.07 143.004-.57.794h60.6l.14-.211 75-106.195 75.79 106.197zM396.185 532.004c11.627 9.521 17.463 23.147 17.463 40.956 0 17.807-5.835 31.57-17.466 41.36-11.64 9.53-28.753 14.334-51.417 14.334h-60.462V517.667h60.462c22.666 0 39.78 4.805 51.42 14.337zm-650.481-294.037l.002.002c10.852 18.167 25.805 32.456 44.846 42.865l.004.002c19.045 10.19 40.409 15.28 64.079 15.28 23.671 0 45.035-5.09 64.08-15.28l.004-.002c19.041-10.409 33.993-24.698 44.846-42.865 10.856-18.171 16.28-38.665 16.28-61.468 0-22.803-5.424-43.297-16.28-61.469-10.853-18.166-25.806-32.346-44.849-42.535-19.045-10.41-40.409-15.611-64.081-15.611-23.671 0-45.036 5.2-64.081 15.611-19.044 10.19-33.996 24.48-44.849 42.867-10.855 18.171-16.279 38.554-16.279 61.137s5.424 43.076 16.278 61.466zm179.285-102.912l.002.004c7.01 12.27 10.52 26.08 10.52 41.442 0 15.361-3.51 29.283-10.521 41.776-7.012 12.272-16.65 21.912-28.919 28.926-12.268 6.792-26.076 10.193-41.436 10.193-15.359 0-29.167-3.401-41.435-10.193-12.27-7.014-21.908-16.654-28.92-28.928-7.011-12.493-10.52-26.414-10.52-41.774 0-15.362 3.509-29.172 10.519-41.442l.002-.004c7.013-12.494 16.65-22.132 28.916-28.924l.006-.003c12.268-7.012 26.075-10.522 41.432-10.522 15.358 0 29.165 3.51 41.432 10.522l.006.003c12.267 6.792 21.904 16.43 28.916 28.924zm251.032 157.538l.15.214h47.532l-.551-.787-52.894-75.581c15.67-6.21 27.689-15.566 36.028-28.077 8.665-12.668 12.987-27.769 12.987-45.28 0-17.065-3.989-31.831-11.988-44.276-7.998-12.445-19.546-21.99-34.621-28.642-14.853-6.652-32.346-9.97-52.468-9.97H24.427v232.613h44.004v-67.498l51.765-.001c3.784 0 6.684-.099 8.691-.302l47.134 67.587zm57.363-195.502v.5h76.744v195.216h44.003V97.591h76.745V60.195H233.384V97.09zm225.273 140.876l.001.002c10.853 18.166 25.805 32.456 44.847 42.865l.004.002c19.045 10.19 40.409 15.28 64.079 15.28 23.671 0 45.035-5.09 64.08-15.28l.004-.002c19.041-10.409 33.993-24.699 44.846-42.865 10.856-18.171 16.28-38.665 16.28-61.468 0-22.803-5.424-43.297-16.28-61.469-10.853-18.167-25.807-32.347-44.85-42.536-19.045-10.41-40.409-15.61-64.08-15.61s-45.034 5.2-64.079 15.61c-19.044 10.19-33.998 24.48-44.851 42.867-10.855 18.171-16.279 38.554-16.279 61.138 0 22.583 5.424 43.076 16.278 61.466zm179.285-102.912l.002.003c7.01 12.271 10.52 26.081 10.52 41.443 0 15.361-3.51 29.283-10.522 41.776-7.012 12.273-16.649 21.913-28.919 28.926-12.268 6.792-26.075 10.193-41.435 10.193-15.359 0-29.166-3.401-41.434-10.193-12.27-7.013-21.908-16.653-28.92-28.926-7.012-12.493-10.521-26.415-10.521-41.776 0-15.362 3.509-29.172 10.519-41.443l.002-.003c7.013-12.494 16.65-22.132 28.916-28.924l.006-.003c12.268-7.012 26.075-10.523 41.432-10.523 15.358 0 29.165 3.51 41.432 10.523l.006.003c12.267 6.792 21.904 16.43 28.916 28.924zm237.013 157.542l.15.21h50.857l-.576-.794L838.6 172.53l80.832-111.542.575-.794h-47.88l-.15.21-58.145 81.818-58.804-81.82-.15-.208h-49.857l.568.792 81.165 113.196-85.794 117.831-.579.794h50.199l.15-.212 61.783-87.438 62.442 87.44zM160.567 109.389c9.566 7.829 14.372 19.034 14.372 33.693 0 14.658-4.805 25.977-14.375 34.027-9.579 7.838-23.67 11.796-42.352 11.796H68.431V97.591h49.781c18.684 0 32.776 3.959 42.355 11.798z"/><path d="M160.001 61.484c-16.06-7.194-34.977-10.782-56.738-10.782H-.29v251.597h47.517v-73.031h56.036c4.107 0 7.25-.109 9.42-.33l50.999 73.147.149.214-4.033-240.357m.203-.458l.002.001-.205.457m.203-.458H160l-.202.458m.203-.458c16.3 7.195 28.785 17.518 37.431 30.975 8.648 13.458 12.961 29.426 12.961 47.884 0 18.939-4.673 35.269-14.041 48.968m-36.554-127.37c16.222 7.16 28.626 17.423 37.214 30.788 8.587 13.365 12.881 29.237 12.881 47.614 0 18.854-4.651 35.083-13.955 48.687m.414.281a.008.008 0 00.002-.004l-.416-.277m.414.281l-.001.001-.413-.282m.414.281l-.414-.281m18.249 112.769l-.41.286-.2-.286h.61zm0 0v-.5h-.35l.35.5zm-515.977-58.815l.001.002c11.736 19.649 27.904 35.105 48.496 46.364l.003.002c20.595 11.021 43.697 16.527 69.296 16.527 25.598 0 48.7-5.506 69.295-16.527l.004-.002c20.591-11.259 36.76-26.715 48.495-46.364 11.739-19.654 17.604-41.82 17.604-66.486 0-24.665-5.865-46.831-17.604-66.485-11.736-19.65-27.905-34.987-48.497-46.007-20.595-11.26-43.698-16.886-69.297-16.886-25.6 0-48.703 5.626-69.298 16.886-20.593 11.021-36.762 26.478-48.497 46.366-11.738 19.653-17.604 41.699-17.604 66.126 0 24.428 5.866 46.593 17.603 66.484zm193.933-111.346l.002.003c7.587 13.283 11.385 28.232 11.385 44.859 0 16.627-3.798 31.697-11.386 45.221-7.589 13.285-18.02 23.721-31.298 31.313-13.277 7.352-28.22 11.033-44.84 11.033-16.621 0-31.563-3.681-44.84-11.033-13.279-7.593-23.71-18.028-31.299-31.314-7.588-13.524-11.385-28.593-11.385-45.22s3.798-31.576 11.384-44.859l.002-.003c7.589-13.525 18.019-23.959 31.295-31.311l.006-.004c13.276-7.59 28.218-11.39 44.837-11.39 16.619 0 31.56 3.8 44.837 11.39l.006.004c13.275 7.352 23.705 17.786 31.294 31.311zm264.73 88.244l-.295-.422.479-.188.295.421-.479.189zm68.865-129.3v.5h83.015v211.217h47.516V91.081h83.015v-40.38H225.738v39.88zm243.673 152.402l.001.002c11.736 19.649 27.904 35.105 48.495 46.364l.004.002c20.595 11.021 43.697 16.527 69.295 16.527 25.599 0 48.701-5.506 69.296-16.527l.004-.002c20.591-11.259 36.759-26.715 48.495-46.364 11.738-19.654 17.604-41.82 17.604-66.486 0-24.665-5.866-46.831-17.604-66.485-11.736-19.65-27.905-34.987-48.497-46.007-20.595-11.26-43.698-16.886-69.298-16.886-25.599 0-48.703 5.626-69.297 16.886-20.593 11.02-36.762 26.478-48.497 46.365-11.738 19.653-17.604 41.7-17.604 66.127 0 24.428 5.866 46.593 17.603 66.484zm193.933-111.347l.002.004c7.587 13.283 11.384 28.232 11.384 44.859 0 16.627-3.797 31.697-11.386 45.221-7.589 13.285-18.019 23.721-31.298 31.313-13.277 7.352-28.219 11.033-44.84 11.033-16.62 0-31.563-3.681-44.839-11.033-13.279-7.592-23.709-18.028-31.298-31.313-7.589-13.524-11.386-28.594-11.386-45.221 0-16.627 3.797-31.576 11.384-44.859l.002-.004c7.589-13.524 18.019-23.958 31.294-31.31l.006-.004c13.277-7.59 28.219-11.39 44.837-11.39 16.619 0 31.561 3.8 44.838 11.39l.006.004c13.275 7.352 23.705 17.786 31.294 31.31zm256.374 170.452l.149.21h54.912l-.577-.794-93.893-129.301 87.453-120.709.575-.793h-51.691l-.149.21-62.929 88.571-63.642-88.573-.149-.208h-53.83l.567.791 87.814 122.499-92.821 127.513-.578.794h54.199l.149-.212 66.864-94.652 67.577 94.654zm-772.76-198.233c10.359 8.48 15.561 20.616 15.561 36.487 0 15.869-5.202 28.127-15.564 36.847-10.372 8.488-25.625 12.772-45.839 12.772H47.227v-98.88h53.889c20.216 0 35.47 4.284 45.842 12.774z"/><path d="M-377.779 251.012l.002.002c13.148 22.021 31.262 39.343 54.332 51.961l.004.003c23.074 12.351 48.958 18.523 77.641 18.523 28.683 0 54.567-6.172 77.641-18.523l.004-.003c23.07-12.618 41.184-29.94 54.333-51.961C-100.671 228.988-94.1 204.145-94.1 176.5c0-27.645-6.571-52.487-19.722-74.513-13.149-22.022-31.264-39.21-54.335-51.561C-191.231 37.806-217.116 31.5-245.8 31.5c-28.684 0-54.569 6.306-77.643 18.926-23.072 12.352-41.187 29.675-54.335 51.964-13.15 22.025-19.722 46.733-19.722 74.11 0 27.379 6.572 52.22 19.721 74.512zm217.37-124.842l.002.003c8.509 14.904 12.768 31.675 12.768 50.327 0 18.652-4.259 35.559-12.769 50.732-8.512 14.905-20.21 26.614-35.104 35.132-14.891 8.249-31.65 12.378-50.288 12.378-18.638 0-35.397-4.129-50.288-12.379-14.894-8.518-26.593-20.226-35.104-35.132-8.51-15.172-12.769-32.079-12.769-50.731s4.259-35.423 12.768-50.327l.002-.003c8.512-15.174 20.21-26.88 35.1-35.13l.006-.003c14.891-8.516 31.648-12.778 50.285-12.778 18.637 0 35.395 4.262 50.286 12.778l.006.003c14.89 8.25 26.588 19.956 35.099 35.13zm304.35 191.103l.15.214h57.369l-.55-.787-64.207-91.799c19.043-7.527 33.638-18.881 43.757-34.072 10.492-15.347 15.727-33.644 15.727-54.869 0-20.685-4.832-38.577-14.517-53.655-9.684-15.077-23.669-26.644-41.929-34.706-17.991-8.062-39.186-12.085-63.57-12.085H-39.835v281.973h53.138v-81.884h62.868c4.625 0 8.158-.123 10.588-.373l57.182 82.043zm69.567-237.106v.5h93.046v236.82h53.138V80.667h93.046V35.514h-239.23v44.653zM486.619 251.01l.001.003c13.148 22.021 31.262 39.343 54.333 51.961l.004.002c23.073 12.352 48.957 18.523 77.64 18.523 28.684 0 54.568-6.171 77.641-18.523l.004-.002c23.071-12.618 41.185-29.94 54.333-51.961 13.151-22.027 19.723-46.869 19.723-74.514 0-27.645-6.572-52.487-19.723-74.513-13.148-22.021-31.262-39.21-54.333-51.56-23.074-12.62-48.96-18.927-77.645-18.927-28.684 0-54.569 6.306-77.643 18.926-23.072 12.351-41.186 29.674-54.334 51.962-13.151 22.026-19.723 46.734-19.723 74.112 0 27.379 6.572 52.22 19.722 74.511zm217.37-124.841l.001.003c8.51 14.903 12.769 31.675 12.769 50.327 0 18.651-4.259 35.557-12.769 50.729-8.511 14.906-20.209 26.615-35.103 35.133-14.891 8.25-31.651 12.38-50.29 12.38-18.638 0-35.397-4.129-50.288-12.379-14.893-8.517-26.592-20.226-35.103-35.131-8.511-15.173-12.77-32.08-12.77-50.732s4.259-35.424 12.768-50.327l.002-.003c8.512-15.174 20.21-26.88 35.1-35.13l.006-.003c14.891-8.516 31.649-12.779 50.285-12.779 18.637 0 35.395 4.263 50.286 12.78l.006.002c14.89 8.25 26.588 19.956 35.1 35.13zm287.352 191.107l.149.209h61.4l-.58-.793-105.265-145.01 98.045-135.376.58-.793h-57.79l-.15.21-70.582 99.376-71.382-99.378-.149-.208h-60.186l.567.791 98.45 137.383-104.063 143.004-.578.795h60.598l.15-.212 74.993-106.194 75.793 106.196zM125.185 95.004c11.627 9.521 17.463 23.147 17.463 40.956 0 17.807-5.835 31.57-17.466 41.36-11.64 9.53-28.753 14.335-51.417 14.335H13.303V80.667h60.462c22.666 0 39.78 4.805 51.42 14.337z"/></g></svg>