<svg width="374" height="1158" fill="none" xmlns="http://www.w3.org/2000/svg"><path d="M111.959 1014.16h.001c3.299 5.52 7.844 9.86 13.627 13.02l.004.01c5.787 3.09 12.273 4.64 19.447 4.64 7.175 0 13.661-1.55 19.448-4.64l.003-.01c5.784-3.16 10.329-7.5 13.628-13.02 3.301-5.53 4.948-11.76 4.948-18.678 0-6.919-1.647-13.149-4.948-18.676-3.299-5.521-7.845-9.832-13.629-12.927-5.787-3.163-12.274-4.74-19.45-4.74-7.175 0-13.662 1.577-19.449 4.74-5.785 3.096-10.331 7.44-13.63 13.028-3.3 5.526-4.947 11.721-4.947 18.575 0 6.858 1.647 13.088 4.947 18.678zm53.945-30.978l.002.003c2.077 3.635 3.119 7.73 3.119 12.297 0 4.568-1.042 8.698-3.12 12.398-2.079 3.64-4.933 6.49-8.57 8.57-3.634 2.01-7.729 3.03-12.297 3.03-4.567 0-8.662-1.02-12.296-3.03-3.637-2.08-6.491-4.93-8.57-8.57-2.078-3.7-3.121-7.83-3.121-12.398 0-4.567 1.043-8.662 3.12-12.297l.002-.003c2.079-3.704 4.932-6.557 8.566-8.569h0l.005-.003c3.635-2.078 7.729-3.121 12.294-3.121 4.566 0 8.66 1.043 12.294 3.121h0l.006.003c3.633 2.012 6.487 4.865 8.566 8.569zm75.557 47.438l.149.21h15.157l-.551-.79-15.665-22.38c4.574-1.89 8.113-4.69 10.593-8.413 2.652-3.878 3.968-8.492 3.968-13.821 0-5.191-1.214-9.702-3.663-13.512-2.448-3.809-5.979-6.723-10.569-8.749-4.524-2.026-9.839-3.03-15.931-3.03h-29.168v70.695h13.941v-20.31h15.227c1.021 0 1.838-.03 2.444-.08l14.068 20.18zm17.198-59.033v.5h23.093v58.743h13.94v-58.743h23.094v-11.952h-60.127v11.452zm81.465 55.593l.004.01c5.786 3.09 12.272 4.64 19.447 4.64 7.174 0 13.66-1.55 19.447-4.64l.004-.01c5.783-3.16 10.329-7.5 13.627-13.02 3.302-5.53 4.948-11.76 4.948-18.678 0-6.919-1.646-13.149-4.948-18.676-3.299-5.521-7.845-9.832-13.629-12.927-5.786-3.163-12.273-4.74-19.449-4.74-7.176 0-13.663 1.577-19.449 4.74-5.786 3.095-10.332 7.44-13.63 13.028-3.301 5.525-4.948 11.721-4.948 18.575 0 6.858 1.647 13.088 4.947 18.678h.001c3.299 5.52 7.845 9.86 13.628 13.02zm40.316-43.998l.002.003c2.077 3.635 3.12 7.73 3.12 12.297 0 4.568-1.043 8.698-3.12 12.398-2.079 3.64-4.933 6.49-8.57 8.57-3.635 2.01-7.73 3.03-12.297 3.03s-8.662-1.02-12.297-3.03c-3.636-2.08-6.491-4.93-8.569-8.57-2.079-3.7-3.121-7.83-3.121-12.398 0-4.567 1.043-8.662 3.119-12.297l.002-.003c2.079-3.704 4.933-6.557 8.566-8.569l.006-.003c3.634-2.078 7.728-3.121 12.294-3.121 4.566 0 8.659 1.043 12.294 3.121l.006.003c3.633 2.012 6.486 4.865 8.565 8.569zm71.341 47.438l.149.21h16.17l-.577-.79-25.966-35.753 24.175-33.359.575-.793h-15.273l-.15.21-17.213 24.221-17.41-24.223-.149-.208h-15.863l.568.791 24.276 33.857-25.668 35.257-.578.79h15.973l.15-.21 18.307-25.91 18.504 25.91zm-214.905-55.062c2.782 2.277 4.196 5.541 4.196 9.868 0 4.326-1.413 7.626-4.199 9.97-2.796 2.287-6.943 3.469-12.521 3.469h-14.63v-26.778h14.63c5.58 0 9.728 1.183 12.524 3.471z" stroke="#009B97" stroke-opacity=".15"/><path d="M388.523 981.909c-2.298-4.094-5.456-7.254-9.476-9.48-4.019-2.298-8.542-3.447-13.566-3.447-5.025 0-9.547 1.149-13.567 3.447l36.609 9.48zm0 0c2.297 4.022 3.445 8.546 3.445 13.573 0 5.028-1.148 9.588-3.445 13.678v-27.251zM97.67 1015.67h0c3.565 5.97 8.477 10.66 14.726 14.08h.004c6.253 3.35 13.262 5.01 21.017 5.01 7.755 0 14.764-1.66 21.017-5.01h.003c6.25-3.42 11.161-8.11 14.726-14.08 3.567-5.97 5.346-12.71 5.346-20.188 0-7.48-1.779-14.213-5.346-20.185-3.565-5.968-8.477-10.627-14.728-13.973-6.252-3.418-13.262-5.123-21.018-5.123s-14.766 1.705-21.019 5.123c-6.252 3.346-11.164 8.042-14.728 14.082-3.566 5.971-5.346 12.668-5.346 20.076 0 7.408 1.78 14.138 5.346 20.188zm58.353-33.516l.002.003c2.25 3.94 3.379 8.377 3.379 13.325 0 4.948-1.129 9.418-3.38 13.438-2.252 3.94-5.345 7.03-9.286 9.29-3.938 2.18-8.374 3.27-13.321 3.27-4.947 0-9.384-1.09-13.322-3.27-3.94-2.26-7.033-5.35-9.285-9.29-2.252-4.02-3.381-8.49-3.381-13.438s1.13-9.385 3.38-13.325l.002-.003c2.252-4.015 5.345-7.107 9.281-9.288v.001l.006-.004c3.938-2.251 8.373-3.381 13.319-3.381 4.945 0 9.381 1.13 13.318 3.381h0l.006.003c3.937 2.181 7.029 5.273 9.282 9.288zm81.727 51.316l.149.22h16.296l-.551-.79-16.974-24.26c4.964-2.04 8.801-5.08 11.487-9.107 2.864-4.188 4.285-9.173 4.285-14.931 0-5.61-1.311-10.483-3.955-14.598-2.643-4.113-6.456-7.261-11.415-9.451-4.887-2.189-10.63-3.275-17.216-3.275h-31.51v76.412h14.998v-21.98h16.512c1.117 0 2.008-.03 2.664-.08l15.23 21.84zm18.611-63.842v.5h24.98v63.562h14.997v-63.562h24.98v-12.85h-64.957v12.35zm88.099 60.122h.004c6.253 3.34 13.262 5.01 21.017 5.01 7.754 0 14.764-1.67 21.016-5.01h.004c6.25-3.42 11.161-8.11 14.725-14.08 3.568-5.97 5.347-12.71 5.347-20.188 0-7.48-1.779-14.213-5.347-20.185-3.564-5.969-8.477-10.628-14.728-13.973-6.252-3.418-13.262-5.123-21.017-5.123-7.756 0-14.766 1.705-21.019 5.123-6.252 3.346-11.164 8.042-14.728 14.082-3.566 5.971-5.346 12.668-5.346 20.076 0 7.408 1.78 14.138 5.345 20.188h.002c3.564 5.97 8.476 10.66 14.725 14.08zm43.626-47.596l.002.003c2.251 3.94 3.38 8.377 3.38 13.325 0 4.948-1.129 9.418-3.38 13.438-2.252 3.94-5.345 7.03-9.285 9.29-3.939 2.18-8.375 3.27-13.322 3.27-4.947 0-9.384-1.09-13.322-3.27-3.94-2.26-7.033-5.35-9.286-9.29-2.251-4.02-3.38-8.49-3.38-13.438s1.13-9.385 3.38-13.325l.002-.003c2.252-4.015 5.344-7.107 9.281-9.288l.006-.003c3.938-2.251 8.373-3.381 13.319-3.381 4.945 0 9.38 1.13 13.318 3.381l.006.003c3.937 2.181 7.029 5.273 9.281 9.288zm77.167 51.326l.149.21h17.39l-.577-.8-28.104-38.701 26.166-36.117.575-.794h-16.419l-.15.211-18.653 26.253-18.865-26.255-.149-.209h-17.058l.567.792 26.277 36.656-27.782 38.164-.578.8h17.177l.149-.22 19.836-28.08 20.049 28.09zm-232.47-59.587c3.021 2.473 4.554 6.017 4.554 10.709 0 4.69-1.532 8.273-4.557 10.819-3.034 2.482-7.531 3.763-13.57 3.763h-15.866v-29.056h15.866c6.041 0 10.539 1.281 13.573 3.765z" stroke="#009B97" stroke-opacity=".15"/><path d="M74.801 1018.08h.002c3.989 6.68 9.486 11.94 16.481 15.77h.004c6.999 3.75 14.845 5.61 23.528 5.61 8.683 0 16.53-1.86 23.528-5.61h.004c6.996-3.83 12.493-9.09 16.482-15.77 3.992-6.68 5.984-14.22 5.984-22.598 0-8.377-1.992-15.915-5.984-22.601-3.989-6.682-9.487-11.898-16.484-15.644-6.998-3.828-14.846-5.737-23.53-5.737-8.684 0-16.53 1.909-23.53 5.737-6.997 3.746-12.495 9.004-16.484 15.766-3.991 6.685-5.984 14.182-5.984 22.479 0 8.298 1.993 15.838 5.983 22.598zm65.406-37.572l.002.003c2.527 4.427 3.796 9.414 3.796 14.971 0 5.558-1.268 10.588-3.797 15.098-2.53 4.43-6.005 7.9-10.431 10.43-4.424 2.45-9.407 3.68-14.961 3.68s-10.537-1.23-14.96-3.68c-4.427-2.53-7.901-6-10.431-10.43-2.529-4.51-3.797-9.54-3.797-15.098 0-5.557 1.268-10.544 3.796-14.971l.002-.003c2.53-4.511 6.004-7.986 10.427-10.436h0l.005-.004c4.424-2.529 9.406-3.799 14.958-3.799 5.553 0 10.535 1.27 14.958 3.799h0l.006.004c4.423 2.45 7.897 5.925 10.427 10.436zm91.601 57.532l.149.22h18.116l-.55-.79-19.068-27.26c5.588-2.29 9.902-5.69 12.918-10.221 3.202-4.684 4.792-10.261 4.792-16.706 0-6.281-1.468-11.733-4.424-16.335-2.955-4.6-7.219-8.123-12.768-10.573-5.468-2.451-11.896-3.667-19.272-3.667h-35.257v85.552h16.689v-24.64h18.568c1.272 0 2.28-.03 3.016-.1l17.091 24.52zm20.87-71.546v.5h27.999v71.266h16.689v-71.266h27.999v-14.286h-72.687v13.786zm98.714 67.356h.004c6.999 3.75 14.845 5.61 23.528 5.61 8.683 0 16.53-1.86 23.528-5.61h.004c6.996-3.83 12.493-9.09 16.482-15.77 3.992-6.68 5.984-14.22 5.984-22.598 0-8.377-1.992-15.915-5.984-22.601-3.989-6.682-9.487-11.898-16.483-15.644-6.999-3.828-14.847-5.737-23.531-5.737s-16.531 1.909-23.53 5.737c-6.998 3.747-12.496 9.004-16.485 15.767-3.991 6.685-5.983 14.182-5.983 22.478 0 8.298 1.993 15.838 5.983 22.598h.001c3.99 6.68 9.487 11.94 16.482 15.77zm48.923-53.342l.001.003c2.528 4.427 3.797 9.414 3.797 14.971 0 5.558-1.268 10.588-3.797 15.088-2.53 4.43-6.004 7.91-10.43 10.44-4.424 2.45-9.408 3.68-14.962 3.68s-10.537-1.23-14.96-3.68c-4.427-2.53-7.902-6.01-10.432-10.44-2.528-4.5-3.796-9.53-3.796-15.088 0-5.557 1.268-10.544 3.796-14.971l.002-.003c2.53-4.511 6.004-7.986 10.426-10.436l.006-.004c4.424-2.53 9.406-3.799 14.958-3.799 5.553 0 10.535 1.269 14.958 3.799l.006.004c4.423 2.45 7.896 5.925 10.427 10.436zm86.488 57.542l.149.21h19.341l-.576-.8-31.527-43.428 29.355-40.531.575-.793h-18.255l-.149.21-20.956 29.504-21.194-29.506-.15-.208h-18.97l.567.791 29.478 41.135-31.166 42.826-.577.8h19.102l.149-.22 22.283-31.55 22.521 31.56zm-260.574-66.821c3.403 2.786 5.127 6.779 5.127 12.054 0 5.273-1.724 9.309-5.13 12.177-3.416 2.795-8.472 4.232-15.249 4.232h-17.844v-32.698h17.844c6.779 0 11.836 1.438 15.252 4.235zM23.19 652.156v.002c3.299 5.522 7.845 9.865 13.628 13.026l.004.002c5.786 3.096 12.272 4.639 19.447 4.639 7.175 0 13.66-1.543 19.447-4.639l.004-.002c5.783-3.161 10.329-7.504 13.627-13.026 3.302-5.526 4.949-11.756 4.949-18.676 0-6.919-1.647-13.149-4.949-18.676-3.298-5.521-7.845-9.832-13.629-12.927-5.787-3.163-12.274-4.74-19.45-4.74-7.175 0-13.662 1.577-19.448 4.74-5.786 3.096-10.332 7.44-13.63 13.028-3.3 5.526-4.948 11.721-4.948 18.575 0 6.855 1.647 13.083 4.947 18.674zm53.944-30.974l.002.003c2.077 3.635 3.12 7.73 3.12 12.297s-1.043 8.696-3.12 12.399c-2.08 3.638-4.934 6.493-8.57 8.572-3.635 2.012-7.73 3.022-12.297 3.022s-8.662-1.01-12.297-3.022c-3.637-2.079-6.491-4.934-8.57-8.572-2.078-3.703-3.12-7.832-3.12-12.399 0-4.567 1.043-8.662 3.12-12.297l.001-.003c2.08-3.704 4.933-6.557 8.566-8.569h0l.006-.003c3.634-2.078 7.728-3.121 12.294-3.121 4.566 0 8.66 1.043 12.294 3.121h0l.006.003c3.633 2.012 6.486 4.865 8.565 8.569zm75.557 47.434l.149.214h15.157l-.55-.787-15.665-22.383c4.573-1.891 8.113-4.693 10.593-8.413 2.651-3.878 3.967-8.492 3.967-13.821 0-5.191-1.214-9.702-3.662-13.512-2.448-3.809-5.979-6.723-10.57-8.749-4.523-2.026-9.838-3.03-15.931-3.03h-29.167v70.695h13.94v-20.311h15.227c1.021 0 1.838-.024 2.445-.074l14.067 20.171zm17.198-59.029v.5h23.094v58.743h13.94v-58.743h23.093v-11.952h-60.127v11.452zm81.465 55.597l.004.002c5.786 3.096 12.273 4.639 19.447 4.639 7.175 0 13.661-1.543 19.447-4.639l.004-.002c5.783-3.161 10.329-7.504 13.628-13.026 3.301-5.526 4.948-11.756 4.948-18.676 0-6.919-1.647-13.149-4.948-18.676-3.299-5.521-7.845-9.832-13.629-12.927-5.787-3.163-12.274-4.74-19.45-4.74-7.175 0-13.662 1.577-19.449 4.74-5.785 3.095-10.331 7.44-13.63 13.028-3.301 5.525-4.947 11.721-4.947 18.575 0 6.855 1.647 13.083 4.946 18.674l.002.002c3.298 5.522 7.844 9.865 13.627 13.026zm40.317-44.002l.002.003c2.076 3.635 3.119 7.73 3.119 12.297 0 4.566-1.042 8.695-3.12 12.398-2.078 3.638-4.933 6.493-8.569 8.573-3.635 2.012-7.73 3.022-12.298 3.022-4.567 0-8.662-1.01-12.296-3.022-3.637-2.079-6.491-4.934-8.57-8.572-2.078-3.703-3.121-7.832-3.121-12.399 0-4.567 1.043-8.662 3.12-12.297l.002-.003c2.079-3.704 4.932-6.557 8.565-8.569l.006-.003c3.634-2.078 7.728-3.121 12.294-3.121 4.566 0 8.66 1.043 12.294 3.121l.006.003c3.633 2.012 6.487 4.865 8.566 8.569zm71.34 47.438l.15.21h16.169l-.576-.794-25.966-35.749 24.174-33.359.575-.793h-15.273l-.149.21-17.214 24.221-17.409-24.223-.15-.208H311.48l.567.791 24.276 33.857-25.667 35.252-.579.795h15.974l.149-.212 18.308-25.909 18.503 25.911zm-214.905-55.062c2.783 2.277 4.197 5.541 4.197 9.868 0 4.326-1.414 7.626-4.2 9.97-2.795 2.287-6.943 3.469-12.521 3.469h-14.63v-26.778h14.63c5.58 0 9.729 1.183 12.524 3.471z" stroke="#009B97" stroke-opacity=".15"/><path d="M299.753 619.908c-2.297-4.093-5.455-7.253-9.475-9.479-4.02-2.299-8.542-3.448-13.567-3.448s-9.547 1.149-13.567 3.448l36.609 9.479zm0 0c2.297 4.022 3.446 8.547 3.446 13.574 0 5.027-1.149 9.587-3.446 13.681v-27.255zM8.9 653.665l.001.002c3.565 5.968 8.476 10.662 14.726 14.079l.004.002c6.252 3.347 13.261 5.015 21.016 5.015 7.755 0 14.764-1.668 21.017-5.015l.004-.002c6.25-3.417 11.16-8.111 14.725-14.079 3.567-5.972 5.347-12.705 5.347-20.185 0-7.48-1.78-14.213-5.347-20.186-3.564-5.968-8.477-10.627-14.727-13.972-6.253-3.419-13.263-5.123-21.019-5.123-7.755 0-14.766 1.704-21.018 5.123-6.252 3.346-11.164 8.042-14.728 14.081-3.567 5.972-5.346 12.668-5.346 20.077 0 7.409 1.78 14.141 5.345 20.183zm58.353-33.512l.002.003c2.25 3.94 3.38 8.378 3.38 13.326 0 4.947-1.13 9.421-3.38 13.434-2.253 3.943-5.346 7.038-9.286 9.291-3.938 2.18-8.375 3.275-13.322 3.275-4.947 0-9.383-1.095-13.321-3.275-3.94-2.253-7.033-5.348-9.285-9.29-2.252-4.013-3.381-8.488-3.381-13.435 0-4.948 1.13-9.386 3.38-13.326l.001-.003c2.253-4.014 5.345-7.107 9.282-9.287h0l.006-.003c3.938-2.252 8.373-3.382 13.318-3.382 4.946 0 9.381 1.13 13.319 3.382h0l.006.003c3.936 2.18 7.029 5.273 9.281 9.287zm81.728 51.319l.149.214h16.295l-.55-.787-16.974-24.26c4.963-2.043 8.8-5.076 11.487-9.106 2.863-4.188 4.285-9.173 4.285-14.931 0-5.611-1.312-10.484-3.956-14.598-2.643-4.113-6.456-7.262-11.415-9.451-4.887-2.189-10.63-3.275-17.216-3.275H99.577v76.408h14.997V649.71h16.512c1.117 0 2.008-.027 2.665-.082l15.23 21.844zm18.61-63.844v.5h24.98v63.558h14.998v-63.558h24.98v-12.85h-64.958v12.35zm88.099 60.118l.004.002c6.253 3.346 13.262 5.015 21.017 5.015 7.755 0 14.764-1.669 21.017-5.015l.004-.002c6.249-3.417 11.161-8.111 14.725-14.079 3.567-5.972 5.347-12.705 5.347-20.185 0-7.48-1.78-14.213-5.347-20.186-3.565-5.968-8.477-10.627-14.728-13.973-6.253-3.418-13.263-5.122-21.018-5.122-7.756 0-14.766 1.704-21.018 5.123-6.252 3.346-11.164 8.042-14.729 14.081-3.566 5.972-5.345 12.668-5.345 20.077 0 7.409 1.779 14.141 5.345 20.183l.001.002c3.564 5.968 8.476 10.662 14.725 14.079zm43.627-47.593l.002.003c2.25 3.94 3.38 8.378 3.38 13.326 0 4.947-1.13 9.421-3.381 13.434-2.252 3.943-5.345 7.037-9.285 9.291-3.938 2.18-8.375 3.275-13.322 3.275-4.947 0-9.383-1.095-13.321-3.275-3.941-2.253-7.034-5.348-9.286-9.291-2.251-4.013-3.38-8.487-3.38-13.434 0-4.948 1.129-9.386 3.379-13.326l.002-.003c2.253-4.014 5.345-7.107 9.282-9.287l.005-.003c3.938-2.252 8.374-3.382 13.319-3.382s9.381 1.13 13.319 3.382l.006.003c3.936 2.18 7.028 5.273 9.281 9.287zm77.166 51.323l.15.21h17.389l-.576-.794-28.105-38.703 26.167-36.118.575-.793h-16.42l-.149.21-18.653 26.253-18.865-26.255-.15-.208h-17.058l.568.791 26.277 36.656-27.783 38.166-.578.795h17.177l.149-.212 19.837-28.08 20.048 28.082zm-232.47-59.583c3.022 2.473 4.555 6.017 4.555 10.709 0 4.69-1.533 8.273-4.557 10.818-3.035 2.483-7.532 3.763-13.571 3.763h-15.866v-29.055h15.866c6.041 0 10.539 1.281 13.573 3.765z" stroke="#009B97" stroke-opacity=".15"/><path d="M-13.968 656.081l.001.002c3.99 6.681 9.486 11.937 16.482 15.763l.004.003c6.998 3.746 14.845 5.615 23.528 5.615 8.683 0 16.53-1.869 23.528-5.615l.004-.003c6.995-3.826 12.492-9.082 16.482-15.763 3.992-6.686 5.984-14.224 5.984-22.601 0-8.377-1.992-15.915-5.984-22.601-3.99-6.682-9.488-11.898-16.484-15.644-6.999-3.828-14.846-5.737-23.53-5.737-8.684 0-16.531 1.909-23.53 5.737-6.998 3.746-12.496 9.004-16.485 15.766-3.991 6.685-5.983 14.182-5.983 22.479 0 8.297 1.992 15.834 5.983 22.599zm65.405-37.573l.002.003c2.528 4.427 3.796 9.414 3.796 14.971 0 5.556-1.268 10.584-3.797 15.093-2.53 4.43-6.004 7.908-10.43 10.44-4.424 2.45-9.407 3.679-14.961 3.679s-10.537-1.229-14.961-3.679c-4.426-2.532-7.9-6.01-10.43-10.44-2.53-4.509-3.798-9.537-3.798-15.093 0-5.557 1.269-10.544 3.797-14.971l.001-.003c2.53-4.511 6.004-7.986 10.427-10.436h0l.006-.004c4.423-2.529 9.405-3.799 14.958-3.799 5.552 0 10.534 1.27 14.958 3.799h0l.006.004c4.422 2.45 7.896 5.925 10.426 10.436zm91.601 57.534l.149.214h18.117l-.55-.787-19.069-27.263c5.588-2.287 9.903-5.691 12.919-10.217 3.201-4.684 4.792-10.261 4.792-16.706 0-6.281-1.468-11.733-4.424-16.335-2.955-4.6-7.219-8.123-12.768-10.573-5.469-2.451-11.897-3.667-19.272-3.667H87.675v85.548h16.689v-24.64h18.568c1.271 0 2.279-.031 3.016-.094l17.09 24.52zm20.871-71.548v.5h27.998v71.262h16.689v-71.262h27.999v-14.286h-72.686v13.786zm98.714 67.352l.004.003c6.998 3.746 14.845 5.615 23.528 5.615 8.683 0 16.529-1.869 23.528-5.615l.004-.003c6.995-3.826 12.492-9.082 16.481-15.763 3.993-6.686 5.985-14.224 5.985-22.601 0-8.377-1.992-15.915-5.985-22.601-3.989-6.682-9.486-11.898-16.483-15.644-6.999-3.828-14.846-5.737-23.53-5.737-8.685 0-16.532 1.909-23.531 5.737-6.998 3.747-12.495 9.004-16.484 15.767-3.991 6.685-5.983 14.182-5.983 22.478 0 8.297 1.992 15.834 5.983 22.599l.001.002c3.989 6.681 9.486 11.937 16.482 15.763zm48.922-53.338l.002.003c2.528 4.427 3.796 9.414 3.796 14.971 0 5.556-1.268 10.583-3.797 15.092-2.529 4.43-6.004 7.908-10.43 10.44-4.424 2.451-9.407 3.68-14.961 3.68s-10.537-1.229-14.961-3.679c-4.426-2.532-7.901-6.01-10.431-10.441-2.529-4.509-3.797-9.536-3.797-15.092 0-5.557 1.269-10.544 3.796-14.971l.002-.003c2.53-4.511 6.004-7.986 10.427-10.436l.006-.004c4.423-2.53 9.405-3.799 14.958-3.799 5.552 0 10.534 1.269 14.958 3.799l.006.004c4.422 2.45 7.896 5.925 10.426 10.436zm86.488 57.538l.15.21h19.341l-.577-.794-31.527-43.43 29.355-40.531.575-.793h-18.254l-.15.21-20.955 29.504-21.195-29.506-.149-.208h-18.971l.567.791 29.478 41.135-31.165 42.828-.578.794h19.103l.149-.212 22.282-31.553 22.521 31.555zm-260.574-66.817c3.403 2.786 5.127 6.779 5.127 12.054 0 5.273-1.723 9.309-5.13 12.177-3.415 2.795-8.472 4.232-15.248 4.232h-17.844v-32.698h17.844c6.778 0 11.835 1.438 15.251 4.235zM-58.36 46.156l.002.002c3.298 5.522 7.844 9.865 13.627 13.026l.004.002c5.786 3.096 12.272 4.64 19.447 4.64 7.175 0 13.66-1.544 19.447-4.64l.004-.002C-.046 56.023 4.5 51.68 7.798 46.158c3.302-5.526 4.949-11.756 4.949-18.676 0-6.92-1.647-13.15-4.949-18.676C4.5 3.285-.047-1.026-5.83-4.12c-5.786-3.163-12.273-4.74-19.449-4.74-7.176 0-13.663 1.577-19.45 4.74-5.785 3.096-10.33 7.44-13.629 13.028-3.3 5.525-4.948 11.721-4.948 18.575 0 6.855 1.648 13.083 4.947 18.674zm53.946-30.974l.001.003c2.077 3.635 3.12 7.73 3.12 12.297s-1.042 8.696-3.12 12.399c-2.08 3.638-4.934 6.493-8.57 8.572-3.635 2.012-7.73 3.022-12.297 3.022s-8.662-1.01-12.297-3.022c-3.637-2.08-6.49-4.934-8.57-8.572-2.078-3.703-3.12-7.832-3.12-12.399 0-4.567 1.043-8.662 3.12-12.297l.001-.003c2.08-3.704 4.933-6.557 8.566-8.569h0l.006-.003c3.634-2.078 7.728-3.12 12.294-3.12 4.566 0 8.66 1.042 12.294 3.12h0l.006.003c3.633 2.012 6.487 4.865 8.566 8.569zm75.556 47.434l.15.214h15.156l-.55-.787L70.233 39.66c4.573-1.891 8.113-4.693 10.593-8.413 2.652-3.878 3.968-8.492 3.968-13.82 0-5.192-1.215-9.703-3.663-13.513C78.683.105 75.152-2.81 70.56-4.835c-4.523-2.026-9.838-3.03-15.93-3.03H25.463V62.83h13.94V42.519h15.228a31.4 31.4 0 002.444-.074l14.067 20.17zm17.199-59.03v.5h23.093V62.83h13.94V4.087h23.093V-7.865H88.34V3.587zm81.464 55.598l.004.002c5.787 3.096 12.273 4.64 19.447 4.64 7.175 0 13.661-1.544 19.448-4.64l.003-.002c5.784-3.161 10.329-7.504 13.628-13.026 3.301-5.526 4.948-11.756 4.948-18.676 0-6.92-1.647-13.15-4.948-18.676-3.299-5.521-7.845-9.832-13.629-12.927-5.787-3.163-12.274-4.74-19.45-4.74-7.175 0-13.662 1.577-19.448 4.74-5.786 3.095-10.332 7.44-13.631 13.028-3.3 5.525-4.947 11.721-4.947 18.575 0 6.855 1.647 13.083 4.947 18.674l.001.002c3.299 5.522 7.844 9.865 13.627 13.026zm40.317-44.002l.002.003c2.077 3.635 3.119 7.73 3.119 12.297 0 4.566-1.042 8.695-3.12 12.398-2.078 3.638-4.933 6.493-8.569 8.573-3.635 2.011-7.73 3.022-12.298 3.022-4.567 0-8.662-1.01-12.296-3.022-3.637-2.079-6.491-4.934-8.57-8.572-2.078-3.703-3.121-7.832-3.121-12.399 0-4.567 1.043-8.662 3.12-12.297l.002-.003c2.079-3.704 4.932-6.557 8.566-8.569l.005-.003c3.635-2.078 7.729-3.12 12.294-3.12 4.566 0 8.66 1.042 12.294 3.12l.006.003c3.633 2.012 6.487 4.865 8.566 8.569zm71.34 47.438l.15.21h16.169l-.576-.794-25.966-35.749 24.174-33.359.575-.793h-15.273l-.149.21-17.214 24.221-17.409-24.223-.15-.208h-15.862l.567.791 24.277 33.857-25.668 35.252-.578.795h15.973l.149-.212 18.308-25.909 18.503 25.911zM66.557 7.558c2.783 2.277 4.197 5.541 4.197 9.868 0 4.326-1.413 7.626-4.2 9.97-2.795 2.287-6.942 3.47-12.52 3.47h-14.63V4.085h14.63c5.58 0 9.728 1.184 12.523 3.472z" stroke="#009B97" stroke-opacity=".15"/><path d="M218.202 13.908c-2.297-4.094-5.455-7.254-9.475-9.48-4.02-2.298-8.542-3.447-13.567-3.447-5.024 0-9.547 1.149-13.566 3.447l36.608 9.48zm0 0c2.297 4.022 3.446 8.546 3.446 13.573 0 5.027-1.149 9.588-3.446 13.681V13.908zM-72.651 47.665l.002.002c3.564 5.968 8.475 10.662 14.725 14.079l.004.002c6.252 3.346 13.262 5.015 21.017 5.015 7.754 0 14.763-1.669 21.016-5.015l.004-.002c6.25-3.417 11.161-8.111 14.725-14.08C2.41 41.695 4.19 34.962 4.19 27.482S2.41 13.269-1.157 7.297C-4.722 1.328-9.634-3.331-15.885-6.677c-6.253-3.418-13.263-5.123-21.019-5.123-7.755 0-14.765 1.705-21.018 5.124-6.252 3.346-11.164 8.041-14.728 14.08-3.566 5.972-5.346 12.669-5.346 20.077 0 7.41 1.78 14.141 5.345 20.184zm58.353-33.512l.002.003c2.25 3.94 3.38 8.377 3.38 13.325 0 4.947-1.13 9.422-3.38 13.435-2.253 3.943-5.346 7.037-9.286 9.29-3.938 2.18-8.375 3.276-13.322 3.276-4.946 0-9.383-1.095-13.321-3.276-3.94-2.253-7.033-5.347-9.285-9.29-2.252-4.013-3.381-8.487-3.381-13.435s1.13-9.385 3.38-13.325l.002-.003c2.252-4.015 5.344-7.107 9.281-9.288h0l.006-.003c3.938-2.251 8.373-3.381 13.319-3.381 4.945 0 9.38 1.13 13.318 3.381h0l.006.003c3.937 2.18 7.029 5.273 9.281 9.288zM67.43 65.47l.15.214h16.294l-.55-.787-16.974-24.26c4.963-2.043 8.8-5.076 11.487-9.106 2.863-4.188 4.285-9.172 4.285-14.931 0-5.61-1.312-10.483-3.956-14.598-2.642-4.113-6.455-7.261-11.415-9.45-4.887-2.19-10.63-3.276-17.215-3.276h-31.51v76.408h14.997V43.71h16.513c1.117 0 2.007-.026 2.664-.082l15.23 21.844zM86.04 1.627v.5h24.981v63.558h14.997V2.127h24.98v-12.85H86.041v12.35zm88.1 60.119l.004.002c6.252 3.346 13.262 5.014 21.016 5.014 7.755 0 14.764-1.668 21.017-5.014l.004-.002c6.249-3.417 11.161-8.111 14.725-14.08 3.567-5.972 5.347-12.705 5.347-20.185 0-7.48-1.78-14.213-5.347-20.185-3.565-5.969-8.477-10.628-14.728-13.973-6.253-3.418-13.262-5.123-21.018-5.123-7.755 0-14.765 1.705-21.018 5.123-6.252 3.346-11.164 8.042-14.728 14.082-3.567 5.971-5.346 12.668-5.346 20.076 0 7.41 1.78 14.141 5.345 20.184l.001.002c3.565 5.968 8.476 10.662 14.726 14.079zm43.626-47.593l.002.003c2.25 3.94 3.38 8.377 3.38 13.325 0 4.947-1.129 9.422-3.381 13.434-2.252 3.943-5.344 7.038-9.285 9.291-3.938 2.18-8.375 3.276-13.322 3.276-4.946 0-9.383-1.095-13.321-3.275-3.941-2.254-7.034-5.349-9.286-9.292-2.251-4.012-3.38-8.487-3.38-13.434 0-4.948 1.129-9.385 3.38-13.325l.001-.003c2.253-4.015 5.345-7.107 9.282-9.288l.006-.003c3.938-2.251 8.373-3.381 13.318-3.381 4.946 0 9.381 1.13 13.319 3.381l.006.003c3.936 2.18 7.029 5.273 9.281 9.288zm77.167 51.323l.149.21h17.389l-.576-.795-28.105-38.703 26.167-36.117.575-.794h-16.42l-.149.21-18.653 26.254-18.865-26.255-.15-.209h-17.057l.567.792 26.277 36.656L238.3 64.89l-.579.794h17.177l.15-.211 19.836-28.08 20.049 28.082zM62.463 5.892c3.02 2.473 4.554 6.017 4.554 10.709 0 4.69-1.532 8.273-4.557 10.819-3.034 2.482-7.531 3.763-13.57 3.763H33.023V2.127H48.89c6.04 0 10.538 1.282 13.573 3.765z" stroke="#009B97" stroke-opacity=".15"/><path d="M-95.517 50.08l.001.003c3.99 6.681 9.487 11.937 16.482 15.763l.004.003c6.999 3.746 14.845 5.615 23.528 5.615 8.683 0 16.53-1.869 23.528-5.615l.004-.003c6.995-3.826 12.492-9.082 16.482-15.763 3.992-6.686 5.984-14.224 5.984-22.601 0-8.377-1.992-15.915-5.984-22.601-3.99-6.682-9.487-11.898-16.484-15.644-6.999-3.828-14.846-5.737-23.53-5.737-8.684 0-16.531 1.91-23.53 5.737-6.998 3.747-12.495 9.004-16.484 15.766-3.992 6.685-5.984 14.182-5.984 22.479 0 8.297 1.992 15.834 5.983 22.599zm65.405-37.572l.002.003c2.528 4.428 3.796 9.414 3.796 14.97 0 5.557-1.268 10.585-3.797 15.094-2.53 4.43-6.004 7.908-10.43 10.44-4.424 2.45-9.407 3.68-14.961 3.68s-10.537-1.23-14.96-3.68c-4.427-2.532-7.902-6.01-10.431-10.44-2.53-4.51-3.797-9.537-3.797-15.093 0-5.557 1.268-10.543 3.796-14.97l.002-.004c2.53-4.51 6.004-7.986 10.426-10.436h0l.006-.004c4.424-2.53 9.405-3.799 14.958-3.799 5.553 0 10.534 1.27 14.958 3.8h0l.006.003c4.422 2.45 7.896 5.925 10.426 10.436zM61.49 70.042l.15.214h18.115l-.55-.787-19.069-27.263c5.588-2.287 9.903-5.69 12.919-10.217 3.201-4.684 4.792-10.26 4.792-16.706 0-6.28-1.468-11.733-4.424-16.335-2.955-4.6-7.219-8.123-12.768-10.573-5.468-2.45-11.897-3.667-19.272-3.667H6.126v85.548h16.689v-24.64h18.568c1.271 0 2.28-.03 3.016-.094l17.09 24.52zM82.36-1.506v.5h28v71.262h16.689V-1.006h27.998v-14.286H82.36v13.786zm98.715 67.352l.004.002c6.998 3.747 14.845 5.616 23.528 5.616 8.683 0 16.529-1.869 23.528-5.615l.004-.003c6.995-3.826 12.492-9.082 16.482-15.763 3.992-6.686 5.984-14.224 5.984-22.601 0-8.377-1.992-15.915-5.984-22.601-3.99-6.682-9.487-11.898-16.484-15.644-6.999-3.828-14.846-5.737-23.53-5.737-8.684 0-16.532 1.91-23.531 5.737-6.998 3.747-12.495 9.004-16.484 15.767-3.991 6.685-5.983 14.182-5.983 22.478 0 8.297 1.992 15.834 5.983 22.599l.001.002c3.989 6.681 9.486 11.937 16.482 15.763zm48.922-53.338l.002.003c2.528 4.427 3.796 9.414 3.796 14.97 0 5.557-1.268 10.584-3.796 15.093-2.53 4.43-6.005 7.908-10.431 10.44-4.424 2.45-9.407 3.68-14.961 3.68s-10.537-1.23-14.961-3.68c-4.426-2.531-7.901-6.01-10.431-10.44-2.529-4.509-3.797-9.536-3.797-15.092 0-5.557 1.269-10.544 3.797-14.97l.001-.004c2.531-4.51 6.004-7.986 10.427-10.436l.006-.004c4.423-2.53 9.405-3.799 14.958-3.799 5.552 0 10.534 1.27 14.958 3.8l.006.003c4.422 2.45 7.896 5.925 10.426 10.436zm86.488 57.538l.15.21h19.34l-.576-.794-31.527-43.43 29.355-40.531.574-.793h-18.254l-.149.21-20.956 29.505-21.194-29.507-.15-.208h-18.971l.567.791 29.479 41.135-31.166 42.828-.578.794h19.103l.149-.212 22.282-31.553 22.521 31.555zM55.911 3.23c3.402 2.786 5.126 6.779 5.126 12.054 0 5.273-1.723 9.309-5.13 12.177-3.415 2.795-8.472 4.232-15.248 4.232H22.815V-1.006h17.844c6.778 0 11.836 1.438 15.252 4.235z" stroke="#009B97" stroke-opacity=".15"/></svg>