<svg width="1200" height="592" viewBox="0 0 1200 592" fill="none" xmlns="http://www.w3.org/2000/svg">
<path d="M-220.208 526.726L-220.206 526.728C-211.31 541.62 -199.052 553.335 -183.444 561.867L-183.44 561.869C-167.828 570.221 -150.318 574.393 -130.918 574.393C-111.519 574.393 -94.0086 570.221 -78.3969 561.869L-78.393 561.867C-62.7846 553.334 -50.5274 541.62 -41.6307 526.728C-32.731 511.832 -28.2853 495.031 -28.2853 476.341C-28.2853 457.651 -32.731 440.851 -41.6307 425.954C-50.5276 411.062 -62.7856 399.438 -78.3953 391.086C-94.0071 382.552 -111.519 378.29 -130.919 378.29C-150.319 378.29 -167.83 382.552 -183.442 391.086C-199.053 399.438 -211.311 411.154 -220.207 426.227C-229.106 441.122 -233.552 457.832 -233.552 476.341C-233.552 494.852 -229.106 511.651 -220.208 526.726ZM-73.3797 442.443L-73.3778 442.446C-67.6452 452.481 -64.7746 463.775 -64.7745 476.341C-64.7745 488.906 -67.6446 500.291 -73.378 510.508C-79.1126 520.546 -86.9941 528.429 -97.0292 534.166C-107.061 539.72 -118.354 542.502 -130.919 542.502C-143.483 542.502 -154.776 539.72 -164.808 534.166C-174.843 528.429 -182.724 520.546 -188.459 510.508C-194.192 500.292 -197.062 488.907 -197.062 476.341C-197.062 463.775 -194.192 452.481 -188.459 442.446L-188.457 442.443C-182.722 432.225 -174.842 424.344 -164.811 418.79L-164.805 418.787C-154.773 413.053 -143.482 410.181 -130.919 410.181C-118.355 410.181 -107.064 413.053 -97.0319 418.787L-97.026 418.79C-86.9951 424.344 -79.1147 432.225 -73.3797 442.443ZM132.212 571.469L132.361 571.683L132.622 571.683L170.55 571.683L171.51 571.683L170.959 570.896L127.707 509.092C140.503 503.999 150.326 496.34 157.148 486.104C164.255 475.713 167.799 463.328 167.799 448.973C167.799 434.982 164.528 422.872 157.967 412.663C151.406 402.454 141.934 394.626 129.574 389.172C117.396 383.718 103.056 381 86.5675 381L8.5453 381L8.0453 381L8.0453 381.5L8.04534 571.183L8.04534 571.683L8.54534 571.683L43.7637 571.683L44.2637 571.683L44.2637 571.183L44.2637 516.404L86.5675 516.404C89.6335 516.404 91.9947 516.324 93.6408 516.161L132.212 571.469ZM179.174 411.307L179.174 411.807L179.674 411.807L242.025 411.807L242.025 571.183L242.025 571.683L242.525 571.683L277.744 571.683L278.244 571.683L278.244 571.183L278.244 411.807L340.595 411.807L341.095 411.807L341.095 411.307L341.095 381.5L341.095 381L340.595 381L179.674 381L179.174 381L179.174 381.5L179.174 411.307ZM400.442 561.867L400.446 561.869C416.058 570.221 433.568 574.393 452.968 574.393C472.367 574.393 489.877 570.221 505.489 561.869L505.493 561.867C521.101 553.334 533.359 541.62 542.255 526.728C551.155 511.831 555.601 495.031 555.601 476.341C555.601 457.651 551.155 440.851 542.255 425.954C533.358 411.061 521.099 399.437 505.489 391.085C489.878 382.552 472.367 378.29 452.968 378.29C433.567 378.29 416.056 382.552 400.444 391.086C384.833 399.438 372.576 411.153 363.68 426.225C354.78 441.121 350.334 457.831 350.334 476.341C350.334 494.852 354.78 511.651 363.678 526.726L363.68 526.728C372.576 541.62 384.834 553.334 400.442 561.867ZM510.506 442.443L510.508 442.446C516.241 452.481 519.111 463.775 519.111 476.341C519.111 488.907 516.241 500.294 510.506 510.511C504.772 520.547 496.891 528.43 486.857 534.166C476.825 539.72 465.532 542.501 452.968 542.501C440.403 542.501 429.11 539.72 419.078 534.166C409.043 528.429 401.161 520.545 395.427 510.507C389.694 500.291 386.824 488.906 386.824 476.341C386.824 463.775 389.694 452.481 395.427 442.446L395.429 442.443C401.164 432.225 409.044 424.344 419.075 418.79L419.081 418.787C429.113 413.053 440.404 410.181 452.968 410.181C465.531 410.181 476.822 413.053 486.854 418.787L486.86 418.79C496.891 424.344 504.771 432.225 510.506 442.443ZM704.617 571.474L704.767 571.683L705.024 571.683L745.661 571.683L746.642 571.683L746.065 570.889L675.029 473.089L741.189 381.793L741.764 381L740.784 381L702.586 381L702.328 381L702.178 381.21L654.633 448.113L606.548 381.208L606.398 381L606.142 381L566.318 381L565.344 381L565.912 381.791L632.345 474.442L562.121 570.889L561.543 571.683L562.525 571.683L602.62 571.683L602.879 571.683L603.028 571.472L653.553 499.967L704.617 571.474ZM119.573 421.449C127.382 427.84 131.31 436.989 131.31 448.973C131.31 460.954 127.383 470.196 119.571 476.769C111.748 483.17 100.232 486.409 84.942 486.409L44.2637 486.409L44.2636 411.807L84.942 411.807C100.233 411.807 111.75 415.047 119.573 421.449Z" stroke="#009B97" stroke-opacity="0.15"/>
<path d="M-259.104 530.834L-259.102 530.836C-249.483 546.943 -236.229 559.612 -219.352 568.84L-219.348 568.842C-202.467 577.876 -183.533 582.388 -162.555 582.388C-141.577 582.388 -122.642 577.876 -105.761 568.842L-105.757 568.84C-88.8801 559.612 -75.6269 546.943 -66.0072 530.836C-56.3845 514.725 -51.5773 496.556 -51.5773 476.34C-51.5773 456.125 -56.3845 437.955 -66.0072 421.844C-75.6272 405.738 -88.8811 393.166 -105.76 384.133C-122.64 374.903 -141.576 370.293 -162.555 370.293C-183.534 370.293 -202.469 374.903 -219.35 384.133C-236.23 393.166 -249.484 405.837 -259.103 422.139C-268.725 438.249 -273.532 456.32 -273.532 476.34C-273.532 496.361 -268.725 514.53 -259.104 530.834ZM-100.279 439.643L-100.278 439.647C-94.0728 450.511 -90.966 462.738 -90.966 476.34C-90.966 489.942 -94.0724 502.268 -100.278 513.328C-106.485 524.195 -115.016 532.73 -125.876 538.94C-136.735 544.953 -148.957 547.964 -162.555 547.964C-176.152 547.964 -188.374 544.953 -199.233 538.94C-210.094 532.73 -218.624 524.195 -224.831 513.329C-231.037 502.268 -234.143 489.942 -234.143 476.34C-234.143 462.738 -231.037 450.511 -224.832 439.647L-224.83 439.643C-218.623 428.582 -210.093 420.049 -199.236 414.036L-199.23 414.032C-188.372 407.825 -176.151 404.716 -162.555 404.716C-148.959 404.716 -136.738 407.825 -125.879 414.032L-125.874 414.036C-115.016 420.049 -106.487 428.581 -100.279 439.643ZM122.107 579.242L122.256 579.456L122.517 579.456L163.543 579.456L164.503 579.456L163.953 578.669L117.137 511.756C130.995 506.249 141.629 497.961 149.012 486.882C156.695 475.647 160.527 462.255 160.527 446.728C160.527 431.598 156.99 418.503 149.898 407.464C142.806 396.427 132.567 387.963 119.205 382.064C106.038 376.166 90.5317 373.225 72.6997 373.225L-11.6968 373.225L-12.1968 373.225L-12.1968 373.725L-12.1968 578.956L-12.1968 579.456L-11.6968 579.456L26.3989 579.456L26.8989 579.456L26.8989 578.956L26.8989 519.646L72.6997 519.646C76.0307 519.646 78.5912 519.558 80.3707 519.381L122.107 579.242ZM172.913 405.975L172.913 406.475L173.413 406.475L240.899 406.475L240.899 578.956L240.899 579.456L241.399 579.456L279.495 579.456L279.995 579.456L279.995 578.956L279.995 406.475L347.481 406.475L347.981 406.475L347.981 405.975L347.981 373.725L347.981 373.225L347.481 373.225L173.413 373.225L172.913 373.225L172.913 373.725L172.913 405.975ZM372.485 530.834L372.487 530.836C382.107 546.943 395.36 559.612 412.237 568.84L412.241 568.842C429.122 577.876 448.056 582.388 469.034 582.388C490.012 582.388 508.947 577.876 525.828 568.842L525.832 568.84C542.709 559.612 555.962 546.942 565.582 530.836C575.205 514.725 580.012 496.555 580.012 476.34C580.012 456.125 575.205 437.955 565.582 421.844C555.962 405.738 542.708 393.166 525.83 384.133C508.949 374.903 490.013 370.293 469.034 370.293C448.055 370.293 429.12 374.903 412.239 384.133C395.359 393.167 382.105 405.838 372.485 422.14C362.864 438.25 358.057 456.321 358.057 476.34C358.057 496.361 362.865 514.529 372.485 530.834ZM531.31 439.643L531.312 439.647C537.516 450.51 540.623 462.738 540.623 476.34C540.623 489.943 537.516 502.269 531.31 513.33C525.103 524.196 516.573 532.73 505.712 538.94C494.854 544.953 482.632 547.964 469.034 547.964C455.437 547.964 443.215 544.953 432.356 538.94C421.495 532.73 412.964 524.194 406.757 513.327C400.552 502.267 397.446 489.942 397.446 476.34C397.446 462.738 400.552 450.51 406.757 439.647L406.759 439.643C412.966 428.581 421.496 420.049 432.353 414.036L432.359 414.032C443.217 407.824 455.438 404.716 469.034 404.716C482.63 404.716 494.851 407.824 505.71 414.032L505.716 414.036C516.573 420.049 525.102 428.581 531.31 439.643ZM741.277 579.246L741.427 579.456L741.684 579.456L785.641 579.456L786.621 579.456L786.045 578.662L709.188 472.822L780.771 374.018L781.345 373.225L780.366 373.225L739.047 373.225L738.788 373.225L738.639 373.435L687.176 445.868L635.129 373.433L634.979 373.225L634.723 373.225L591.646 373.225L590.672 373.225L591.239 374.016L663.118 474.286L587.139 578.662L586.561 579.456L587.543 579.456L630.914 579.456L631.173 579.456L631.322 579.244L686.008 501.832L741.277 579.246ZM108.427 416.917C116.886 423.841 121.138 433.753 121.138 446.728C121.138 459.702 116.887 469.714 108.425 476.835C99.9537 483.768 87.4855 487.275 70.9415 487.275L26.8989 487.275L26.8988 406.475L70.9414 406.475C87.4868 406.475 99.9557 409.982 108.427 416.917Z" stroke="#009B97" stroke-opacity="0.15"/>
<path d="M102.611 370.692C87.8625 364.083 70.4918 360.787 50.5122 360.787L-44.0833 360.787L-44.5833 360.787L-44.5833 361.287L-44.5833 591.395L-44.5833 591.895L-44.0833 591.895L-1.38393 591.895L-0.883931 591.895L-0.883931 591.395L-0.883943 524.835L50.5122 524.835C54.2674 524.835 57.1466 524.736 59.1393 524.534L105.94 591.681L106.089 591.895L102.408 371.149M102.611 370.692C102.612 370.692 102.612 370.692 102.613 370.693L102.408 371.149M102.611 370.692C102.611 370.692 102.611 370.692 102.61 370.692L102.408 371.149M102.611 370.692C117.58 377.301 129.047 386.785 136.989 399.149C144.931 411.514 148.892 426.185 148.892 443.14C148.892 460.537 144.6 475.541 135.997 488.127M102.408 371.149C117.298 377.723 128.685 387.147 136.568 399.419C144.451 411.692 148.392 426.265 148.392 443.14C148.392 460.453 144.122 475.355 135.583 487.846M135.997 488.127C135.997 488.126 135.998 488.125 135.999 488.124L135.583 487.846M135.997 488.127C135.996 488.127 135.996 488.128 135.995 488.129L135.583 487.846M135.997 488.127L135.583 487.846M152.334 591.395L151.924 591.681L151.724 591.395L152.334 591.395ZM152.334 591.395L152.334 590.895L151.984 590.895L152.334 591.395ZM-321.336 537.409L-321.335 537.412C-310.558 555.46 -295.712 569.658 -276.804 579.999L-276.8 580.002C-257.889 590.125 -236.676 595.182 -213.172 595.182C-189.668 595.182 -168.455 590.125 -149.544 580.002L-149.54 579.999C-130.632 569.658 -115.785 555.46 -105.009 537.412C-94.2292 519.358 -88.8436 498.996 -88.8436 476.341C-88.8436 453.686 -94.2292 433.324 -105.009 415.271C-115.785 397.221 -130.633 383.133 -149.541 373.011C-168.453 362.667 -189.667 357.5 -213.172 357.5C-236.677 357.5 -257.891 362.667 -276.802 373.01C-295.712 383.134 -310.559 397.332 -321.336 415.6C-332.114 433.653 -337.5 453.904 -337.5 476.341C-337.5 498.778 -332.114 519.138 -321.336 537.409ZM-143.318 435.166L-143.316 435.17C-136.356 447.36 -132.871 461.08 -132.871 476.341C-132.871 491.601 -136.356 505.431 -143.317 517.843C-150.279 530.036 -159.848 539.613 -172.031 546.581C-184.212 553.329 -197.922 556.707 -213.172 556.707C-228.422 556.707 -242.131 553.329 -254.312 546.581C-266.495 539.613 -276.064 530.036 -283.026 517.843C-289.988 505.432 -293.472 491.602 -293.472 476.341C-293.472 461.08 -289.988 447.36 -283.027 435.17L-283.025 435.166C-276.063 422.754 -266.494 413.179 -254.315 406.431L-254.309 406.428C-242.129 399.462 -228.42 395.975 -213.172 395.975C-197.923 395.975 -184.215 399.462 -172.035 406.428L-172.029 406.431C-159.849 413.179 -150.281 422.754 -143.318 435.166ZM99.7473 516.21L99.4523 515.788C99.6123 515.726 99.7719 515.663 99.9311 515.6L100.226 516.021C100.067 516.084 99.9071 516.147 99.7473 516.21ZM162.896 397.447L162.896 397.947L163.396 397.947L239.098 397.947L239.098 591.395L239.098 591.895L239.598 591.895L282.298 591.895L282.798 591.895L282.798 591.395L282.797 397.947L358.499 397.947L358.999 397.947L358.999 397.447L358.999 361.287L358.999 360.787L358.499 360.787L163.396 360.787L162.896 360.787L162.896 361.287L162.896 397.447ZM386.578 537.409L386.579 537.411C397.356 555.46 412.202 569.658 431.11 579.999L431.114 580.001C450.025 590.125 471.238 595.182 494.742 595.182C518.246 595.182 539.459 590.125 558.37 580.001L558.374 579.999C577.282 569.658 592.129 555.46 602.905 537.411C613.685 519.357 619.071 498.996 619.071 476.341C619.071 453.686 613.685 433.324 602.905 415.27C592.129 397.221 577.281 383.133 558.373 373.01C539.461 362.667 518.247 357.5 494.742 357.5C471.237 357.5 450.023 362.667 431.112 373.01C412.202 383.134 397.354 397.333 386.578 415.601C375.8 433.654 370.414 453.905 370.414 476.341C370.414 498.778 375.8 519.138 386.578 537.409ZM564.596 435.166L564.598 435.169C571.558 447.36 575.043 461.08 575.043 476.341C575.043 491.602 571.558 505.433 564.596 517.844C557.634 530.037 548.065 539.614 535.882 546.581C523.702 553.329 509.992 556.707 494.742 556.707C479.492 556.707 465.783 553.329 453.602 546.581C441.419 539.613 431.849 530.035 424.887 517.841C417.926 505.43 414.442 491.601 414.442 476.341C414.442 461.08 417.926 447.36 424.887 435.169L424.889 435.166C431.851 422.754 441.42 413.179 453.599 406.431L453.605 406.428C465.785 399.462 479.494 395.975 494.742 395.975C509.991 395.975 523.699 399.462 535.88 406.428L535.886 406.431C548.065 413.179 557.633 422.754 564.596 435.166ZM799.934 591.685L800.083 591.895L800.34 591.895L849.609 591.895L850.59 591.895L850.014 591.101L763.842 472.396L844.102 361.58L844.676 360.787L843.697 360.787L797.384 360.787L797.126 360.787L796.977 360.998L739.245 442.279L680.86 360.995L680.71 360.787L680.454 360.787L632.171 360.787L631.197 360.787L631.764 361.578L712.354 474.038L627.168 591.1L626.59 591.895L627.572 591.895L676.184 591.895L676.443 591.895L676.592 591.683L737.936 504.818L799.934 591.685ZM90.5956 409.668C100.093 417.445 104.865 428.577 104.865 443.14C104.865 457.701 100.094 468.945 90.5939 476.942C81.0835 484.728 67.0924 488.661 48.5415 488.661L-0.883949 488.661L-0.883965 397.947L48.5414 397.947C67.0935 397.947 81.0851 401.88 90.5956 409.668Z" stroke="#009B97" stroke-opacity="0.15"/>
<path d="M476.792 169.726L476.794 169.728C485.69 184.62 497.948 196.334 513.556 204.866L513.56 204.869C529.172 213.221 546.682 217.393 566.082 217.393C585.481 217.393 602.991 213.221 618.603 204.869L618.607 204.866C634.215 196.334 646.473 184.62 655.369 169.728C664.269 154.831 668.715 138.031 668.715 119.341C668.715 100.651 664.269 83.8511 655.369 68.9542C646.472 54.0617 634.214 42.4374 618.605 34.0857C602.993 25.5521 585.481 21.2898 566.081 21.2898C546.681 21.2898 529.17 25.5522 513.558 34.0859C497.947 42.4382 485.689 54.1536 476.793 69.2263C467.894 84.1222 463.448 100.831 463.448 119.341C463.448 137.852 467.894 154.65 476.792 169.726ZM623.62 85.4429L623.622 85.4462C629.355 95.4808 632.225 106.775 632.225 119.341C632.225 131.906 629.355 143.291 623.622 153.507C617.887 163.545 610.006 171.429 599.971 177.165C589.939 182.72 578.646 185.501 566.081 185.501C553.517 185.501 542.224 182.72 532.192 177.165C522.157 171.429 514.276 163.546 508.541 153.508C502.808 143.292 499.938 131.906 499.938 119.341C499.938 106.775 502.808 95.4808 508.541 85.4463L508.543 85.4429C514.278 75.225 522.158 67.3439 532.189 61.7898L532.195 61.7864C542.227 56.0524 553.518 53.1811 566.081 53.1811C578.645 53.1811 589.936 56.0524 599.968 61.7864L599.974 61.7897C610.005 67.3439 617.885 75.225 623.62 85.4429ZM829.212 214.469L829.361 214.683L829.622 214.683L867.55 214.683L868.51 214.683L867.959 213.896L824.707 152.091C837.503 146.999 847.326 139.339 854.148 129.104C861.255 118.713 864.799 106.328 864.799 91.9725C864.799 77.982 861.528 65.8715 854.967 55.6624C848.406 45.4542 838.934 37.6259 826.574 32.1716C814.396 26.7178 800.056 23.9995 783.568 23.9995L705.545 23.9995L705.045 23.9995L705.045 24.4995L705.045 214.183L705.045 214.683L705.545 214.683L740.764 214.683L741.264 214.683L741.264 214.183L741.264 159.404L783.568 159.404C786.633 159.404 788.995 159.324 790.641 159.161L829.212 214.469ZM876.174 54.3069L876.174 54.8069L876.674 54.8069L939.025 54.8069L939.025 214.183L939.025 214.683L939.525 214.683L974.744 214.683L975.244 214.683L975.244 214.183L975.244 54.8068L1037.59 54.8068L1038.09 54.8068L1038.09 54.3068L1038.09 24.4995L1038.09 23.9995L1037.59 23.9995L876.674 23.9995L876.174 23.9995L876.174 24.4995L876.174 54.3069ZM1097.44 204.866L1097.45 204.869C1113.06 213.221 1130.57 217.393 1149.97 217.393C1169.37 217.393 1186.88 213.221 1202.49 204.869L1202.49 204.866C1218.1 196.334 1230.36 184.62 1239.26 169.728C1248.15 154.831 1252.6 138.031 1252.6 119.341C1252.6 100.651 1248.15 83.851 1239.26 68.9541C1230.36 54.0611 1218.1 42.4365 1202.49 34.0847C1186.88 25.5517 1169.37 21.2897 1149.97 21.2897C1130.57 21.2897 1113.06 25.5521 1097.44 34.086C1081.83 42.4381 1069.58 54.153 1060.68 69.2251C1051.78 84.1212 1047.33 100.831 1047.33 119.341C1047.33 137.851 1051.78 154.65 1060.68 169.726L1060.68 169.728C1069.58 184.62 1081.83 196.334 1097.44 204.866ZM1207.51 85.4428L1207.51 85.4461C1213.24 95.4807 1216.11 106.775 1216.11 119.341C1216.11 131.907 1213.24 143.293 1207.51 153.51C1201.77 163.547 1193.89 171.43 1183.86 177.165C1173.82 182.72 1162.53 185.501 1149.97 185.501C1137.4 185.501 1126.11 182.719 1116.08 177.165C1106.04 171.429 1098.16 163.545 1092.43 153.507C1086.69 143.291 1083.82 131.906 1083.82 119.341C1083.82 106.775 1086.69 95.4807 1092.43 85.4461L1092.43 85.4428C1098.16 75.2249 1106.04 67.3438 1116.08 61.7897L1116.08 61.7863C1126.11 56.0523 1137.4 53.181 1149.97 53.181C1162.53 53.181 1173.82 56.0523 1183.85 61.7863L1183.86 61.7896C1193.89 67.3438 1201.77 75.2249 1207.51 85.4428ZM1401.62 214.473L1401.77 214.683L1402.02 214.683L1442.66 214.683L1443.64 214.683L1443.07 213.889L1372.03 116.089L1438.19 24.7928L1438.76 23.9994L1437.78 23.9994L1399.59 23.9994L1399.33 23.9994L1399.18 24.2097L1351.63 91.1125L1303.55 24.2076L1303.4 23.9994L1303.14 23.9994L1263.32 23.9994L1262.34 23.9994L1262.91 24.7908L1329.35 117.442L1259.12 213.888L1258.54 214.683L1259.53 214.683L1299.62 214.683L1299.88 214.683L1300.03 214.471L1350.55 142.966L1401.62 214.473ZM816.573 64.449C824.382 70.84 828.31 79.9891 828.31 91.9726C828.31 103.954 824.383 113.196 816.571 119.769C808.748 126.169 797.232 129.409 781.942 129.409L741.264 129.409L741.264 54.8069L781.942 54.8069C797.233 54.8069 808.75 58.0472 816.573 64.449Z" stroke="#009B97" stroke-opacity="0.15"/>
<path d="M437.896 173.834L437.898 173.836C447.517 189.942 460.771 202.612 477.648 211.84L477.652 211.842C494.533 220.875 513.467 225.388 534.445 225.388C555.423 225.388 574.358 220.875 591.239 211.842L591.243 211.84C608.12 202.611 621.373 189.942 630.993 173.836C640.615 157.725 645.423 139.555 645.423 119.34C645.423 99.125 640.615 80.9552 630.993 64.8441C621.373 48.7375 608.119 36.1655 591.24 27.1326C574.36 17.903 555.424 13.2927 534.445 13.2927C513.466 13.2927 494.531 17.9031 477.65 27.1327C460.77 36.1662 447.516 48.8367 437.897 65.1384C428.275 81.2485 423.468 99.32 423.468 119.34C423.468 139.361 428.275 157.529 437.896 173.834ZM596.721 82.6432L596.722 82.6465C602.927 93.5103 606.034 105.737 606.034 119.34C606.034 132.942 602.928 145.268 596.722 156.328C590.515 167.195 581.984 175.73 571.124 181.94C560.265 187.953 548.043 190.964 534.445 190.964C520.848 190.964 508.626 187.953 497.767 181.94C486.906 175.73 478.376 167.195 472.169 156.329C465.963 145.268 462.857 132.942 462.857 119.34C462.857 105.737 465.963 93.5103 472.168 82.6465L472.17 82.6432C478.377 71.5813 486.907 63.0487 497.764 57.0355L497.77 57.0321C508.628 50.8243 520.849 47.7161 534.445 47.7161C548.041 47.7161 560.262 50.8243 571.121 57.0322L571.126 57.0354C581.984 63.0486 590.513 71.5812 596.721 82.6432ZM819.107 222.242L819.256 222.456L819.517 222.456L860.543 222.456L861.503 222.456L860.953 221.669L814.137 154.756C827.995 149.249 838.629 140.961 846.012 129.882C853.695 118.647 857.527 105.254 857.527 89.7282C857.527 74.5974 853.99 61.5023 846.898 50.464C839.806 39.4271 829.567 30.9624 816.205 25.0638C803.038 19.1653 787.532 16.2245 769.7 16.2245L685.303 16.2245L684.803 16.2245L684.803 16.7245L684.803 221.956L684.803 222.456L685.303 222.456L723.399 222.456L723.899 222.456L723.899 221.956L723.899 162.645L769.7 162.645C773.031 162.645 775.591 162.558 777.371 162.38L819.107 222.242ZM869.913 48.9751L869.913 49.4751L870.413 49.4751L937.899 49.4751L937.899 221.956L937.899 222.456L938.399 222.456L976.495 222.456L976.995 222.456L976.995 221.956L976.995 49.4751L1044.48 49.4751L1044.98 49.4751L1044.98 48.9751L1044.98 16.7245L1044.98 16.2245L1044.48 16.2245L870.413 16.2245L869.913 16.2245L869.913 16.7245L869.913 48.9751ZM1069.49 173.834L1069.49 173.836C1079.11 189.942 1092.36 202.611 1109.24 211.84L1109.24 211.842C1126.12 220.875 1145.06 225.387 1166.03 225.387C1187.01 225.387 1205.95 220.875 1222.83 211.842L1222.83 211.84C1239.71 202.611 1252.96 189.942 1262.58 173.836C1272.2 157.725 1277.01 139.555 1277.01 119.34C1277.01 99.1249 1272.2 80.9551 1262.58 64.844C1252.96 48.7376 1239.71 36.1657 1222.83 27.1329C1205.95 17.903 1187.01 13.2926 1166.03 13.2926C1145.06 13.2926 1126.12 17.903 1109.24 27.1328C1092.36 36.1665 1079.1 48.8373 1069.49 65.1395C1059.86 81.2493 1055.06 99.3204 1055.06 119.34C1055.06 139.361 1059.86 157.529 1069.49 173.834ZM1228.31 82.6431L1228.31 82.6464C1234.52 93.5102 1237.62 105.737 1237.62 119.34C1237.62 132.943 1234.52 145.269 1228.31 156.33C1222.1 167.196 1213.57 175.73 1202.71 181.94C1191.85 187.953 1179.63 190.964 1166.03 190.964C1152.44 190.964 1140.21 187.953 1129.36 181.94C1118.49 175.729 1109.96 167.194 1103.76 156.327C1097.55 145.267 1094.45 132.941 1094.45 119.34C1094.45 105.737 1097.55 93.5102 1103.76 82.6464L1103.76 82.6431C1109.97 71.5811 1118.5 63.0485 1129.35 57.0354L1129.36 57.032C1140.22 50.8242 1152.44 47.716 1166.03 47.716C1179.63 47.716 1191.85 50.8242 1202.71 57.0321L1202.72 57.0353C1213.57 63.0485 1222.1 71.5811 1228.31 82.6431ZM1438.28 222.246L1438.43 222.456L1438.68 222.456L1482.64 222.456L1483.62 222.456L1483.05 221.662L1406.19 115.821L1477.77 17.0178L1478.35 16.2244L1477.37 16.2244L1436.05 16.2244L1435.79 16.2244L1435.64 16.4348L1384.18 88.868L1332.13 16.4327L1331.98 16.2244L1331.72 16.2244L1288.65 16.2244L1287.67 16.2244L1288.24 17.0158L1360.12 117.285L1284.14 221.661L1283.56 222.456L1284.54 222.456L1327.91 222.456L1328.17 222.456L1328.32 222.244L1383.01 144.831L1438.28 222.246ZM805.427 59.9168C813.886 66.8409 818.138 76.7526 818.138 89.7282C818.138 102.702 813.887 112.714 805.425 119.834C796.954 126.768 784.485 130.274 767.941 130.274L723.899 130.274L723.899 49.4751L767.941 49.4751C784.487 49.4751 796.956 52.982 805.427 59.9168Z" stroke="#009B97" stroke-opacity="0.15"/>
<path d="M799.611 13.6915C784.862 7.08276 767.492 3.78693 747.512 3.78694L652.917 3.78695L652.417 3.78695L652.417 4.28695L652.417 234.395L652.417 234.895L652.917 234.895L695.616 234.895L696.116 234.895L696.116 234.395L696.116 167.835L747.512 167.835C751.267 167.835 754.147 167.735 756.139 167.534L802.94 234.68L803.089 234.895L799.408 14.1487M799.611 13.6915C799.612 13.6918 799.612 13.6921 799.613 13.6924L799.408 14.1487M799.611 13.6915C799.611 13.6915 799.611 13.6914 799.61 13.6913L799.408 14.1487M799.611 13.6915C814.58 20.3009 826.047 29.7847 833.989 42.1488C841.931 54.5139 845.892 69.1845 845.892 86.1395C845.892 103.537 841.6 118.541 832.997 131.126M799.408 14.1487C814.298 20.7232 825.685 30.1466 833.568 42.419C841.451 54.6915 845.392 69.2649 845.392 86.1395C845.392 103.452 841.122 118.355 832.583 130.846M832.997 131.126C832.997 131.125 832.998 131.124 832.999 131.123L832.583 130.846M832.997 131.126C832.996 131.127 832.996 131.128 832.995 131.128L832.583 130.846M832.997 131.126L832.583 130.846M849.334 234.395L848.924 234.681L848.724 234.395L849.334 234.395ZM849.334 234.395L849.334 233.895L848.984 233.895L849.334 234.395ZM375.664 180.409L375.665 180.411C386.442 198.46 401.288 212.657 420.196 222.999L420.2 223.001C439.111 233.125 460.324 238.182 483.828 238.182C507.332 238.182 528.545 233.125 547.456 223.001L547.46 222.999C566.368 212.657 581.215 198.46 591.991 180.411C602.771 162.357 608.156 141.996 608.156 119.341C608.156 96.6854 602.771 76.3242 591.991 58.2703C581.215 40.2212 566.367 26.133 547.459 16.0103C528.547 5.66695 507.333 0.49973 483.828 0.499734C460.323 0.499738 439.109 5.6669 420.198 16.0101C401.288 26.1334 386.441 40.3321 375.664 58.6002C364.886 76.653 359.5 96.9041 359.5 119.341C359.5 141.778 364.886 162.138 375.664 180.409ZM553.682 78.166L553.684 78.1693C560.644 90.3598 564.129 104.08 564.129 119.341C564.129 134.601 560.644 148.431 553.683 160.842C546.721 173.036 537.152 182.613 524.969 189.581C512.788 196.329 499.078 199.707 483.828 199.707C468.578 199.707 454.869 196.329 442.688 189.581C430.505 182.613 420.936 173.036 413.974 160.843C407.012 148.432 403.528 134.601 403.528 119.341C403.528 104.08 407.012 90.3599 413.973 78.1694L413.975 78.1661C420.937 65.7536 430.506 56.1786 442.685 49.431L442.691 49.4277C454.871 42.4617 468.58 38.9744 483.828 38.9744C499.077 38.9744 512.785 42.4617 524.965 49.4277L524.971 49.431C537.151 56.1786 546.719 65.7536 553.682 78.166ZM796.747 159.209L796.452 158.788C796.612 158.725 796.772 158.663 796.931 158.6L797.226 159.021C797.067 159.084 796.907 159.147 796.747 159.209ZM859.896 40.4467L859.896 40.9467L860.396 40.9467L936.098 40.9467L936.098 234.395L936.098 234.895L936.598 234.895L979.298 234.894L979.798 234.894L979.798 234.394L979.797 40.9467L1055.5 40.9467L1056 40.9467L1056 40.4467L1056 4.28688L1056 3.78688L1055.5 3.78688L860.396 3.78692L859.896 3.78692L859.896 4.28692L859.896 40.4467ZM1083.58 180.409L1083.58 180.411C1094.36 198.46 1109.2 212.657 1128.11 222.999L1128.11 223.001C1147.03 233.125 1168.24 238.182 1191.74 238.182C1215.25 238.182 1236.46 233.125 1255.37 223.001L1255.37 222.999C1274.28 212.657 1289.13 198.46 1299.91 180.411C1310.68 162.357 1316.07 141.996 1316.07 119.341C1316.07 96.6853 1310.68 76.324 1299.91 58.2702C1289.13 40.2211 1274.28 26.1329 1255.37 16.0102C1236.46 5.66683 1215.25 0.499606 1191.74 0.49961C1168.24 0.499615 1147.02 5.66681 1128.11 16.0102C1109.2 26.1337 1094.35 40.3327 1083.58 58.6012C1072.8 76.6537 1067.41 96.9044 1067.41 119.341C1067.41 141.778 1072.8 162.138 1083.58 180.409ZM1261.6 78.1659L1261.6 78.1692C1268.56 90.3597 1272.04 104.079 1272.04 119.341C1272.04 134.602 1268.56 148.433 1261.6 160.844C1254.63 173.037 1245.06 182.613 1232.88 189.581C1220.7 196.329 1206.99 199.707 1191.74 199.707C1176.49 199.707 1162.78 196.329 1150.6 189.581C1138.42 182.613 1128.85 173.035 1121.89 160.841C1114.93 148.43 1111.44 134.6 1111.44 119.341C1111.44 104.079 1114.93 90.3597 1121.89 78.1692L1121.89 78.1659C1128.85 65.7535 1138.42 56.1785 1150.6 49.4309L1150.6 49.4275C1162.79 42.4616 1176.49 38.9743 1191.74 38.9743C1206.99 38.9743 1220.7 42.4616 1232.88 49.4276L1232.89 49.4308C1245.06 56.1785 1254.63 65.7535 1261.6 78.1659ZM1496.93 234.685L1497.08 234.894L1497.34 234.894L1546.61 234.894L1547.59 234.894L1547.01 234.101L1460.84 115.396L1541.1 4.58008L1541.68 3.7868L1540.7 3.7868L1494.38 3.78681L1494.13 3.78681L1493.98 3.99727L1436.25 85.2791L1377.86 3.99513L1377.71 3.78683L1377.45 3.78683L1329.17 3.78683L1328.2 3.78683L1328.76 4.57808L1409.35 117.037L1324.17 234.1L1323.59 234.894L1324.57 234.894L1373.18 234.894L1373.44 234.894L1373.59 234.683L1434.94 147.817L1496.93 234.685ZM787.596 52.6677C797.093 60.4447 801.865 71.5765 801.865 86.1395C801.865 100.7 797.094 111.944 787.594 119.941C778.083 127.728 764.092 131.661 745.541 131.661L696.116 131.661L696.116 40.9467L745.541 40.9467C764.093 40.9467 778.085 44.88 787.596 52.6677Z" stroke="#009B97" stroke-opacity="0.15"/>
</svg>
