<svg width="1200" height="592" fill="none" xmlns="http://www.w3.org/2000/svg"><path d="M-220.208 526.726l.002.002c8.896 14.892 21.154 26.607 36.762 35.139l.004.002c15.612 8.352 33.122 12.524 52.522 12.524 19.399 0 36.91-4.172 52.521-12.524l.004-.002c15.608-8.533 27.866-20.247 36.762-35.139 8.9-14.896 13.346-31.697 13.346-50.387s-4.446-35.49-13.346-50.387c-8.897-14.892-21.155-26.516-36.764-34.868-15.612-8.534-33.124-12.796-52.524-12.796s-36.911 4.262-52.523 12.796c-15.611 8.352-27.869 20.068-36.765 35.141-8.899 14.895-13.345 31.605-13.345 50.114 0 18.511 4.446 35.31 13.344 50.385zm146.828-84.283l.002.003c5.733 10.035 8.603 21.329 8.603 33.895 0 12.565-2.87 23.95-8.603 34.167-5.735 10.038-13.616 17.921-23.651 23.658-10.032 5.554-21.325 8.336-33.89 8.336-12.564 0-23.857-2.782-33.889-8.336-10.035-5.737-17.916-13.62-23.651-23.658-5.733-10.216-8.603-21.601-8.603-34.167 0-12.566 2.87-23.86 8.603-33.895l.002-.003c5.735-10.218 13.615-18.099 23.646-23.653l.006-.003c10.032-5.734 21.323-8.606 33.886-8.606 12.564 0 23.855 2.872 33.887 8.606l.006.003c10.03 5.554 17.911 13.435 23.646 23.653zm205.592 129.026l.149.214h39.149l-.551-.787-43.252-61.804c12.796-5.093 22.619-12.752 29.441-22.988 7.107-10.391 10.651-22.776 10.651-37.131 0-13.991-3.271-26.101-9.832-36.31-6.561-10.209-16.033-18.037-28.393-23.491-12.178-5.454-26.518-8.172-43.007-8.172H8.045v190.683h36.219v-55.279h42.303c3.067 0 5.428-.08 7.074-.243l38.571 55.308zm46.962-160.162v.5h62.851v159.876h36.219V411.807h62.851V381H179.174v30.307zm221.268 150.56l.004.002c15.612 8.352 33.122 12.524 52.522 12.524 19.399 0 36.909-4.172 52.521-12.524l.004-.002c15.608-8.533 27.866-20.247 36.762-35.139 8.9-14.897 13.346-31.697 13.346-50.387s-4.446-35.49-13.346-50.387c-8.897-14.893-21.156-26.517-36.766-34.869-15.611-8.533-33.122-12.795-52.521-12.795-19.401 0-36.912 4.262-52.524 12.796-15.611 8.352-27.868 20.067-36.764 35.139-8.9 14.896-13.346 31.606-13.346 50.116 0 18.511 4.446 35.31 13.344 50.385l.002.002c8.896 14.892 21.154 26.606 36.762 35.139zm110.064-119.424l.002.003c5.733 10.035 8.603 21.329 8.603 33.895 0 12.566-2.87 23.953-8.605 34.17-5.734 10.036-13.615 17.919-23.649 23.655-10.032 5.554-21.325 8.335-33.889 8.335-12.565 0-23.858-2.781-33.89-8.335-10.035-5.737-17.917-13.621-23.651-23.659-5.733-10.216-8.603-21.601-8.603-34.166 0-12.566 2.87-23.86 8.603-33.895l.002-.003c5.735-10.218 13.615-18.099 23.646-23.653l.006-.003c10.032-5.734 21.323-8.606 33.887-8.606 12.563 0 23.854 2.872 33.886 8.606l.006.003c10.031 5.554 17.911 13.435 23.646 23.653zm194.111 129.031l.15.209h41.875l-.577-.794-71.036-97.8 66.16-91.296.575-.793h-39.436l-.15.21-47.545 66.903-48.085-66.905-.15-.208h-41.054l.568.791 66.433 92.651-70.224 96.447-.578.794h41.336l.149-.211 50.525-71.505 51.064 71.507zM119.573 421.449c7.809 6.391 11.737 15.54 11.737 27.524 0 11.981-3.927 21.223-11.739 27.796-7.823 6.401-19.339 9.64-34.629 9.64H44.264v-74.602h40.678c15.291 0 26.808 3.24 34.631 9.642z" stroke="#009B97" stroke-opacity=".15"/><path d="M-259.104 530.834l.002.002c9.619 16.107 22.873 28.776 39.75 38.004l.004.002c16.881 9.034 35.815 13.546 56.793 13.546s39.913-4.512 56.794-13.546l.004-.002c16.877-9.228 30.13-21.897 39.75-38.004 9.623-16.111 14.43-34.28 14.43-54.496 0-20.215-4.808-38.385-14.43-54.496-9.62-16.106-22.874-28.678-39.753-37.711-16.88-9.23-35.816-13.84-56.795-13.84s-39.914 4.61-56.795 13.84c-16.88 9.033-30.134 21.704-39.753 38.006-9.622 16.11-14.429 34.181-14.429 54.201 0 20.021 4.807 38.19 14.428 54.494zm158.825-91.191l.001.004c6.205 10.864 9.312 23.091 9.312 36.693 0 13.602-3.106 25.928-9.312 36.988-6.207 10.867-14.738 19.402-25.598 25.612-10.859 6.013-23.081 9.024-36.679 9.024-13.597 0-25.819-3.011-36.678-9.024-10.861-6.21-19.391-14.745-25.598-25.611-6.206-11.061-9.312-23.387-9.312-36.989 0-13.602 3.106-25.829 9.311-36.693l.002-.004c6.207-11.061 14.737-19.594 25.594-25.607l.006-.004c10.858-6.207 23.079-9.316 36.675-9.316 13.596 0 25.817 3.109 36.676 9.316l.005.004c10.858 6.013 19.387 14.545 25.595 25.607zm222.386 139.599l.149.214h42.247l-.55-.787-46.816-66.913c13.858-5.507 24.492-13.795 31.875-24.874 7.683-11.235 11.515-24.627 11.515-40.154 0-15.13-3.537-28.225-10.629-39.264-7.092-11.037-17.331-19.501-30.693-25.4-13.167-5.898-28.673-8.839-46.505-8.839h-84.897v206.231H26.9v-59.81h45.8c3.332 0 5.892-.088 7.672-.265l41.736 59.861zm50.806-173.267v.5h67.986v172.981h39.096V406.475h67.986v-33.25H172.913v32.75zm199.572 124.859l.002.002c9.62 16.107 22.873 28.776 39.75 38.004l.004.002c16.881 9.034 35.815 13.546 56.793 13.546s39.913-4.512 56.794-13.546l.004-.002c16.877-9.228 30.13-21.898 39.75-38.004 9.623-16.111 14.43-34.281 14.43-54.496 0-20.215-4.807-38.385-14.43-54.496-9.62-16.106-22.874-28.678-39.752-37.711-16.881-9.23-35.817-13.84-56.796-13.84s-39.914 4.61-56.795 13.84c-16.88 9.034-30.134 21.705-39.754 38.007-9.621 16.11-14.428 34.181-14.428 54.2 0 20.021 4.808 38.189 14.428 54.494zm158.825-91.191l.002.004c6.204 10.863 9.311 23.091 9.311 36.693 0 13.603-3.107 25.929-9.313 36.99-6.207 10.866-14.737 19.4-25.598 25.61-10.858 6.013-23.08 9.024-36.678 9.024-13.597 0-25.819-3.011-36.678-9.024-10.861-6.21-19.392-14.746-25.599-25.613-6.205-11.06-9.311-23.385-9.311-36.987s3.106-25.83 9.311-36.693l.002-.004c6.207-11.062 14.737-19.594 25.594-25.607l.006-.004c10.858-6.208 23.079-9.316 36.675-9.316 13.596 0 25.817 3.108 36.676 9.316l.006.004c10.857 6.013 19.386 14.545 25.594 25.607zm209.967 139.603l.15.21h45.194l-.576-.794-76.857-105.84 71.583-98.804.574-.793h-42.557l-.149.21-51.463 72.433-52.047-72.435-.15-.208h-44.307l.567.791 71.879 100.27-75.979 104.376-.578.794h44.612l.149-.212 54.686-77.412 55.269 77.414zm-632.85-162.329c8.459 6.924 12.711 16.836 12.711 29.811 0 12.974-4.251 22.986-12.713 30.107-8.471 6.933-20.94 10.44-37.483 10.44H26.899v-80.8H70.94c16.546 0 29.015 3.507 37.486 10.442z" stroke="#009B97" stroke-opacity=".15"/><path d="M102.611 370.692c-14.749-6.609-32.12-9.905-52.099-9.905h-95.095v231.108h43.7v-67.06h51.395c3.755 0 6.635-.099 8.627-.301l46.801 67.147.149.214-3.681-220.746m.203-.457l.002.001-.205.456m.203-.457h-.001l-.202.457m.203-.457c14.969 6.609 26.436 16.093 34.378 28.457 7.942 12.365 11.903 27.036 11.903 43.991 0 17.397-4.292 32.401-12.895 44.987m-33.589-116.978c14.89 6.574 26.277 15.998 34.16 28.27 7.883 12.273 11.824 26.846 11.824 43.721 0 17.313-4.27 32.215-12.809 44.706m.414.281l.002-.003-.416-.278m.414.281l-.002.002-.412-.283m.414.281l-.414-.281m16.751 103.549l-.41.286-.2-.286h.61zm0 0v-.5h-.35l.35.5zm-473.67-53.986l.001.003c10.777 18.048 25.623 32.246 44.531 42.587l.004.003c18.911 10.123 40.124 15.18 63.628 15.18 23.504 0 44.717-5.057 63.628-15.18l.004-.003c18.908-10.341 33.755-24.539 44.531-42.587 10.78-18.054 16.165-38.416 16.165-61.071s-5.385-43.017-16.165-61.07c-10.776-18.05-25.624-32.138-44.532-42.26-18.912-10.344-40.126-15.511-63.631-15.511-23.505 0-44.719 5.167-63.63 15.51-18.91 10.124-33.757 24.322-44.534 42.59-10.778 18.053-16.164 38.304-16.164 60.741 0 22.437 5.386 42.797 16.164 61.068zm178.018-102.243l.002.004c6.96 12.19 10.445 25.91 10.445 41.171 0 15.26-3.485 29.09-10.446 41.502-6.962 12.193-16.531 21.77-28.714 28.738-12.181 6.748-25.891 10.126-41.141 10.126s-28.959-3.378-41.14-10.126c-12.183-6.968-21.752-16.545-28.714-28.738-6.962-12.411-10.446-26.241-10.446-41.502 0-15.261 3.484-28.981 10.445-41.171l.002-.004c6.962-12.412 16.531-21.987 28.71-28.735l.006-.003c12.18-6.966 25.889-10.453 41.137-10.453 15.249 0 28.957 3.487 41.137 10.453l.006.003c12.18 6.748 21.748 16.323 28.711 28.735zM99.747 516.21l-.295-.422.48-.188.294.421-.479.189zm63.149-118.763v.5h76.202v193.948h43.7v-.5l-.001-193.448h76.202v-37.16H162.896v36.66zm223.682 139.962l.001.002c10.777 18.049 25.623 32.247 44.531 42.588l.004.002c18.911 10.124 40.124 15.181 63.628 15.181 23.504 0 44.717-5.057 63.628-15.181l.004-.002c18.908-10.341 33.755-24.539 44.531-42.588 10.78-18.054 16.166-38.415 16.166-61.07s-5.386-43.017-16.166-61.071c-10.776-18.049-25.624-32.137-44.532-42.26-18.912-10.343-40.126-15.51-63.631-15.51-23.505 0-44.719 5.167-63.63 15.51-18.91 10.124-33.758 24.323-44.534 42.591-10.778 18.053-16.164 38.304-16.164 60.74 0 22.437 5.386 42.797 16.164 61.068zm178.018-102.243l.002.003c6.96 12.191 10.445 25.911 10.445 41.172 0 15.261-3.485 29.092-10.447 41.503-6.962 12.193-16.531 21.77-28.714 28.737-12.18 6.748-25.89 10.126-41.14 10.126s-28.959-3.378-41.14-10.126c-12.183-6.968-21.753-16.546-28.715-28.74-6.961-12.411-10.445-26.24-10.445-41.5 0-15.261 3.484-28.981 10.445-41.172l.002-.003c6.962-12.412 16.531-21.987 28.71-28.735l.006-.003c12.18-6.966 25.889-10.453 41.137-10.453 15.249 0 28.957 3.487 41.138 10.453l.006.003c12.179 6.748 21.747 16.323 28.71 28.735zm235.338 156.519l.149.21h50.507l-.576-.794-86.172-118.705 80.26-110.816.574-.793h-47.55l-.149.211-57.732 81.281-58.385-81.284-.15-.208h-49.513l.567.791 80.59 112.46L627.168 591.1l-.578.795h49.853l.149-.212 61.344-86.865 61.998 86.867zM90.596 409.668c9.497 7.777 14.269 18.909 14.269 33.472 0 14.561-4.771 25.805-14.271 33.802-9.51 7.786-23.502 11.719-42.052 11.719H-.885v-90.714H48.54c18.553 0 32.544 3.933 42.055 11.721zm386.196-239.942l.002.002c8.896 14.892 21.154 26.606 36.762 35.138l.004.003c15.612 8.352 33.122 12.524 52.522 12.524 19.399 0 36.909-4.172 52.521-12.524l.004-.003c15.608-8.532 27.866-20.246 36.762-35.138 8.9-14.897 13.346-31.697 13.346-50.387s-4.446-35.49-13.346-50.387c-8.897-14.892-21.155-26.517-36.764-34.868-15.612-8.534-33.124-12.796-52.524-12.796s-36.911 4.262-52.523 12.796c-15.611 8.352-27.869 20.068-36.765 35.14-8.899 14.896-13.345 31.605-13.345 50.115 0 18.511 4.446 35.309 13.344 50.385zM623.62 85.443l.002.003c5.733 10.035 8.603 21.329 8.603 33.895 0 12.565-2.87 23.95-8.603 34.166-5.735 10.038-13.616 17.922-23.651 23.658-10.032 5.555-21.325 8.336-33.89 8.336-12.564 0-23.857-2.781-33.889-8.336-10.035-5.736-17.916-13.619-23.651-23.657-5.733-10.216-8.603-21.602-8.603-34.167 0-12.566 2.87-23.86 8.603-33.895l.002-.003c5.735-10.218 13.615-18.1 23.646-23.653l.006-.004c10.032-5.734 21.323-8.605 33.886-8.605 12.564 0 23.855 2.871 33.887 8.605l.006.004c10.031 5.554 17.911 13.435 23.646 23.653zm205.592 129.026l.149.214h39.149l-.551-.787-43.252-61.805c12.796-5.092 22.619-12.752 29.441-22.987 7.107-10.391 10.651-22.776 10.651-37.132 0-13.99-3.271-26.1-9.832-36.31-6.561-10.208-16.033-18.036-28.393-23.49C814.396 26.718 800.056 24 783.568 24h-78.523v190.683h36.219v-55.279h42.304c3.065 0 5.427-.08 7.073-.243l38.571 55.308zm46.962-160.162v.5h62.851v159.876h36.219V54.807h62.846V23.999H876.174v30.308zm221.266 150.559l.01.003c15.61 8.352 33.12 12.524 52.52 12.524 19.4 0 36.91-4.172 52.52-12.524v-.003c15.61-8.532 27.87-20.246 36.77-35.138 8.89-14.897 13.34-31.697 13.34-50.387s-4.45-35.49-13.34-50.387c-8.9-14.893-21.16-26.517-36.77-34.87-15.61-8.532-33.12-12.794-52.52-12.794-19.4 0-36.91 4.262-52.53 12.796-15.61 8.352-27.86 20.067-36.76 35.14-8.9 14.895-13.35 31.605-13.35 50.115s4.45 35.309 13.35 50.385v.002c8.9 14.892 21.15 26.606 36.76 35.138zm110.07-119.423v.003c5.73 10.035 8.6 21.329 8.6 33.895 0 12.566-2.87 23.952-8.6 34.169-5.74 10.037-13.62 17.92-23.65 23.655-10.04 5.555-21.33 8.336-33.89 8.336-12.57 0-23.86-2.782-33.89-8.336-10.04-5.736-17.92-13.62-23.65-23.658-5.74-10.216-8.61-21.601-8.61-34.166 0-12.566 2.87-23.86 8.61-33.895v-.003c5.73-10.218 13.61-18.1 23.65-23.653v-.004c10.03-5.734 21.32-8.605 33.89-8.605 12.56 0 23.85 2.871 33.88 8.605l.01.004c10.03 5.554 17.91 13.435 23.65 23.653zm194.11 129.03l.15.21h41.87l-.57-.794-71.04-97.8 66.16-91.296.57-.794h-39.43l-.15.21-47.55 66.904-48.08-66.905-.15-.209h-41.06l.57.792 66.44 92.651-70.23 96.446-.58.795h41.34l.15-.212 50.52-71.505 51.07 71.507zM816.573 64.449c7.809 6.391 11.737 15.54 11.737 27.524 0 11.981-3.927 21.223-11.739 27.796-7.823 6.4-19.339 9.64-34.629 9.64h-40.678V54.807h40.678c15.291 0 26.808 3.24 34.631 9.642z" stroke="#009B97" stroke-opacity=".15"/><path d="M437.896 173.834l.002.002c9.619 16.106 22.873 28.776 39.75 38.004l.004.002c16.881 9.033 35.815 13.546 56.793 13.546s39.913-4.513 56.794-13.546l.004-.002c16.877-9.229 30.13-21.898 39.75-38.004 9.622-16.111 14.43-34.281 14.43-54.496 0-20.215-4.808-38.385-14.43-54.496-9.62-16.106-22.874-28.678-39.753-37.711-16.88-9.23-35.816-13.84-56.795-13.84s-39.914 4.61-56.795 13.84c-16.88 9.033-30.134 21.704-39.753 38.005-9.622 16.11-14.429 34.182-14.429 54.202 0 20.021 4.807 38.189 14.428 54.494zm158.825-91.19l.001.002c6.205 10.864 9.312 23.091 9.312 36.694 0 13.602-3.106 25.928-9.312 36.988-6.207 10.867-14.738 19.402-25.598 25.612-10.859 6.013-23.081 9.024-36.679 9.024-13.597 0-25.819-3.011-36.678-9.024-10.861-6.21-19.391-14.745-25.598-25.611-6.206-11.061-9.312-23.387-9.312-36.989 0-13.603 3.106-25.83 9.311-36.694l.002-.003c6.207-11.062 14.737-19.594 25.594-25.608l.006-.003c10.858-6.208 23.079-9.316 36.675-9.316 13.596 0 25.817 3.108 36.676 9.316l.005.003c10.858 6.014 19.387 14.546 25.595 25.608zm222.386 139.598l.149.214h42.247l-.55-.787-46.816-66.913c13.858-5.507 24.492-13.795 31.875-24.874 7.683-11.235 11.515-24.628 11.515-40.154 0-15.13-3.537-28.226-10.629-39.264-7.092-11.037-17.331-19.502-30.693-25.4-13.167-5.899-28.673-8.84-46.505-8.84h-84.897v206.232h39.096v-59.811H769.7c3.331 0 5.891-.087 7.671-.265l41.736 59.862zm50.806-173.267v.5h67.986v172.981h39.096V49.476h67.985V16.223H869.913v32.751zm199.577 124.859v.002c9.62 16.106 22.87 28.775 39.75 38.004v.002c16.88 9.033 35.82 13.545 56.79 13.545 20.98 0 39.92-4.512 56.8-13.545v-.002c16.88-9.229 30.13-21.898 39.75-38.004 9.62-16.111 14.43-34.281 14.43-54.496 0-20.215-4.81-38.385-14.43-54.496-9.62-16.106-22.87-28.678-39.75-37.711-16.88-9.23-35.82-13.84-56.8-13.84-20.97 0-39.91 4.61-56.79 13.84-16.88 9.034-30.14 21.704-39.75 38.006-9.63 16.11-14.43 34.181-14.43 54.201 0 20.021 4.8 38.189 14.43 54.494zm158.82-91.19v.002c6.21 10.864 9.31 23.091 9.31 36.694 0 13.603-3.1 25.929-9.31 36.99-6.21 10.866-14.74 19.4-25.6 25.61-10.86 6.013-23.08 9.024-36.68 9.024-13.59 0-25.82-3.011-36.67-9.024-10.87-6.211-19.4-14.746-25.6-25.613-6.21-11.06-9.31-23.386-9.31-36.987 0-13.603 3.1-25.83 9.31-36.694v-.003c6.21-11.062 14.74-19.595 25.59-25.608l.01-.003c10.86-6.208 23.08-9.316 36.67-9.316 13.6 0 25.82 3.108 36.68 9.316l.01.003c10.85 6.014 19.38 14.546 25.59 25.608zm209.97 139.602l.15.21h45.19l-.57-.794-76.86-105.841 71.58-98.803.58-.794h-42.56l-.15.21-51.46 72.434-52.05-72.435-.15-.209h-44.31l.57.792 71.88 100.269-75.98 104.376-.58.795h44.61l.15-.212 54.69-77.413 55.27 77.415zM805.427 59.916c8.459 6.925 12.711 16.837 12.711 29.812 0 12.974-4.251 22.986-12.713 30.106-8.471 6.934-20.94 10.44-37.484 10.44h-44.042V49.475h44.042c16.546 0 29.015 3.507 37.486 10.442z" stroke="#009B97" stroke-opacity=".15"/><path d="M799.611 13.691c-14.749-6.608-32.119-9.904-52.099-9.904h-95.095v231.108h43.699v-67.06h51.396c3.755 0 6.635-.1 8.627-.301l46.801 67.146.149.215-3.681-220.746m.203-.457h.002l-.205.457m.203-.457h-.001l-.202.457m.203-.457c14.969 6.609 26.436 16.093 34.378 28.457 7.942 12.365 11.903 27.035 11.903 43.99 0 17.398-4.292 32.402-12.895 44.987M799.408 14.149c14.89 6.574 26.277 15.998 34.16 28.27 7.883 12.273 11.824 26.846 11.824 43.72 0 17.313-4.27 32.216-12.809 44.707m.414.28l.002-.003-.416-.277m.414.28l-.002.002-.412-.282m.414.28l-.414-.28m16.751 103.549l-.41.286-.2-.286h.61zm0 0v-.5h-.35l.35.5zm-473.67-53.986l.001.002c10.777 18.049 25.623 32.246 44.531 42.588l.004.002c18.911 10.124 40.124 15.181 63.628 15.181 23.504 0 44.717-5.057 63.628-15.181l.004-.002c18.908-10.342 33.755-24.539 44.531-42.588 10.78-18.054 16.165-38.415 16.165-61.07 0-22.656-5.385-43.017-16.165-61.07-10.776-18.05-25.624-32.138-44.532-42.26C528.547 5.666 507.333.5 483.828.5c-23.505 0-44.719 5.167-63.63 15.51-18.91 10.123-33.757 24.322-44.534 42.59-10.778 18.053-16.164 38.304-16.164 60.741 0 22.437 5.386 42.797 16.164 61.068zM553.682 78.166l.002.003c6.96 12.19 10.445 25.911 10.445 41.172 0 15.26-3.485 29.09-10.446 41.501-6.962 12.194-16.531 21.771-28.714 28.739-12.181 6.748-25.891 10.126-41.141 10.126s-28.959-3.378-41.14-10.126c-12.183-6.968-21.752-16.545-28.714-28.738-6.962-12.411-10.446-26.242-10.446-41.502 0-15.261 3.484-28.981 10.445-41.172l.002-.003c6.962-12.412 16.531-21.987 28.71-28.735l.006-.003c12.18-6.966 25.889-10.454 41.137-10.454 15.249 0 28.957 3.488 41.137 10.454l.006.003c12.18 6.748 21.748 16.323 28.711 28.735zm243.065 81.043l-.295-.421.479-.188.295.421-.479.188zm63.149-118.762v.5h76.202v193.948h.5l42.7-.001h.5v-.5l-.001-193.447H1056V3.787H859.896v36.66zm223.684 139.962v.002c10.78 18.049 25.62 32.246 44.53 42.588v.002c18.92 10.124 40.13 15.181 63.63 15.181 23.51 0 44.72-5.057 63.63-15.181v-.002c18.91-10.342 33.76-24.539 44.54-42.588 10.77-18.054 16.16-38.415 16.16-61.07 0-22.656-5.39-43.017-16.16-61.07-10.78-18.05-25.63-32.138-44.54-42.26C1236.46 5.666 1215.25.5 1191.74.5c-23.5 0-44.72 5.167-63.63 15.51-18.91 10.124-33.76 24.323-44.53 42.591-10.78 18.053-16.17 38.303-16.17 60.74 0 22.437 5.39 42.797 16.17 61.068zM1261.6 78.166v.003c6.96 12.19 10.44 25.91 10.44 41.172 0 15.261-3.48 29.092-10.44 41.503-6.97 12.193-16.54 21.769-28.72 28.737-12.18 6.748-25.89 10.126-41.14 10.126s-28.96-3.378-41.14-10.126c-12.18-6.968-21.75-16.546-28.71-28.74-6.96-12.411-10.45-26.241-10.45-41.5 0-15.262 3.49-28.981 10.45-41.172v-.003c6.96-12.412 16.53-21.987 28.71-28.735v-.003c12.19-6.966 25.89-10.454 41.14-10.454s28.96 3.488 41.14 10.454l.01.003c12.17 6.748 21.74 16.323 28.71 28.735zm235.33 156.519l.15.209h50.51l-.58-.793-86.17-118.705L1541.1 4.58l.58-.793h-47.55l-.15.21-57.73 81.282-58.39-81.284-.15-.208h-49.51l.56.791 80.59 112.459-85.18 117.063-.58.794h49.85l.15-.211 61.35-86.866 61.99 86.868zM787.596 52.668c9.497 7.777 14.269 18.908 14.269 33.471 0 14.561-4.771 25.805-14.271 33.802-9.511 7.787-23.502 11.72-42.053 11.72h-49.425V40.947h49.425c18.552 0 32.544 3.933 42.055 11.72z" stroke="#009B97" stroke-opacity=".15"/></svg>