<svg width="41" height="40" fill="none" xmlns="http://www.w3.org/2000/svg"><path d="M6.25 3.295c9.167-.166 27.88-.12 28.28.28.383.384-.075 15.314-.259 23.727a.998.998 0 01-1.018.976 1595.96 1595.96 0 00-10.503-.148M6.25 3.295v22.586c0 .891 1.508 2.26 2.399 2.24 2.02-.05 5.126-.055 8.601-.037m-11-24.789h-3.5 35.5m-21 24.79l-4.5 8.71m4.5-8.71c1.77.009 3.634.025 5.5.045m0 0l5 8.665m-15-19.5v6m7.5-14.5v14.5m6.5-11.5v11.5" stroke="#003837" stroke-width="2" stroke-linecap="round" stroke-linejoin="round"/></svg>