<svg width="90" height="80" viewBox="0 0 90 80" fill="none" xmlns="http://www.w3.org/2000/svg">
<path d="M29.6693 3.17846C29.6693 3.75934 29.4384 4.31642 29.0275 4.72716C28.6166 5.1379 28.0593 5.36865 27.4782 5.36865C26.8971 5.36865 26.3398 5.1379 25.9289 4.72716C25.518 4.31642 25.2871 3.75934 25.2871 3.17846C25.2871 2.59759 25.518 2.04051 25.9289 1.62977C26.3398 1.21903 26.8971 0.988281 27.4782 0.988281C28.0593 0.988281 28.6166 1.21903 29.0275 1.62977C29.4384 2.04051 29.6693 2.59759 29.6693 3.17846ZM28.5799 3.17964C28.5799 2.88757 28.4638 2.60746 28.2572 2.40094C28.0506 2.19441 27.7704 2.07839 27.4782 2.07839C27.186 2.07839 26.9058 2.19441 26.6992 2.40094C26.4926 2.60746 26.3765 2.88757 26.3765 3.17964C26.3765 3.4717 26.4926 3.75181 26.6992 3.95833C26.9058 4.16486 27.186 4.28088 27.4782 4.28088C27.7704 4.28088 28.0506 4.16486 28.2572 3.95833C28.4638 3.75181 28.5799 3.4717 28.5799 3.17964Z" fill="black"/>
<path d="M22.6687 23.0955C22.6589 23.0955 22.6492 23.0929 22.6407 23.0879C22.6321 23.083 22.625 23.0759 22.62 23.0674L17.838 14.7983C17.8296 14.7837 17.8252 14.7671 17.8252 14.7503C17.8252 14.7334 17.8296 14.7169 17.838 14.7022L22.6136 6.43439C22.6214 6.42051 22.6328 6.40896 22.6466 6.40093C22.6604 6.39289 22.6761 6.38866 22.6921 6.38867L32.2843 6.39219C32.2946 6.39221 32.3048 6.39499 32.3138 6.40024C32.3227 6.40548 32.3302 6.41302 32.3353 6.42208L37.1291 14.7151C37.1335 14.7228 37.1358 14.7315 37.1358 14.7403C37.1358 14.7492 37.1335 14.7579 37.1291 14.7655L32.3488 23.0451C32.3381 23.0638 32.3226 23.0793 32.3039 23.0901C32.2851 23.101 32.2638 23.1066 32.2421 23.1066L22.6687 23.0955ZM23.2913 22.0112L31.5925 22.0224C31.6196 22.0224 31.6462 22.0152 31.6697 22.0016C31.6932 21.988 31.7126 21.9685 31.7261 21.945L35.8503 14.8095C35.8599 14.793 35.865 14.7742 35.865 14.7552C35.865 14.7361 35.8599 14.7175 35.8503 14.7011L31.7214 7.55673C31.7086 7.53462 31.6901 7.51627 31.6677 7.50352C31.6454 7.49076 31.6201 7.48405 31.5942 7.48406L23.33 7.48757C23.3117 7.48758 23.2937 7.49241 23.2778 7.50157C23.262 7.51073 23.2488 7.52389 23.2397 7.53973L19.0933 14.7081C19.086 14.7207 19.0821 14.7351 19.0821 14.7497C19.0821 14.7643 19.086 14.7787 19.0933 14.7913L23.2585 21.9925C23.2619 21.9982 23.2667 22.0029 23.2724 22.0062C23.2782 22.0095 23.2847 22.0112 23.2913 22.0112Z" fill="black"/>
<path d="M58.906 26.4207C58.8904 26.4082 58.8775 26.3931 58.8673 26.3756L54.114 18.1599C54.1014 18.1377 54.0947 18.1127 54.0947 18.0873C54.0947 18.0619 54.1014 18.037 54.114 18.0151L58.8738 9.78185C58.8825 9.76672 58.8951 9.75416 58.9102 9.74541C58.9253 9.73667 58.9425 9.73206 58.96 9.73203L68.5416 9.72852C68.5539 9.72851 68.566 9.73176 68.5767 9.73793C68.5874 9.7441 68.5963 9.75298 68.6026 9.76368L73.3735 18.0087C73.3856 18.0296 73.392 18.0534 73.392 18.0776C73.392 18.1018 73.3856 18.1255 73.3735 18.1464L68.6178 26.375C68.6052 26.3967 68.587 26.4148 68.5652 26.4273C68.5434 26.4399 68.5187 26.4465 68.4935 26.4465C65.2903 26.4465 62.1251 26.4486 58.9981 26.4529C58.9637 26.4529 58.933 26.4422 58.906 26.4207ZM59.5199 10.8608L55.3559 18.0491C55.3491 18.0609 55.3455 18.0742 55.3455 18.0878C55.3455 18.1014 55.3491 18.1147 55.3559 18.1265L59.5099 25.3077C59.5169 25.3198 59.5269 25.3299 59.5391 25.3369C59.5512 25.3439 59.565 25.3476 59.5791 25.3476H67.8814C67.9019 25.3475 67.9221 25.3421 67.9399 25.3318C67.9577 25.3215 67.9725 25.3068 67.9828 25.289L72.1181 18.1411C72.1274 18.1249 72.1323 18.1064 72.1323 18.0876C72.1323 18.0688 72.1274 18.0503 72.1181 18.0339L67.9875 10.8884C67.9731 10.8634 67.952 10.8429 67.9265 10.8292C67.901 10.8156 67.8722 10.8093 67.8433 10.811C67.5509 10.8274 67.2703 10.8354 67.0013 10.835C64.5243 10.83 62.0499 10.8274 59.5779 10.8274C59.5662 10.8274 59.5546 10.8305 59.5444 10.8363C59.5342 10.8422 59.5258 10.8506 59.5199 10.8608Z" fill="black"/>
<path d="M53.8627 15.4462C53.8693 15.4502 53.875 15.4555 53.8794 15.4617C53.8839 15.4679 53.8871 15.4749 53.8889 15.4824C53.8906 15.4899 53.8909 15.4976 53.8896 15.5052C53.8883 15.5127 53.8856 15.52 53.8815 15.5265L52.5031 17.7794C52.4963 17.7906 52.4867 17.8 52.4752 17.8064C52.4637 17.8129 52.4506 17.8163 52.4374 17.8163L49.636 17.8204C49.6232 17.8204 49.611 17.8154 49.602 17.8065C49.593 17.7976 49.5879 17.7855 49.5879 17.7729V16.7836C49.5879 16.7699 49.5933 16.7568 49.603 16.7471C49.6127 16.7375 49.6258 16.732 49.6395 16.732H51.793C51.8143 16.732 51.8352 16.7266 51.8537 16.7162C51.8722 16.7058 51.8877 16.6909 51.8986 16.6728L52.9381 14.965C52.9428 14.9572 52.9489 14.9505 52.9562 14.9451C52.9634 14.9397 52.9717 14.9358 52.9804 14.9337C52.9892 14.9315 52.9983 14.9311 53.0073 14.9324C53.0162 14.9338 53.0248 14.9369 53.0325 14.9416L53.8627 15.4462Z" fill="black"/>
<path d="M38.7733 22.1942C38.7773 22.1874 38.7784 22.1793 38.7764 22.1717C38.7744 22.1641 38.7695 22.1577 38.7628 22.1538L35.6793 20.3727C35.6672 20.3658 35.6582 20.3545 35.6544 20.3413C35.6506 20.3281 35.6521 20.3141 35.6588 20.3024L36.1513 19.4455C36.1551 19.4391 36.16 19.4336 36.166 19.4291C36.172 19.4247 36.1788 19.4215 36.1861 19.4197C36.1934 19.4179 36.201 19.4176 36.2085 19.4187C36.216 19.4198 36.2233 19.4223 36.2299 19.4262L39.304 21.2079C39.3089 21.2107 39.3143 21.2126 39.3199 21.2133C39.3256 21.2141 39.3313 21.2136 39.3368 21.2121C39.3424 21.2106 39.3475 21.208 39.352 21.2044C39.3566 21.2009 39.3603 21.1965 39.3632 21.1915L40.398 19.4027C40.4026 19.3947 40.4087 19.3877 40.416 19.382C40.4233 19.3763 40.4316 19.3722 40.4405 19.3697C40.4494 19.3673 40.4587 19.3666 40.4678 19.3677C40.4769 19.3689 40.4857 19.3718 40.4936 19.3764L41.3514 19.8722C41.3587 19.8765 41.364 19.8836 41.3661 19.892C41.3682 19.9003 41.3669 19.9092 41.3625 19.9167L38.6655 24.5556C38.6569 24.5703 38.6428 24.581 38.6263 24.5854C38.6098 24.5898 38.5923 24.5875 38.5775 24.579L37.7221 24.0844C37.7174 24.0817 37.7133 24.0781 37.71 24.0738C37.7067 24.0695 37.7042 24.0647 37.7028 24.0595C37.7014 24.0543 37.701 24.049 37.7017 24.0437C37.7024 24.0384 37.7041 24.0333 37.7068 24.0287L38.7733 22.1942Z" fill="black"/>
<path d="M43.3851 34.9927C43.3776 34.9927 43.3703 34.9907 43.3638 34.987C43.3573 34.9833 43.3519 34.978 43.3481 34.9716L38.8657 27.2248C38.8565 27.209 38.8516 27.1909 38.8516 27.1726C38.8516 27.1543 38.8565 27.1363 38.8657 27.1205L43.3241 19.4199C43.3355 19.4003 43.3518 19.3841 43.3715 19.3728C43.3911 19.3614 43.4134 19.3555 43.4361 19.3555H52.3511C52.3658 19.3555 52.3803 19.3594 52.3931 19.3668C52.4059 19.3742 52.4164 19.3849 52.4238 19.3977L56.8816 27.1064C56.8941 27.1282 56.9006 27.1528 56.9006 27.178C56.9006 27.2032 56.8941 27.228 56.8816 27.25L52.4414 34.9259C52.4308 34.944 52.4158 34.9591 52.3978 34.9696C52.3798 34.9801 52.3594 34.9856 52.3388 34.9857L43.3851 34.9927Z" fill="black"/>
<path d="M20.198 26.23C20.2083 26.2347 20.22 26.2357 20.2308 26.2327C20.2417 26.2297 20.2511 26.2229 20.2573 26.2136L21.0353 25.059C21.0425 25.0485 21.0464 25.0361 21.0466 25.0232C21.0468 25.0103 21.0433 24.9975 21.0365 24.9863L19.4904 22.4544C19.4844 22.4447 19.4826 22.4329 19.4853 22.4217C19.4881 22.4105 19.4951 22.4008 19.505 22.3947L20.3558 21.8783C20.3672 21.8715 20.3808 21.8694 20.3936 21.8725C20.4064 21.8755 20.4175 21.8835 20.4244 21.8947L21.9611 24.4166C22.0006 24.4811 22.0569 24.5132 22.13 24.5128L24.9326 24.5022C24.9434 24.5022 24.9539 24.5067 24.9616 24.5147C24.9693 24.5228 24.9736 24.5336 24.9736 24.545L24.9724 25.5577C24.9724 25.5683 24.9684 25.5784 24.9613 25.5859C24.9541 25.5934 24.9444 25.5976 24.9343 25.5976C24.0154 25.5976 23.1158 25.5976 22.2355 25.5976C22.2324 25.5976 22.2036 25.5958 22.1493 25.5923C22.0453 25.5861 21.9677 25.6263 21.9165 25.7131C21.8857 25.7654 21.8696 25.7922 21.8685 25.7933C21.6179 26.1567 21.364 26.5258 21.1068 26.9005C21.0948 26.9179 21.088 26.9383 21.0869 26.9595C21.0859 26.9807 21.0907 27.0019 21.101 27.0206C21.5137 27.7641 21.5597 28.4717 21.2388 29.1434C21.0707 29.495 20.8332 29.7818 20.5264 30.0037C20.2023 30.2382 19.839 30.3714 19.4364 30.4035C18.9545 30.4417 18.5165 30.338 18.1225 30.0922C17.7898 29.8856 17.5248 29.6046 17.3274 29.2495C17.0393 28.7325 16.9836 28.1824 17.1603 27.5991C17.2608 27.2666 17.4181 26.9798 17.6323 26.7387C17.8657 26.4761 18.1446 26.2862 18.469 26.169C19.0619 25.9545 19.6383 25.9748 20.198 26.23ZM20.3581 28.215C20.3581 28.0704 20.3296 27.9272 20.2742 27.7936C20.2189 27.66 20.1377 27.5386 20.0354 27.4363C19.9331 27.3341 19.8117 27.253 19.678 27.1976C19.5443 27.1423 19.4011 27.1138 19.2564 27.1138C19.1117 27.1138 18.9685 27.1423 18.8348 27.1976C18.7011 27.253 18.5797 27.3341 18.4774 27.4363C18.3751 27.5386 18.2939 27.66 18.2386 27.7936C18.1832 27.9272 18.1547 28.0704 18.1547 28.215C18.1547 28.5071 18.2708 28.7872 18.4774 28.9937C18.684 29.2003 18.9642 29.3163 19.2564 29.3163C19.5486 29.3163 19.8288 29.2003 20.0354 28.9937C20.242 28.7872 20.3581 28.5071 20.3581 28.215Z" fill="black"/>
<path d="M58.384 34.2762C58.3908 34.2506 58.3891 34.2235 58.3791 34.1989C58.3692 34.1743 58.3516 34.1535 58.3289 34.1397L56.0681 32.7536C56.0636 32.7508 56.0585 32.749 56.0533 32.7482C56.048 32.7475 56.0427 32.7477 56.0376 32.7491C56.0324 32.7504 56.0276 32.7527 56.0234 32.7559C56.0192 32.7591 56.0156 32.7631 56.013 32.7676L55.0667 34.3594C55.0647 34.3628 55.0621 34.3658 55.059 34.3682C55.0559 34.3706 55.0523 34.3724 55.0486 34.3734C55.0448 34.3745 55.0409 34.3748 55.0371 34.3743C55.0332 34.3738 55.0295 34.3725 55.0262 34.3706L54.1555 33.8577C54.15 33.8545 54.1452 33.8501 54.1413 33.8449C54.1375 33.8398 54.1347 33.8338 54.1332 33.8275C54.1317 33.8212 54.1314 33.8146 54.1324 33.8081C54.1334 33.8016 54.1357 33.7954 54.1391 33.7898L56.5395 29.7417C56.5501 29.7239 56.5672 29.711 56.5871 29.7057C56.607 29.7005 56.628 29.7033 56.6456 29.7136L57.4547 30.1895C57.4641 30.195 57.4723 30.2024 57.4788 30.2111C57.4854 30.2198 57.4901 30.2298 57.4928 30.2403C57.4954 30.2509 57.496 30.2619 57.4944 30.2727C57.4928 30.2835 57.4891 30.2938 57.4835 30.3032L56.6122 31.7643C56.6058 31.7752 56.604 31.7883 56.6072 31.8007C56.6103 31.8131 56.6182 31.8238 56.6292 31.8305L58.9094 33.2213C58.9223 33.2292 58.9375 33.2327 58.9525 33.2312C58.9676 33.2297 58.9817 33.2234 58.9926 33.2131C59.303 32.9267 59.6513 32.7407 60.0375 32.6551C60.4154 32.5711 60.795 32.5877 61.1761 32.7049C61.5353 32.8155 61.8441 33.007 62.1025 33.2793C62.3487 33.5395 62.5229 33.845 62.6249 34.1959C62.748 34.6202 62.7408 35.0401 62.6032 35.4554C62.4762 35.8371 62.2657 36.161 61.9717 36.4271C61.6801 36.6909 61.3381 36.8606 60.9457 36.9364C60.5751 37.0079 60.2079 36.9864 59.844 36.872C59.3691 36.7223 58.9909 36.44 58.7095 36.0251C58.5324 35.7641 58.4147 35.4882 58.3565 35.1975C58.2947 34.8881 58.3039 34.581 58.384 34.2762ZM61.6182 34.7914C61.6182 34.4993 61.5021 34.2192 61.2955 34.0127C61.0889 33.8061 60.8087 33.6901 60.5165 33.6901C60.2243 33.6901 59.9441 33.8061 59.7375 34.0127C59.5309 34.2192 59.4148 34.4993 59.4148 34.7914C59.4148 35.0834 59.5309 35.3635 59.7375 35.5701C59.9441 35.7766 60.2243 35.8926 60.5165 35.8926C60.8087 35.8926 61.0889 35.7766 61.2955 35.5701C61.5021 35.3635 61.6182 35.0834 61.6182 34.7914Z" fill="black"/>
<path d="M40.2099 38.9666C40.1951 38.9566 40.185 38.941 40.1818 38.9232C40.1786 38.9054 40.1826 38.8869 40.1929 38.8717L41.5414 36.8978C41.5486 36.8871 41.5526 36.8746 41.5529 36.8617C41.5532 36.8488 41.5499 36.8361 41.5432 36.8251L39.9923 34.2856C39.9891 34.2802 39.9869 34.2742 39.9859 34.2679C39.9849 34.2616 39.9852 34.2552 39.9868 34.2491C39.9883 34.2429 39.991 34.2371 39.9948 34.232C39.9986 34.2269 40.0033 34.2226 40.0088 34.2194L40.8583 33.713C40.871 33.7055 40.886 33.7032 40.9003 33.7067C40.9146 33.7102 40.9269 33.7192 40.9346 33.7318L42.4783 36.2683C42.4911 36.2893 42.509 36.3066 42.5303 36.3186C42.5517 36.3306 42.5758 36.3369 42.6003 36.3369H45.4387C45.4446 36.3369 45.4505 36.3381 45.456 36.3405C45.4614 36.3428 45.4664 36.3463 45.4704 36.3506C45.4745 36.355 45.4776 36.3601 45.4796 36.3657C45.4816 36.3713 45.4825 36.3773 45.4821 36.3832C45.4617 36.6891 45.4629 37.0126 45.4856 37.3537C45.4862 37.3624 45.4851 37.3711 45.4823 37.3793C45.4794 37.3875 45.475 37.395 45.4691 37.4014C45.4633 37.4077 45.4563 37.4128 45.4484 37.4163C45.4405 37.4199 45.432 37.4217 45.4234 37.4217L42.5593 37.4323C42.5412 37.4323 42.5235 37.4366 42.5078 37.4449C42.492 37.4532 42.4787 37.4651 42.469 37.4798L41.0841 39.5099C41.0813 39.514 41.0778 39.5175 41.0737 39.5203C41.0697 39.523 41.0651 39.525 41.0603 39.5259C41.0555 39.5269 41.0506 39.5269 41.0458 39.526C41.041 39.5251 41.0365 39.5232 41.0325 39.5205L40.2099 38.9666Z" fill="black"/>
<path d="M75.8204 45.1289H10.6311C10.6126 45.1289 10.5977 45.1439 10.5977 45.1623V45.8281C10.5977 45.8465 10.6126 45.8615 10.6311 45.8615H75.8204C75.8389 45.8615 75.8538 45.8465 75.8538 45.8281V45.1623C75.8538 45.1439 75.8389 45.1289 75.8204 45.1289Z" fill="black"/>
<path d="M21.968 55.653C21.968 57.2108 21.3489 58.7048 20.2469 59.8063C19.145 60.9079 17.6503 61.5267 16.0919 61.5267C14.5335 61.5267 13.0389 60.9079 11.9369 59.8063C10.8349 58.7048 10.2158 57.2108 10.2158 55.653C10.2158 54.0952 10.8349 52.6012 11.9369 51.4997C13.0389 50.3981 14.5335 49.7793 16.0919 49.7793C17.6503 49.7793 19.145 50.3981 20.2469 51.4997C21.3489 52.6012 21.968 54.0952 21.968 55.653ZM15.0213 60.5427C15.9293 60.7419 16.8232 60.6968 17.7031 60.4073C18.6244 60.1041 19.3802 59.568 19.9704 58.7991C20.2108 58.4857 20.4098 58.1507 20.5673 57.7939C20.8272 57.2067 20.973 56.5796 21.0047 55.9126C21.0414 55.1386 20.9251 54.4044 20.6558 53.7101C20.5143 53.3456 20.3316 53.0014 20.1076 52.6775C19.5072 51.8101 18.7069 51.2132 17.7066 50.887C16.9174 50.6295 16.1113 50.5662 15.2881 50.6971C14.5724 50.8112 13.9227 51.065 13.3391 51.4584C13.0186 51.6741 12.7251 51.9308 12.4585 52.2285C11.7655 53.0037 11.3566 53.9291 11.2319 55.0048C11.1498 55.7136 11.1973 56.3971 11.3744 57.0555C11.5753 57.8025 11.9283 58.4633 12.4333 59.0376C12.6952 59.3353 12.987 59.5932 13.3087 59.8112C13.8254 60.1621 14.3963 60.4059 15.0213 60.5427Z" fill="black"/>
<path d="M61.6252 55.653C61.6252 57.2108 61.0061 58.7048 59.9042 59.8063C58.8022 60.9079 57.3076 61.5267 55.7491 61.5267C54.1907 61.5267 52.6961 60.9079 51.5941 59.8063C50.4921 58.7048 49.873 57.2108 49.873 55.653C49.873 54.0952 50.4921 52.6012 51.5941 51.4997C52.6961 50.3981 54.1907 49.7793 55.7491 49.7793C57.3076 49.7793 58.8022 50.3981 59.9042 51.4997C61.0061 52.6012 61.6252 54.0952 61.6252 55.653ZM52.3989 59.3447C52.6416 59.5631 52.8058 59.7018 52.8914 59.7608C53.8968 60.4528 55.0135 60.7437 56.2416 60.6335C57.0332 60.5628 57.7555 60.3213 58.4087 59.9091C59.0708 59.491 59.5942 58.9477 59.9788 58.2792C60.1653 57.9549 60.3185 57.5962 60.4385 57.2032C60.7821 56.0752 60.7563 54.9575 60.3611 53.8502C60.2263 53.4724 60.0539 53.1227 59.844 52.8011C59.2467 51.8884 58.4296 51.2549 57.3926 50.9005C57.0306 50.777 56.6493 50.6963 56.2487 50.6584C54.8482 50.5264 53.622 50.9052 52.5701 51.7948C52.2656 52.0523 52.0016 52.3385 51.778 52.6534C51.1588 53.5251 50.8497 54.5187 50.8504 55.6342C50.8508 56.9709 51.289 58.1343 52.165 59.1244C52.1939 59.1572 52.2719 59.2306 52.3989 59.3447Z" fill="black"/>
<path d="M31.4816 56.1588C31.4739 56.1602 31.4667 56.1636 31.4606 56.1686C31.4545 56.1736 31.4498 56.1801 31.447 56.1874C31.4441 56.1946 31.4431 56.2025 31.4442 56.2102C31.4452 56.2179 31.4482 56.2252 31.4529 56.2314L35.2323 61.2793C35.2667 61.3254 35.2552 61.3485 35.1977 61.3485H34.2942C34.27 61.3485 34.2461 61.3429 34.2245 61.3321C34.2028 61.3213 34.1839 61.3057 34.1693 61.2864L30.397 56.2853C30.3886 56.2742 30.3778 56.2652 30.3654 56.259C30.3529 56.2528 30.3393 56.2496 30.3254 56.2496H27.6424C27.6245 56.2496 27.6074 56.2567 27.5947 56.2693C27.5821 56.282 27.575 56.2991 27.575 56.317L27.582 61.2735C27.5821 61.2881 27.5766 61.3023 27.5668 61.3132C27.5569 61.324 27.5433 61.3308 27.5287 61.3321C27.2359 61.3567 26.9631 61.3571 26.7102 61.3333C26.7021 61.3324 26.6946 61.3286 26.6892 61.3227C26.6838 61.3167 26.6808 61.309 26.6809 61.301L26.6738 50.019C26.6738 50.0045 26.6796 49.9907 26.6898 49.9804C26.7 49.9702 26.7139 49.9645 26.7284 49.9645C27.9823 49.9578 29.2194 49.9606 30.4398 49.9727C30.9084 49.9774 31.2616 50.0039 31.4992 50.0524C31.8706 50.1278 32.2067 50.2509 32.5077 50.4216C33.3309 50.8889 33.8195 51.5678 33.9735 52.4582C34.0927 53.1498 34.0243 53.797 33.7683 54.3999C33.5361 54.9454 33.2087 55.3556 32.7862 55.6307C32.375 55.8979 31.9401 56.074 31.4816 56.1588ZM32.3693 51.3804C32.1962 51.2183 32.0175 51.0989 31.8334 51.0223C31.4484 50.8625 31.0294 50.7828 30.5764 50.7832C29.614 50.784 28.6323 50.7844 27.6313 50.7844C27.6194 50.7844 27.608 50.7891 27.5996 50.7976C27.5911 50.806 27.5863 50.8175 27.5861 50.8295C27.5635 52.3365 27.5625 53.8588 27.5832 55.3963C27.5832 55.4049 27.5867 55.4131 27.5928 55.4193C27.5989 55.4254 27.6073 55.4289 27.616 55.4291C28.6624 55.4357 29.7043 55.4314 30.7417 55.4162C30.807 55.415 30.8723 55.4099 30.9375 55.401C31.0032 55.3924 31.0687 55.3838 31.134 55.3752C31.2508 55.3595 31.3476 55.3416 31.4242 55.3212C32.1606 55.1263 32.6596 54.6893 32.9211 54.0102C33.0137 53.7703 33.0669 53.5173 33.0805 53.2512C33.0942 52.9843 33.0706 52.7237 33.0096 52.4694C32.9091 52.0486 32.6957 51.6856 32.3693 51.3804Z" fill="black"/>
<path d="M42.8446 50.7869C42.837 50.7869 42.8294 50.7884 42.8224 50.7913C42.8153 50.7943 42.8089 50.7985 42.8036 50.8039C42.7982 50.8093 42.7939 50.8157 42.791 50.8227C42.7881 50.8298 42.7866 50.8373 42.7866 50.8449V61.2965C42.7866 61.31 42.7812 61.323 42.7716 61.3326C42.762 61.3421 42.7491 61.3475 42.7355 61.3475H41.9018C41.8915 61.3475 41.8817 61.3434 41.8744 61.3362C41.8672 61.3289 41.8631 61.3191 41.8631 61.3088V50.8426C41.8631 50.8353 41.8617 50.828 41.8589 50.8213C41.8561 50.8145 41.852 50.8084 41.8468 50.8032C41.8416 50.7981 41.8355 50.794 41.8287 50.7912C41.822 50.7884 41.8147 50.7869 41.8074 50.7869L37.7184 50.7799C37.7104 50.7799 37.7026 50.7768 37.6968 50.7712C37.691 50.7656 37.6876 50.758 37.6873 50.75L37.6709 50.0426C37.6707 50.0322 37.6726 50.0219 37.6766 50.0122C37.6805 50.0026 37.6864 49.9938 37.694 49.9864C37.7015 49.9789 37.7105 49.973 37.7205 49.969C37.7304 49.965 37.7411 49.9629 37.7518 49.9629L46.9084 49.9664C46.9157 49.9664 46.9229 49.9678 46.9297 49.9706C46.9365 49.9734 46.9426 49.9775 46.9478 49.9827C46.9529 49.9879 46.957 49.994 46.9598 50.0008C46.9626 50.0075 46.9641 50.0148 46.9641 50.0221C46.9641 50.2167 46.9641 50.4028 46.9641 50.5806C46.9641 50.5822 46.9658 50.6099 46.9694 50.6638C46.9748 50.758 46.935 50.8008 46.8497 50.7922C46.7915 50.7863 46.7598 50.7834 46.7548 50.7834C45.4387 50.7814 44.1353 50.7826 42.8446 50.7869Z" fill="black"/>
<path d="M69.2578 56.3031L65.8794 61.3135C65.8724 61.324 65.8628 61.3326 65.8516 61.3385C65.8403 61.3444 65.8277 61.3475 65.8149 61.3475H64.9132C64.8409 61.3475 64.825 61.3176 64.8657 61.2578L68.7594 55.5418C68.7679 55.5295 68.7725 55.515 68.7726 55.5002C68.7727 55.4853 68.7683 55.4708 68.76 55.4586L65.1254 50.0162C65.1016 49.9807 65.111 49.9629 65.1536 49.9629H66.0612C66.0859 49.9629 66.1103 49.9691 66.1321 49.9808C66.1539 49.9926 66.1724 50.0096 66.1861 50.0303L69.2537 54.7037C69.2583 54.7107 69.2646 54.7165 69.2719 54.7205C69.2793 54.7244 69.2875 54.7265 69.2959 54.7265C69.3043 54.7265 69.3126 54.7244 69.3199 54.7205C69.3273 54.7165 69.3336 54.7107 69.3381 54.7037L72.4187 50.0139C72.4289 49.9982 72.443 49.9853 72.4596 49.9764C72.4761 49.9675 72.4947 49.9629 72.5136 49.9629H73.4072C73.4564 49.9629 73.4676 49.9834 73.4406 50.0244L69.867 55.4422C69.8528 55.4635 69.8453 55.4886 69.8454 55.5141C69.8455 55.5397 69.8532 55.5646 69.8676 55.5857L73.7484 61.3006C73.7684 61.3299 73.7611 61.3444 73.7267 61.344L72.7435 61.3334C72.7355 61.3334 72.7276 61.3313 72.7203 61.3272C72.713 61.3231 72.7067 61.3172 72.7018 61.31L69.3211 56.3031C69.3177 56.2979 69.3129 56.2937 69.3074 56.2907C69.3019 56.2878 69.2957 56.2862 69.2895 56.2862C69.2832 56.2862 69.2771 56.2878 69.2715 56.2907C69.266 56.2937 69.2613 56.2979 69.2578 56.3031Z" fill="black"/>
<path d="M75.8366 66.1973H10.6168C10.6068 66.1973 10.5986 66.2054 10.5986 66.2154V66.8976C10.5986 66.9077 10.6068 66.9158 10.6168 66.9158H75.8366C75.8467 66.9158 75.8548 66.9077 75.8548 66.8976V66.2154C75.8548 66.2054 75.8467 66.1973 75.8366 66.1973Z" fill="black"/>
<path d="M47.2137 77.2988C47.2552 77.3484 47.2759 77.341 47.2759 77.2765L47.287 72.6306C47.287 72.619 47.2916 72.6078 47.2997 72.5996C47.3079 72.5913 47.3189 72.5867 47.3304 72.5867H47.9824C47.9962 72.5867 48.0095 72.5922 48.0193 72.6021C48.0291 72.612 48.0346 72.6254 48.0346 72.6394L48.0457 79.0007C48.0457 79.0095 48.0432 79.0181 48.0383 79.0252C48.0335 79.0323 48.0267 79.0377 48.0187 79.0406C47.8745 79.0941 47.7467 79.0539 47.6353 78.9199C46.3294 77.3531 45.0354 75.7982 43.7533 74.2552C43.7052 74.1974 43.6812 74.206 43.6812 74.281V78.89C43.6812 78.8988 43.6795 78.9076 43.6762 78.9158C43.6729 78.9239 43.668 78.9314 43.6619 78.9376C43.6558 78.9439 43.6486 78.9489 43.6406 78.9522C43.6327 78.9556 43.6241 78.9574 43.6155 78.9574H42.9834C42.975 78.9574 42.9666 78.9557 42.9588 78.9523C42.9509 78.949 42.9438 78.9441 42.9378 78.938C42.9318 78.9318 42.9271 78.9245 42.9239 78.9165C42.9206 78.9085 42.9189 78.8998 42.9189 78.8911V72.5357C42.9189 72.5268 42.9217 72.5181 42.9269 72.5109C42.932 72.5036 42.9393 72.4982 42.9477 72.4952C43.0548 72.4562 43.1417 72.4573 43.2086 72.4988C43.223 72.5078 43.275 72.566 43.3645 72.6734C44.6556 74.2277 45.9387 75.7695 47.2137 77.2988Z" fill="black"/>
<path d="M30.917 77.6C31.0186 77.496 31.1095 77.3948 31.1896 77.2964C31.2015 77.2817 31.2186 77.2722 31.2372 77.27C31.2559 77.2678 31.2746 77.2731 31.2893 77.2847L31.7525 77.6527C31.766 77.6634 31.7748 77.679 31.777 77.6962C31.7792 77.7134 31.7746 77.7308 31.7642 77.7447C31.2131 78.4871 30.4849 78.9141 29.5796 79.0259C28.8842 79.1115 28.2381 79.0109 27.6412 78.7241C27.2898 78.5553 26.9764 78.3263 26.7008 78.0372C26.1465 77.4566 25.8504 76.7578 25.8125 75.9408C25.7941 75.5434 25.8405 75.1574 25.9515 74.7827C26.2188 73.8785 26.7944 73.2159 27.6782 72.7947C28.3599 72.4704 29.0955 72.3956 29.8851 72.5702C30.6567 72.7414 31.2823 73.1477 31.7619 73.7893C31.7733 73.8046 31.7784 73.8236 31.7761 73.8423C31.7738 73.8609 31.7643 73.8777 31.7496 73.8889L31.2852 74.2488C31.2769 74.2552 31.2674 74.2598 31.2571 74.2623C31.2469 74.2649 31.2362 74.2653 31.2257 74.2636C31.2151 74.2619 31.205 74.2581 31.1957 74.2525C31.1865 74.2468 31.1785 74.2394 31.1721 74.2306C30.85 73.7856 30.4464 73.48 29.9613 73.314C29.5907 73.187 29.2053 73.1485 28.8051 73.1985C28.4416 73.2434 28.105 73.3618 27.7954 73.5537C27.5007 73.7361 27.2509 73.9782 27.0461 74.2798C26.7088 74.776 26.5605 75.3277 26.6011 75.9349C26.6277 76.3354 26.733 76.7079 26.9171 77.0526C27.2228 77.6246 27.6856 78.0122 28.3055 78.2153C28.6949 78.3427 29.0801 78.3836 29.4612 78.3378C30.0166 78.271 30.5019 78.0251 30.917 77.6Z" fill="black"/>
<path d="M54.437 78.126C53.8445 77.5497 53.5171 76.8456 53.455 76.0137C53.4206 75.5585 53.4782 75.116 53.6279 74.6863C53.8554 74.0334 54.2338 73.5137 54.763 73.1273C55.0738 72.9003 55.423 72.7293 55.8108 72.6145C56.4206 72.4336 57.0342 72.4257 57.6518 72.591C58.0173 72.6883 58.3411 72.8348 58.6234 73.0306C58.9122 73.231 59.1718 73.4826 59.402 73.7854C59.4132 73.8001 59.4185 73.8183 59.4168 73.8361C59.4152 73.8538 59.4067 73.8697 59.3932 73.8804L58.9107 74.2596C58.9051 74.2639 58.8987 74.2671 58.8918 74.2688C58.8849 74.2705 58.8776 74.2708 58.8704 74.2697C58.8632 74.2685 58.8562 74.266 58.8499 74.2621C58.8435 74.2583 58.8378 74.2532 58.8333 74.2473C58.2164 73.4404 57.4415 73.0911 56.5085 73.1994C56.1075 73.2459 55.7414 73.3717 55.4103 73.5768C54.7177 74.0054 54.3305 74.6614 54.2488 75.5449C54.2133 75.9278 54.2594 76.3009 54.3872 76.6643C54.5131 77.0237 54.7054 77.3361 54.9641 77.6014C55.2448 77.889 55.5768 78.0957 55.9603 78.2215C56.325 78.3411 56.7032 78.3788 57.0948 78.3346C57.8078 78.2545 58.3875 77.9052 58.8338 77.2867C58.8389 77.2797 58.8453 77.2738 58.8527 77.2693C58.86 77.2648 58.8682 77.2618 58.8766 77.2605C58.8851 77.2593 58.8936 77.2598 58.9018 77.2619C58.91 77.2641 58.9176 77.2679 58.9241 77.2732L59.4049 77.6618C59.4152 77.6702 59.4218 77.6823 59.4233 77.6956C59.4248 77.7089 59.4212 77.7224 59.4131 77.7333C58.6783 78.7238 57.6786 79.1586 56.4141 79.0379C55.6456 78.9644 54.9866 78.6605 54.437 78.126Z" fill="black"/>
<path d="M34.7774 78.2674L37.7055 78.2709C37.7159 78.2709 37.7259 78.275 37.7332 78.2823C37.7406 78.2895 37.7447 78.2993 37.7447 78.3096V78.9191C37.7447 78.9244 37.7437 78.9297 37.7417 78.9346C37.7396 78.9395 37.7366 78.944 37.7329 78.9477C37.7291 78.9515 37.7247 78.9545 37.7198 78.9565C37.7149 78.9585 37.7096 78.9596 37.7043 78.9596H33.9941C33.978 78.9596 33.9627 78.9532 33.9514 78.9419C33.94 78.9306 33.9337 78.9152 33.9337 78.8992C33.9337 76.8979 33.9337 74.9205 33.9337 72.9669C33.9337 72.8844 33.9368 72.821 33.943 72.7764C33.9454 72.7592 33.9432 72.7403 33.9366 72.7196C33.9229 72.6778 33.9296 72.6402 33.9565 72.607C33.962 72.6004 33.9694 72.5951 33.978 72.5915C33.9866 72.5878 33.9963 72.5859 34.0064 72.5859H34.632C34.6489 72.5859 34.6652 72.5927 34.6772 72.6046C34.6891 72.6166 34.6959 72.6329 34.6959 72.6498V78.1859C34.6959 78.2075 34.7045 78.2283 34.7197 78.2435C34.735 78.2588 34.7558 78.2674 34.7774 78.2674Z" fill="black"/>
<path d="M40.3399 72.5859H39.6786C39.6468 72.5859 39.6211 72.6117 39.6211 72.6434V78.9027C39.6211 78.9344 39.6468 78.9602 39.6786 78.9602H40.3399C40.3717 78.9602 40.3974 78.9344 40.3974 78.9027V72.6434C40.3974 72.6117 40.3717 72.5859 40.3399 72.5859Z" fill="black"/>
<path d="M51.2979 72.5859H50.619C50.5921 72.5859 50.5703 72.6077 50.5703 72.6346V78.9103C50.5703 78.9372 50.5921 78.959 50.619 78.959H51.2979C51.3248 78.959 51.3466 78.9372 51.3466 78.9103V72.6346C51.3466 72.6077 51.3248 72.5859 51.2979 72.5859Z" fill="black"/>
</svg>
