<svg width="90" height="80" fill="none" xmlns="http://www.w3.org/2000/svg"><path d="M29.67 3.178a2.19 2.19 0 01-3.741 1.55 2.19 2.19 0 113.099-3.098c.41.41.641.968.641 1.548zm-1.09.002a1.101 1.101 0 10-2.202 0 1.101 1.101 0 002.202 0zm-5.911 19.916a.057.057 0 01-.049-.028l-4.782-8.27a.096.096 0 010-.096l4.776-8.268a.09.09 0 01.078-.045l9.592.003a.059.059 0 01.051.03l4.794 8.293a.05.05 0 010 .05l-4.78 8.28a.122.122 0 01-.107.062l-9.573-.011zm.622-1.085l8.302.011a.154.154 0 00.133-.077l4.124-7.136a.108.108 0 000-.108l-4.129-7.144a.145.145 0 00-.127-.073l-8.264.004a.105.105 0 00-.09.052l-4.147 7.168a.083.083 0 000 .083l4.166 7.201c.003.006.008.01.013.014a.038.038 0 00.02.005zm35.615 4.409a.161.161 0 01-.039-.044l-4.753-8.216a.147.147 0 010-.145l4.76-8.233a.1.1 0 01.086-.05l9.582-.003a.07.07 0 01.06.035l4.772 8.245a.138.138 0 010 .137l-4.756 8.229a.143.143 0 01-.124.072c-3.204 0-6.369.002-9.496.006a.144.144 0 01-.092-.032zm.614-15.56l-4.164 7.19a.077.077 0 000 .076l4.154 7.182a.08.08 0 00.07.04h8.301a.118.118 0 00.102-.059l4.135-7.148a.108.108 0 000-.107l-4.13-7.146a.155.155 0 00-.145-.077c-.292.016-.573.024-.842.024-2.477-.005-4.951-.008-7.423-.008a.067.067 0 00-.058.033zm-5.657 4.586a.06.06 0 01.016.016.058.058 0 01.003.065l-1.379 2.252a.076.076 0 01-.066.037l-2.801.004a.048.048 0 01-.034-.014.047.047 0 01-.014-.033v-.99a.052.052 0 01.051-.051h2.154a.124.124 0 00.106-.06l1.04-1.707a.069.069 0 01.093-.023l.83.504zm-15.09 6.748a.03.03 0 00-.01-.04l-3.084-1.781a.053.053 0 01-.025-.032.05.05 0 01.005-.039l.492-.857a.056.056 0 01.057-.026.059.059 0 01.022.007l3.074 1.782a.043.043 0 00.06-.016l1.034-1.79a.071.071 0 01.07-.034.07.07 0 01.026.008l.857.496a.032.032 0 01.015.02.033.033 0 01-.004.025l-2.697 4.639a.065.065 0 01-.087.023l-.856-.495a.041.041 0 01-.015-.055l1.066-1.835zm4.612 12.799a.043.043 0 01-.037-.021l-4.482-7.747a.104.104 0 010-.105l4.458-7.7a.129.129 0 01.112-.065h8.915a.084.084 0 01.073.043l4.458 7.708a.144.144 0 010 .144l-4.44 7.676a.122.122 0 01-.103.06l-8.954.007zM20.198 26.23a.047.047 0 00.06-.016l.777-1.155a.065.065 0 00.012-.036.07.07 0 00-.01-.037l-1.547-2.532a.043.043 0 01-.005-.032.044.044 0 01.02-.027l.85-.517a.05.05 0 01.07.017l1.536 2.522c.04.064.096.096.169.096l2.803-.01a.04.04 0 01.029.012.044.044 0 01.012.03l-.002 1.013c0 .01-.004.02-.01.028a.037.037 0 01-.028.012h-2.699l-.086-.006a.235.235 0 00-.233.121l-.047.08-.762 1.108a.114.114 0 00-.006.12c.413.743.459 1.45.138 2.122a2.23 2.23 0 01-.713.86 2.11 2.11 0 01-1.09.4 2.104 2.104 0 01-1.314-.31 2.271 2.271 0 01-.795-.843c-.288-.517-.343-1.068-.167-1.65.1-.333.258-.62.472-.861.234-.263.513-.453.837-.57a2.208 2.208 0 011.729.061zm.16 1.985a1.1 1.1 0 00-1.88-.779 1.1 1.1 0 101.88.779zm38.026 6.061a.122.122 0 00-.055-.136l-2.26-1.386a.04.04 0 00-.056.014l-.946 1.591a.03.03 0 01-.018.014.028.028 0 01-.023-.002l-.87-.513a.048.048 0 01-.024-.05.05.05 0 01.007-.018l2.4-4.048a.08.08 0 01.048-.036.077.077 0 01.059.008l.809.476a.082.082 0 01.038.05.084.084 0 01-.01.063l-.87 1.461a.049.049 0 00.017.066l2.28 1.391a.07.07 0 00.083-.008 2.193 2.193 0 012.183-.508c.36.11.668.302.926.574.247.26.42.566.523.917.123.424.116.844-.022 1.26a2.243 2.243 0 01-.631.971 2.091 2.091 0 01-1.026.51c-.37.07-.738.05-1.102-.065a2.097 2.097 0 01-1.135-.847 2.252 2.252 0 01-.353-.828 2.021 2.021 0 01.028-.92zm3.234.515a1.101 1.101 0 10-2.202 0 1.101 1.101 0 002.202 0zM40.21 38.967a.066.066 0 01-.028-.044.07.07 0 01.01-.051l1.35-1.974a.067.067 0 00.001-.073l-1.55-2.54a.05.05 0 01-.007-.017.046.046 0 010-.019.047.047 0 01.023-.03l.85-.506a.056.056 0 01.076.019l1.543 2.536a.143.143 0 00.122.069h2.839a.043.043 0 01.04.029.044.044 0 01.003.017c-.02.306-.02.63.004.97a.065.065 0 01-.017.048.063.063 0 01-.046.02l-2.864.011a.11.11 0 00-.09.048l-1.385 2.03a.04.04 0 01-.01.01.037.037 0 01-.041 0l-.823-.553zm35.61 6.162H10.631a.033.033 0 00-.033.033v.666c0 .018.015.033.033.033h65.19a.033.033 0 00.033-.033v-.666a.033.033 0 00-.034-.033zM21.968 55.653a5.872 5.872 0 01-5.876 5.874 5.877 5.877 0 01-5.876-5.874 5.872 5.872 0 015.876-5.874 5.877 5.877 0 015.876 5.874zm-6.947 4.89a5 5 0 002.682-.136A4.615 4.615 0 0019.97 58.8c.24-.313.44-.648.597-1.005a5.22 5.22 0 00.438-1.881 5.326 5.326 0 00-.35-2.203 4.974 4.974 0 00-.547-1.032 4.57 4.57 0 00-2.401-1.791 5.105 5.105 0 00-2.419-.19 4.792 4.792 0 00-1.949.761 4.71 4.71 0 00-.88.77c-.694.776-1.102 1.701-1.227 2.777a5.423 5.423 0 00.142 2.05 4.88 4.88 0 001.06 1.983c.261.297.553.555.875.773a4.867 4.867 0 001.712.732zm46.604-4.89a5.873 5.873 0 01-5.876 5.874 5.877 5.877 0 01-5.876-5.874 5.872 5.872 0 015.876-5.874 5.877 5.877 0 015.876 5.874zM52.4 59.345c.243.218.407.357.492.416a4.955 4.955 0 003.35.872 4.801 4.801 0 002.168-.724 4.64 4.64 0 001.57-1.63c.186-.324.34-.683.46-1.076a5.212 5.212 0 00-.078-3.353 4.962 4.962 0 00-.517-1.049 4.646 4.646 0 00-2.451-1.9 4.984 4.984 0 00-1.144-.243c-1.4-.132-2.627.247-3.679 1.137a4.642 4.642 0 00-.792.858c-.62.872-.928 1.866-.928 2.981 0 1.337.439 2.5 1.315 3.49.029.033.107.107.234.22zm-20.918-3.186a.046.046 0 00-.03.072l3.78 5.048c.035.046.023.07-.034.07h-.904a.156.156 0 01-.125-.063l-3.772-5a.09.09 0 00-.072-.036h-2.683a.068.068 0 00-.067.067l.007 4.956a.059.059 0 01-.053.06 4.622 4.622 0 01-.819 0 .034.034 0 01-.02-.01.032.032 0 01-.01-.022l-.006-11.282a.055.055 0 01.054-.054c1.254-.007 2.491-.004 3.712.008.468.004.822.03 1.06.08.37.075.707.198 1.008.369.823.467 1.311 1.146 1.465 2.036.12.692.051 1.339-.205 1.942-.232.545-.56.956-.982 1.23a3.569 3.569 0 01-1.304.529zm.887-4.779a1.805 1.805 0 00-.536-.358 3.239 3.239 0 00-1.257-.239l-2.945.001a.046.046 0 00-.045.045c-.023 1.508-.024 3.03-.003 4.567a.034.034 0 00.033.033c1.046.007 2.088.002 3.126-.013a1.6 1.6 0 00.195-.015l.197-.026c.117-.016.214-.033.29-.054.737-.195 1.236-.632 1.497-1.31a2.44 2.44 0 00.16-.76 2.734 2.734 0 00-.071-.782c-.1-.42-.314-.783-.64-1.089zm10.476-.593a.058.058 0 00-.058.058v10.452a.051.051 0 01-.051.05h-.834a.039.039 0 01-.028-.01.039.039 0 01-.01-.028V50.843a.055.055 0 00-.057-.056l-4.089-.007a.031.031 0 01-.03-.03l-.017-.707a.076.076 0 01.023-.057.084.084 0 01.058-.024l9.156.004a.056.056 0 01.056.056v.559l.005.083c.006.094-.034.137-.12.128a2.588 2.588 0 00-.094-.009c-1.316-.002-2.62 0-3.91.004zm26.413 5.516l-3.379 5.01a.076.076 0 01-.064.034h-.902c-.072 0-.088-.03-.047-.09l3.893-5.715a.074.074 0 00.001-.083l-3.635-5.443c-.023-.035-.014-.053.029-.053h.907a.15.15 0 01.125.067l3.068 4.674c.004.007.01.013.018.017a.051.051 0 00.048 0 .05.05 0 00.018-.017l3.08-4.69a.112.112 0 01.096-.051h.893c.05 0 .06.02.034.061l-3.574 5.418a.129.129 0 000 .144l3.881 5.715c.02.029.013.043-.021.043l-.984-.01a.047.047 0 01-.023-.007.055.055 0 01-.018-.017l-3.38-5.007a.038.038 0 00-.064 0zm6.579 9.894h-65.22a.018.018 0 00-.018.018v.683c0 .01.008.018.018.018h65.22c.01 0 .018-.008.018-.018v-.683a.018.018 0 00-.018-.018zM47.214 77.299c.041.05.062.042.062-.023l.011-4.645c0-.012.005-.023.013-.031a.043.043 0 01.03-.013h.652a.05.05 0 01.037.015c.01.01.016.023.016.037l.01 6.362a.043.043 0 01-.007.024.04.04 0 01-.02.016c-.144.053-.271.013-.383-.121a3964.96 3964.96 0 01-3.882-4.665c-.048-.058-.072-.049-.072.026v4.609a.07.07 0 01-.02.048.064.064 0 01-.046.02h-.632a.064.064 0 01-.06-.04.067.067 0 01-.004-.027v-6.355a.043.043 0 01.029-.04c.107-.04.194-.039.26.003.015.009.067.067.157.174 1.29 1.555 2.574 3.096 3.849 4.626zm-16.297.301c.102-.104.192-.205.273-.304a.07.07 0 01.1-.012l.463.369a.066.066 0 01.011.092c-.55.742-1.28 1.17-2.184 1.28a3.42 3.42 0 01-1.939-.3 3.213 3.213 0 01-.94-.688 3.15 3.15 0 01-.889-2.096 3.482 3.482 0 01.14-1.158c.267-.904.842-1.567 1.726-1.988.682-.325 1.418-.4 2.207-.225a3.12 3.12 0 011.877 1.22.074.074 0 01.014.052.07.07 0 01-.026.047l-.465.36a.077.077 0 01-.06.015.084.084 0 01-.053-.033 2.455 2.455 0 00-1.21-.917 2.547 2.547 0 00-1.157-.115 2.469 2.469 0 00-1.759 1.08 2.56 2.56 0 00-.445 1.656c.027.4.132.773.316 1.118.306.572.769.96 1.388 1.162.39.128.775.169 1.156.123.556-.067 1.04-.313 1.456-.738zm23.52.526a3.183 3.183 0 01-.982-2.112 3.249 3.249 0 01.173-1.328 3.168 3.168 0 011.135-1.559c.31-.227.66-.398 1.048-.512a3.328 3.328 0 011.84-.024c.366.097.69.244.972.44.29.2.549.452.779.754a.073.073 0 01.015.051.063.063 0 01-.024.044l-.482.38a.051.051 0 01-.04.01.059.059 0 01-.037-.022c-.618-.808-1.393-1.157-2.326-1.049a2.635 2.635 0 00-1.098.378c-.692.428-1.08 1.084-1.161 1.968-.036.383.01.756.138 1.12.126.359.318.671.577.936.28.288.613.495.996.62.365.12.743.158 1.135.114.713-.08 1.293-.43 1.739-1.048a.065.065 0 01.043-.027.06.06 0 01.047.013l.48.389a.05.05 0 01.02.034.053.053 0 01-.01.037c-.736.99-1.735 1.426-3 1.305a3.192 3.192 0 01-1.977-.912zm-19.66.141l2.928.004a.04.04 0 01.04.039v.61l-.003.015a.042.042 0 01-.022.022.041.041 0 01-.016.003h-3.71a.06.06 0 01-.06-.06v-5.933c0-.083.003-.146.009-.19a.129.129 0 00-.006-.057.113.113 0 01.02-.113.056.056 0 01.021-.016.072.072 0 01.028-.005h.626a.064.064 0 01.064.064v5.536a.082.082 0 00.081.081zm5.563-5.681h-.661a.058.058 0 00-.058.057v6.26c0 .031.026.057.058.057h.66a.058.058 0 00.058-.057v-6.26a.058.058 0 00-.057-.057zm10.958 0h-.679a.049.049 0 00-.049.049v6.275a.05.05 0 00.049.049h.679a.049.049 0 00.049-.049v-6.275a.049.049 0 00-.05-.05z" fill="#000"/></svg>