<svg width="1196" height="1268" viewBox="0 0 1196 1268" fill="none" xmlns="http://www.w3.org/2000/svg">
<mask id="mask0_413_785" style="mask-type:alpha" maskUnits="userSpaceOnUse" x="0" y="0" width="1196" height="1268">
<rect width="1196" height="1268" rx="20" fill="#F0F9F9"/>
</mask>
<g mask="url(#mask0_413_785)">
<path d="M311.704 1184.97L311.706 1184.97C322.558 1203.14 337.511 1217.43 356.552 1227.83L356.556 1227.84C375.601 1238.03 396.965 1243.12 420.635 1243.12C444.306 1243.12 465.67 1238.03 484.715 1227.84L484.719 1227.83C503.76 1217.42 518.712 1203.14 529.565 1184.97C540.421 1166.8 545.845 1146.3 545.845 1123.5C545.845 1100.7 540.421 1080.2 529.565 1062.03C518.712 1043.87 503.759 1029.69 484.716 1019.5C465.671 1009.09 444.307 1003.89 420.635 1003.89C396.964 1003.89 375.599 1009.09 356.554 1019.5C337.51 1029.69 322.558 1043.98 311.705 1062.36C300.85 1080.53 295.426 1100.92 295.426 1123.5C295.426 1146.08 300.85 1166.58 311.704 1184.97ZM490.989 1082.06L490.991 1082.06C498.001 1094.33 501.511 1108.14 501.511 1123.5C501.511 1138.86 498.002 1152.78 490.99 1165.28C483.978 1177.55 474.34 1187.19 462.071 1194.2C449.803 1201 435.995 1204.4 420.635 1204.4C405.276 1204.4 391.468 1201 379.2 1194.2C366.93 1187.19 357.292 1177.55 350.28 1165.27C343.269 1152.78 339.76 1138.86 339.76 1123.5C339.76 1108.14 343.269 1094.33 350.279 1082.06L350.281 1082.06C357.294 1069.56 366.931 1059.92 379.197 1053.13L379.203 1053.13C391.471 1046.12 405.278 1042.61 420.635 1042.61C435.993 1042.61 449.8 1046.12 462.067 1053.13L462.073 1053.13C474.34 1059.92 483.977 1069.56 490.989 1082.06ZM742.021 1239.59L742.171 1239.81L742.431 1239.81L788.743 1239.81L789.703 1239.81L789.152 1239.02L736.258 1163.44C751.928 1157.23 763.947 1147.87 772.286 1135.36C780.951 1122.69 785.273 1107.59 785.273 1090.08C785.273 1073.02 781.284 1058.25 773.285 1045.81C765.287 1033.36 753.739 1023.82 738.664 1017.16C723.811 1010.51 706.318 1007.19 686.196 1007.19L590.927 1007.19L590.427 1007.19L590.427 1007.69L590.427 1239.31L590.427 1239.81L590.927 1239.81L633.931 1239.81L634.431 1239.81L634.431 1239.31L634.431 1172.31L686.196 1172.31C689.98 1172.31 692.88 1172.21 694.887 1172.01L742.021 1239.59ZM799.384 1044.09L799.384 1044.59L799.884 1044.59L876.128 1044.59L876.128 1239.31L876.128 1239.81L876.628 1239.81L919.631 1239.81L920.131 1239.81L920.131 1239.31L920.131 1044.59L996.376 1044.59L996.876 1044.59L996.876 1044.09L996.876 1007.69L996.876 1007.19L996.376 1007.19L799.884 1007.19L799.384 1007.19L799.384 1007.69L799.384 1044.09ZM1024.66 1184.97L1024.66 1184.97C1035.51 1203.14 1050.46 1217.42 1069.51 1227.83L1069.51 1227.84C1088.55 1238.03 1109.92 1243.12 1133.59 1243.12C1157.26 1243.12 1178.62 1238.03 1197.67 1227.84L1197.67 1227.83C1216.71 1217.42 1231.67 1203.14 1242.52 1184.97C1253.37 1166.8 1258.8 1146.3 1258.8 1123.5C1258.8 1100.7 1253.37 1080.2 1242.52 1062.03C1231.66 1043.86 1216.71 1029.68 1197.67 1019.5C1178.62 1009.09 1157.26 1003.89 1133.59 1003.89C1109.92 1003.89 1088.55 1009.09 1069.51 1019.5C1050.46 1029.68 1035.51 1043.98 1024.66 1062.36C1013.8 1080.53 1008.38 1100.92 1008.38 1123.5C1008.38 1146.08 1013.8 1166.58 1024.66 1184.97ZM1203.94 1082.05L1203.94 1082.06C1210.95 1094.33 1214.46 1108.14 1214.46 1123.5C1214.46 1138.86 1210.95 1152.78 1203.94 1165.28C1196.93 1177.55 1187.29 1187.19 1175.02 1194.2C1162.76 1200.99 1148.95 1204.4 1133.59 1204.4C1118.23 1204.4 1104.42 1200.99 1092.15 1194.2C1079.88 1187.19 1070.25 1177.55 1063.23 1165.28C1056.22 1152.78 1052.71 1138.86 1052.71 1123.5C1052.71 1108.14 1056.22 1094.33 1063.23 1082.06L1063.23 1082.05C1070.25 1069.56 1079.88 1059.92 1092.15 1053.13L1092.16 1053.13C1104.42 1046.12 1118.23 1042.61 1133.59 1042.61C1148.95 1042.61 1162.75 1046.12 1175.02 1053.13L1175.03 1053.13C1187.29 1059.92 1196.93 1069.56 1203.94 1082.05ZM1440.95 1239.6L1441.1 1239.81L1441.36 1239.81L1490.98 1239.81L1491.96 1239.81L1491.39 1239.01L1404.6 1119.53L1485.43 1007.99L1486.01 1007.19L1485.03 1007.19L1438.38 1007.19L1438.13 1007.19L1437.98 1007.4L1379.83 1089.22L1321.03 1007.4L1320.88 1007.19L1320.62 1007.19L1271.99 1007.19L1271.02 1007.19L1271.59 1007.99L1352.75 1121.18L1266.96 1239.01L1266.38 1239.81L1267.36 1239.81L1316.32 1239.81L1316.58 1239.81L1316.73 1239.6L1378.51 1152.16L1440.95 1239.6ZM726.567 1056.39C736.133 1064.22 740.939 1075.42 740.939 1090.08C740.939 1104.74 736.134 1116.06 726.564 1124.11C716.985 1131.95 702.894 1135.9 684.212 1135.9L634.431 1135.9L634.431 1044.59L684.212 1044.59C702.896 1044.59 716.988 1048.55 726.567 1056.39Z" stroke="#009B97" stroke-opacity="0.15"/>
<path d="M726.001 1008.48C709.941 1001.29 691.024 997.702 669.263 997.702L566.21 997.702L565.71 997.702L565.71 998.202L565.711 1248.8L565.711 1249.3L566.211 1249.3L612.727 1249.3L613.227 1249.3L613.227 1248.8L613.227 1176.27L669.263 1176.27C673.37 1176.27 676.513 1176.16 678.683 1175.94L729.682 1249.08L729.831 1249.3L725.798 1008.94M726.001 1008.48C726.001 1008.48 726.002 1008.48 726.003 1008.49L725.798 1008.94M726.001 1008.48C726.001 1008.48 726 1008.48 726 1008.48L725.798 1008.94M726.001 1008.48C742.301 1015.68 754.786 1026 763.432 1039.46C772.08 1052.92 776.393 1068.88 776.393 1087.34C776.393 1106.28 771.72 1122.61 762.352 1136.31M725.798 1008.94C742.02 1016.1 754.424 1026.36 763.012 1039.73C771.599 1053.09 775.893 1068.97 775.893 1087.34C775.893 1106.2 771.242 1122.43 761.938 1136.03M762.352 1136.31C762.353 1136.31 762.354 1136.31 762.354 1136.31L761.938 1136.03M762.352 1136.31C762.352 1136.31 762.351 1136.31 762.351 1136.31L761.938 1136.03M762.352 1136.31L761.938 1136.03M780.187 1248.8L779.777 1249.09L779.577 1248.8L780.187 1248.8ZM780.187 1248.8L780.187 1248.3L779.837 1248.3L780.187 1248.8ZM264.21 1189.98L264.211 1189.99C275.947 1209.63 292.115 1225.09 312.707 1236.35L312.71 1236.35C333.305 1247.37 356.407 1252.88 382.006 1252.88C407.604 1252.88 430.706 1247.37 451.301 1236.35L451.305 1236.35C471.896 1225.09 488.064 1209.63 499.8 1189.99C511.539 1170.33 517.404 1148.17 517.404 1123.5C517.404 1098.83 511.539 1076.67 499.8 1057.01C488.064 1037.37 471.895 1022.03 451.303 1011.01C430.708 999.747 407.605 994.122 382.006 994.122C356.406 994.122 333.303 999.747 312.708 1011.01C292.115 1022.03 275.946 1037.49 264.211 1057.37C252.473 1077.03 246.607 1099.07 246.607 1123.5C246.607 1147.93 252.473 1170.09 264.21 1189.98ZM458.143 1078.64L458.145 1078.64C465.732 1091.92 469.53 1106.87 469.53 1123.5C469.53 1140.13 465.732 1155.2 458.144 1168.72C450.555 1182.01 440.124 1192.44 426.846 1200.03C413.569 1207.39 398.626 1211.07 382.006 1211.07C365.385 1211.07 350.443 1207.39 337.166 1200.03C323.887 1192.44 313.456 1182.01 305.867 1168.72C298.279 1155.2 294.482 1140.13 294.482 1123.5C294.482 1106.87 298.28 1091.92 305.866 1078.64L305.868 1078.64C313.457 1065.11 323.887 1054.68 337.163 1047.33L337.169 1047.32C350.445 1039.73 365.387 1035.93 382.006 1035.93C398.625 1035.93 413.566 1039.73 426.843 1047.32L426.849 1047.33C440.124 1054.68 450.554 1065.11 458.143 1078.64ZM722.873 1166.88L722.578 1166.46C722.738 1166.4 722.898 1166.33 723.057 1166.27L723.352 1166.69C723.192 1166.76 723.033 1166.82 722.873 1166.88ZM791.738 1037.58L791.738 1038.08L792.238 1038.08L874.753 1038.08L874.753 1248.8L874.753 1249.3L875.253 1249.3L921.769 1249.3L922.269 1249.3L922.269 1248.8L922.269 1038.08L1004.78 1038.08L1005.28 1038.08L1005.28 1037.58L1005.28 998.201L1005.28 997.701L1004.78 997.701L792.238 997.702L791.738 997.702L791.738 998.202L791.738 1037.58ZM1035.41 1189.98L1035.41 1189.99C1047.15 1209.63 1063.32 1225.09 1083.91 1236.35L1083.91 1236.35C1104.51 1247.37 1127.61 1252.88 1153.21 1252.88C1178.81 1252.88 1201.91 1247.37 1222.5 1236.35L1222.51 1236.35C1243.1 1225.09 1259.26 1209.63 1271 1189.99C1282.74 1170.33 1288.6 1148.17 1288.6 1123.5C1288.6 1098.83 1282.74 1076.67 1271 1057.01C1259.26 1037.37 1243.1 1022.03 1222.5 1011.01C1201.91 999.747 1178.81 994.122 1153.21 994.122C1127.61 994.122 1104.5 999.747 1083.91 1011.01C1063.32 1022.03 1047.15 1037.49 1035.41 1057.37C1023.67 1077.03 1017.81 1099.07 1017.81 1123.5C1017.81 1147.93 1023.67 1170.09 1035.41 1189.98ZM1229.34 1078.64L1229.35 1078.64C1236.93 1091.92 1240.73 1106.87 1240.73 1123.5C1240.73 1140.13 1236.93 1155.2 1229.34 1168.72C1221.76 1182.01 1211.33 1192.44 1198.05 1200.03C1184.77 1207.39 1169.83 1211.07 1153.21 1211.07C1136.59 1211.07 1121.64 1207.39 1108.37 1200.03C1095.09 1192.44 1084.66 1182.01 1077.07 1168.72C1069.48 1155.2 1065.68 1140.13 1065.68 1123.5C1065.68 1106.87 1069.48 1091.92 1077.07 1078.64L1077.07 1078.64C1084.66 1065.11 1095.09 1054.68 1108.36 1047.33L1108.37 1047.32C1121.65 1039.73 1136.59 1035.93 1153.21 1035.93C1169.83 1035.93 1184.77 1039.73 1198.04 1047.32L1198.05 1047.33C1211.33 1054.68 1221.75 1065.11 1229.34 1078.64ZM1485.72 1249.09L1485.87 1249.3L1486.12 1249.3L1539.8 1249.3L1540.78 1249.3L1540.2 1248.5L1446.31 1119.2L1533.76 998.495L1534.34 997.701L1533.36 997.701L1482.9 997.701L1482.65 997.701L1482.5 997.912L1419.57 1086.48L1355.93 997.91L1355.78 997.701L1355.52 997.701L1302.92 997.701L1301.95 997.701L1302.51 998.493L1390.33 1120.99L1297.51 1248.5L1296.93 1249.3L1297.91 1249.3L1350.87 1249.3L1351.13 1249.3L1351.28 1249.09L1418.14 1154.44L1485.72 1249.09ZM712.958 1050.86C723.317 1059.34 728.519 1071.47 728.519 1087.34C728.519 1103.21 723.317 1115.47 712.955 1124.19C702.583 1132.68 687.33 1136.96 667.116 1136.96L613.227 1136.96L613.227 1038.08L667.116 1038.08C687.332 1038.08 702.586 1042.37 712.958 1050.86Z" stroke="#009B97" stroke-opacity="0.15"/>
<path d="M188.221 1198.01L188.223 1198.01C201.371 1220.03 219.485 1237.36 242.555 1249.98L242.559 1249.98C265.633 1262.33 291.517 1268.5 320.2 1268.5C348.883 1268.5 374.767 1262.33 397.841 1249.98L397.845 1249.98C420.915 1237.36 439.029 1220.03 452.178 1198.01C465.329 1175.99 471.9 1151.15 471.9 1123.5C471.9 1095.86 465.329 1071.01 452.178 1048.99C439.029 1026.97 420.914 1009.78 397.843 997.425C374.769 984.806 348.884 978.5 320.2 978.5C291.516 978.5 265.631 984.806 242.557 997.426C219.485 1009.78 201.37 1027.1 188.222 1049.39C175.072 1071.41 168.5 1096.12 168.5 1123.5C168.5 1150.88 175.072 1175.72 188.221 1198.01ZM405.591 1073.17L405.593 1073.17C414.102 1088.08 418.361 1104.85 418.361 1123.5C418.361 1142.15 414.102 1159.06 405.592 1174.23C397.08 1189.14 385.382 1200.85 370.488 1209.36C355.597 1217.61 338.838 1221.74 320.2 1221.74C301.562 1221.74 284.803 1217.61 269.912 1209.36C255.018 1200.85 243.319 1189.14 234.808 1174.23C226.298 1159.06 222.039 1142.15 222.039 1123.5C222.039 1104.85 226.298 1088.08 234.807 1073.17L234.809 1073.17C243.321 1058 255.019 1046.29 269.909 1038.04L269.915 1038.04C284.806 1029.52 301.563 1025.26 320.2 1025.26C338.837 1025.26 355.595 1029.52 370.486 1038.04L370.492 1038.04C385.382 1046.29 397.08 1058 405.591 1073.17ZM709.941 1264.27L710.091 1264.49L710.352 1264.49L766.5 1264.49L767.46 1264.49L766.91 1263.7L702.703 1171.9C721.746 1164.37 736.341 1153.02 746.46 1137.83C756.952 1122.48 762.187 1104.18 762.187 1082.96C762.187 1062.27 757.355 1044.38 747.67 1029.3C737.986 1014.23 724.001 1002.66 705.741 994.598C687.75 986.536 666.555 982.514 642.171 982.514L526.665 982.514L526.165 982.514L526.165 983.014L526.165 1263.99L526.165 1264.49L526.665 1264.49L578.803 1264.49L579.303 1264.49L579.303 1263.99L579.303 1182.6L642.171 1182.6C646.796 1182.6 650.329 1182.48 652.759 1182.23L709.941 1264.27ZM779.508 1027.17L779.508 1027.67L780.008 1027.67L872.554 1027.67L872.554 1263.99L872.554 1264.49L873.054 1264.49L925.192 1264.49L925.692 1264.49L925.692 1263.99L925.692 1027.67L1018.24 1027.67L1018.74 1027.67L1018.74 1027.17L1018.74 983.014L1018.74 982.514L1018.24 982.514L780.008 982.514L779.508 982.514L779.508 983.014L779.508 1027.17ZM1052.62 1198.01L1052.62 1198.01C1065.77 1220.03 1083.88 1237.36 1106.95 1249.98L1106.96 1249.98C1130.03 1262.33 1155.91 1268.5 1184.6 1268.5C1213.28 1268.5 1239.16 1262.33 1262.24 1249.98L1262.24 1249.97C1285.31 1237.36 1303.43 1220.03 1316.57 1198.01C1329.73 1175.99 1336.3 1151.15 1336.3 1123.5C1336.3 1095.86 1329.73 1071.01 1316.57 1048.99C1303.43 1026.97 1285.31 1009.78 1262.24 997.427C1239.17 984.806 1213.28 978.5 1184.6 978.5C1155.91 978.5 1130.03 984.806 1106.95 997.426C1083.88 1009.78 1065.77 1027.1 1052.62 1049.39C1039.47 1071.41 1032.9 1096.12 1032.9 1123.5C1032.9 1150.88 1039.47 1175.72 1052.62 1198.01ZM1269.99 1073.17L1269.99 1073.17C1278.5 1088.08 1282.76 1104.85 1282.76 1123.5C1282.76 1142.15 1278.5 1159.06 1269.99 1174.23C1261.48 1189.13 1249.78 1200.84 1234.89 1209.36C1220 1217.61 1203.24 1221.74 1184.6 1221.74C1165.96 1221.74 1149.2 1217.61 1134.31 1209.36C1119.42 1200.85 1107.72 1189.14 1099.21 1174.23C1090.7 1159.06 1086.44 1142.15 1086.44 1123.5C1086.44 1104.85 1090.7 1088.08 1099.2 1073.17L1099.21 1073.17C1107.72 1058 1119.42 1046.29 1134.31 1038.04L1134.31 1038.04C1149.2 1029.52 1165.96 1025.26 1184.6 1025.26C1203.23 1025.26 1219.99 1029.52 1234.88 1038.04L1234.89 1038.04C1249.78 1046.29 1261.48 1058 1269.99 1073.17ZM1557.34 1264.28L1557.49 1264.49L1557.75 1264.49L1617.91 1264.49L1618.89 1264.49L1618.31 1263.69L1513.05 1118.68L1611.09 983.307L1611.67 982.514L1610.69 982.514L1554.14 982.514L1553.88 982.514L1553.73 982.724L1483.15 1082.1L1411.77 982.722L1411.62 982.514L1411.36 982.514L1352.4 982.514L1351.43 982.514L1352 983.305L1450.45 1120.69L1346.38 1263.69L1345.81 1264.49L1346.79 1264.49L1406.15 1264.49L1406.41 1264.49L1406.55 1264.27L1481.55 1158.08L1557.34 1264.28ZM691.185 1042C702.812 1051.52 708.648 1065.15 708.648 1082.96C708.648 1100.77 702.813 1114.53 691.182 1124.32C679.542 1133.85 662.429 1138.65 639.765 1138.65L579.303 1138.65L579.303 1027.67L639.765 1027.67C662.431 1027.67 679.545 1032.47 691.185 1042Z" stroke="#009B97" stroke-opacity="0.15"/>
<path d="M16.7042 674.967L16.7055 674.969C27.5584 693.135 42.5105 707.425 61.5522 717.834L61.5562 717.836C80.6012 728.026 101.965 733.116 125.635 733.116C149.306 733.116 170.67 728.026 189.715 717.836L189.719 717.834C208.76 707.425 223.712 693.135 234.565 674.969C245.421 656.797 250.845 636.304 250.845 613.501C250.845 590.697 245.421 570.204 234.565 552.032C223.712 533.865 208.759 519.685 189.716 509.497C170.671 499.086 149.307 493.886 125.635 493.886C101.964 493.886 80.5993 499.086 61.554 509.497C42.5101 519.686 27.5575 533.977 16.7049 552.364C5.84987 570.535 0.425798 590.918 0.425802 613.501C0.425806 636.084 5.85008 656.577 16.7042 674.967ZM195.989 572.055L195.991 572.058C203.001 584.329 206.511 598.139 206.511 613.501C206.511 628.862 203.002 642.783 195.99 655.276C188.978 667.549 179.34 677.189 167.071 684.203C154.803 690.995 140.995 694.396 125.635 694.396C110.276 694.396 96.4684 690.995 84.2004 684.203C71.9301 677.189 62.2921 667.548 55.2801 655.275C48.2689 642.782 44.7599 628.861 44.7599 613.501C44.7599 598.139 48.2693 584.329 55.2795 572.058L55.2813 572.055C62.2939 559.561 71.9309 549.923 84.1975 543.131L84.2034 543.127C96.4711 536.116 110.278 532.605 125.635 532.605C140.993 532.605 154.8 536.116 167.067 543.127L167.073 543.131C179.34 549.923 188.977 559.561 195.989 572.055ZM447.021 729.593L447.171 729.807L447.431 729.807L493.743 729.807L494.703 729.807L494.152 729.02L441.258 653.439C456.928 647.229 468.947 637.872 477.286 625.362C485.951 612.694 490.273 597.593 490.273 580.082C490.273 563.017 486.284 548.251 478.285 535.805C470.287 523.361 458.739 513.816 443.664 507.163C428.811 500.512 411.318 497.194 391.196 497.194L295.927 497.194L295.427 497.194L295.427 497.694L295.427 729.307L295.427 729.807L295.927 729.807L338.931 729.807L339.431 729.807L339.431 729.307L339.431 662.308L391.196 662.308C394.98 662.308 397.88 662.208 399.887 662.006L447.021 729.593ZM504.384 534.09L504.384 534.59L504.884 534.59L581.128 534.59L581.128 729.307L581.128 729.807L581.628 729.807L624.631 729.807L625.131 729.807L625.131 729.307L625.131 534.59L701.376 534.59L701.876 534.59L701.876 534.09L701.876 497.694L701.876 497.194L701.376 497.194L504.884 497.194L504.384 497.194L504.384 497.694L504.384 534.09ZM729.657 674.966L729.658 674.969C740.511 693.135 755.463 707.425 774.505 717.834L774.509 717.836C793.554 728.025 814.918 733.115 838.588 733.115C862.259 733.115 883.623 728.025 902.668 717.836L902.672 717.834C921.713 707.425 936.665 693.135 947.518 674.969C958.374 656.797 963.798 636.303 963.798 613.5C963.798 590.697 958.374 570.204 947.518 552.032C936.665 533.865 921.711 519.684 902.668 509.496C883.623 499.086 862.259 493.885 838.588 493.885C814.917 493.885 793.554 499.086 774.509 509.496C755.465 519.685 740.511 533.976 729.658 552.363C718.803 570.534 713.379 590.917 713.379 613.5C713.379 636.084 718.803 656.577 729.657 674.966ZM908.942 572.055L908.944 572.058C915.954 584.329 919.464 598.139 919.464 613.5C919.464 628.862 915.954 642.784 908.942 655.277C901.93 667.549 892.293 677.189 880.023 684.203C867.755 690.995 853.948 694.396 838.588 694.396C823.229 694.396 809.422 690.995 797.154 684.203C784.884 677.189 775.246 667.55 768.234 655.277C761.222 642.784 757.713 628.862 757.713 613.5C757.713 598.139 761.222 584.329 768.232 572.058L768.234 572.055C775.247 559.561 784.884 549.923 797.15 543.131L797.156 543.127C809.424 536.115 823.231 532.605 838.588 532.605C853.946 532.605 867.753 536.115 880.02 543.127L880.026 543.131C892.293 549.923 901.93 559.561 908.942 572.055ZM1145.95 729.597L1146.1 729.807L1146.36 729.807L1195.98 729.807L1196.96 729.807L1196.39 729.013L1109.6 609.53L1190.43 497.988L1191.01 497.194L1190.03 497.194L1143.38 497.194L1143.13 497.194L1142.98 497.404L1084.83 579.222L1026.03 497.402L1025.88 497.194L1025.62 497.194L976.995 497.194L976.021 497.194L976.589 497.986L1057.75 611.182L971.96 729.012L971.381 729.807L972.364 729.807L1021.32 729.807L1021.58 729.807L1021.73 729.595L1083.51 642.157L1145.95 729.597ZM431.567 546.389C441.133 554.218 445.939 565.423 445.939 580.082C445.939 594.74 441.134 606.058 431.564 614.109C421.985 621.946 407.894 625.905 389.212 625.905L339.431 625.905L339.431 534.591L389.212 534.591C407.896 534.591 421.988 538.55 431.567 546.389Z" stroke="#009B97" stroke-opacity="0.15"/>
<path d="M431.001 498.484C414.941 491.29 396.024 487.702 374.263 487.702L271.21 487.702L270.71 487.702L270.71 488.202L270.711 738.799L270.711 739.299L271.211 739.299L317.727 739.299L318.227 739.299L318.227 738.799L318.227 666.267L374.263 666.267C378.37 666.267 381.513 666.159 383.683 665.938L434.682 739.085L434.831 739.299L430.798 498.941M431.001 498.484C431.001 498.485 431.002 498.485 431.003 498.485L430.798 498.941M431.001 498.484C431.001 498.484 431 498.484 431 498.484L430.798 498.941M431.001 498.484C447.301 505.679 459.786 516.002 468.432 529.459C477.08 542.917 481.393 558.885 481.393 577.342C481.393 596.282 476.72 612.612 467.352 626.31M430.798 498.941C447.02 506.101 459.424 516.364 468.012 529.729C476.599 543.094 480.893 558.965 480.893 577.342C480.893 596.197 476.242 612.426 466.938 626.03M467.352 626.31C467.353 626.309 467.354 626.308 467.354 626.307L466.938 626.03M467.352 626.31C467.352 626.311 467.351 626.312 467.351 626.312L466.938 626.03M467.352 626.31L466.938 626.03M485.187 738.799L484.777 739.085L484.577 738.799L485.187 738.799ZM485.187 738.799L485.187 738.299L484.837 738.299L485.187 738.799ZM-30.79 679.984L-30.7886 679.986C-19.0529 699.635 -2.88465 715.091 17.7065 726.35L17.7105 726.352C38.305 737.373 61.4071 742.879 87.0057 742.879C112.604 742.879 135.706 737.373 156.301 726.352L156.305 726.35C176.896 715.091 193.064 699.635 204.8 679.986C216.539 660.332 222.404 638.165 222.404 613.5C222.404 588.835 216.539 566.669 204.8 547.015C193.064 527.365 176.895 512.028 156.303 501.008C135.708 489.747 112.605 484.122 87.0057 484.122C61.406 484.122 38.303 489.747 17.7083 501.008C-2.88507 512.029 -19.0538 527.486 -30.7893 547.374C-42.5271 567.027 -48.3926 589.073 -48.3926 613.5C-48.3926 637.928 -42.5269 660.093 -30.79 679.984ZM163.143 568.637L163.145 568.641C170.732 581.924 174.53 596.873 174.53 613.5C174.53 630.127 170.732 645.197 163.144 658.72C155.555 672.006 145.124 682.441 131.846 690.034C118.569 697.386 103.626 701.067 87.0057 701.067C70.3853 701.067 55.4425 697.386 42.1656 690.034C28.8866 682.441 18.456 672.005 10.8675 658.72C3.27936 645.196 -0.518083 630.127 -0.518086 613.5C-0.518089 596.873 3.2796 581.924 10.8663 568.641L10.8682 568.637C18.4573 555.113 28.887 544.679 42.1626 537.326L42.1685 537.323C55.4452 529.733 70.3868 525.933 87.0057 525.933C103.625 525.933 118.566 529.733 131.843 537.323L131.849 537.326C145.124 544.679 155.554 555.113 163.143 568.637ZM427.873 656.881L427.578 656.46C427.738 656.397 427.898 656.335 428.057 656.272L428.352 656.693C428.192 656.756 428.033 656.819 427.873 656.881ZM496.738 527.581L496.738 528.081L497.238 528.081L579.753 528.081L579.753 738.799L579.753 739.299L580.253 739.299L626.769 739.299L627.269 739.299L627.269 738.799L627.269 528.081L709.784 528.081L710.284 528.081L710.284 527.581L710.284 488.201L710.284 487.701L709.784 487.701L497.238 487.702L496.738 487.702L496.738 488.202L496.738 527.581ZM740.411 679.983L740.412 679.986C752.148 699.635 768.316 715.091 788.907 726.349L788.911 726.352C809.506 737.373 832.608 742.879 858.206 742.879C883.805 742.878 906.907 737.373 927.502 726.352L927.506 726.349C948.097 715.091 964.265 699.635 976.001 679.986C987.739 660.332 993.605 638.165 993.605 613.5C993.605 588.835 987.739 566.668 976.001 547.014C964.265 527.365 948.096 512.028 927.504 501.008C906.909 489.747 883.806 484.122 858.206 484.122C832.607 484.122 809.503 489.747 788.909 501.008C768.316 512.029 752.147 527.485 740.412 547.372C728.674 567.026 722.808 589.072 722.808 613.5C722.808 637.928 728.674 660.093 740.411 679.983ZM934.344 568.637L934.346 568.641C941.933 581.924 945.73 596.873 945.73 613.5C945.73 630.127 941.933 645.197 934.344 658.721C926.755 672.006 916.325 682.441 903.046 690.034C889.769 697.386 874.827 701.067 858.206 701.067C841.586 701.067 826.643 697.386 813.367 690.034C800.088 682.441 789.658 672.006 782.069 658.721C774.48 645.197 770.683 630.127 770.683 613.5C770.683 596.873 774.48 581.924 782.067 568.641L782.069 568.637C789.658 555.113 800.088 544.679 813.363 537.326L813.369 537.323C826.646 529.733 841.588 525.933 858.206 525.933C874.825 525.933 889.767 529.733 903.044 537.323L903.05 537.326C916.325 544.679 926.755 555.113 934.344 568.637ZM1190.72 739.089L1190.87 739.298L1191.12 739.298L1244.8 739.298L1245.78 739.298L1245.2 738.505L1151.31 609.204L1238.76 488.495L1239.34 487.701L1238.36 487.701L1187.9 487.701L1187.65 487.701L1187.5 487.912L1124.57 576.482L1060.93 487.91L1060.78 487.701L1060.52 487.701L1007.92 487.701L1006.95 487.701L1007.51 488.493L1095.33 610.992L1002.51 738.504L1001.93 739.299L1002.91 739.299L1055.87 739.299L1056.13 739.299L1056.28 739.087L1123.14 644.435L1190.72 739.089ZM417.958 540.856C428.317 549.335 433.519 561.472 433.519 577.343C433.519 593.211 428.317 605.47 417.955 614.189C407.583 622.678 392.33 626.962 372.116 626.962L318.227 626.962L318.227 528.081L372.116 528.081C392.332 528.081 407.586 532.366 417.958 540.856Z" stroke="#009B97" stroke-opacity="0.15"/>
<path d="M-106.779 688.011L-106.777 688.014C-93.629 710.035 -75.5149 727.357 -52.4446 739.975L-52.4406 739.977C-29.367 752.329 -3.483 758.5 25.2002 758.5C53.8835 758.5 79.7674 752.329 102.841 739.977L102.845 739.975C125.915 727.357 144.029 710.035 157.178 688.014C170.329 665.987 176.9 641.145 176.9 613.5C176.9 585.855 170.329 561.013 157.178 538.987C144.029 516.965 125.914 499.777 102.843 487.425C79.7689 474.806 53.8843 468.5 25.2002 468.5C-3.48405 468.5 -29.3688 474.806 -52.4426 487.426C-75.5153 499.777 -93.6299 517.101 -106.778 539.389C-119.928 561.415 -126.5 586.122 -126.5 613.5C-126.5 640.879 -119.928 665.72 -106.779 688.011ZM110.591 563.17L110.593 563.173C119.102 578.076 123.361 594.848 123.361 613.5C123.361 632.152 119.102 649.059 110.592 664.232C102.08 679.137 90.3816 690.845 75.4883 699.363C60.5971 707.613 43.8384 711.742 25.2002 711.742C6.56198 711.742 -10.1969 707.613 -25.0881 699.363C-39.9815 690.845 -51.6805 679.137 -60.1916 664.231C-68.7022 649.058 -72.9609 632.152 -72.9609 613.5C-72.9609 594.848 -68.702 578.076 -60.1927 563.173L-60.1909 563.17C-51.6793 547.996 -39.9811 536.29 -25.0912 528.04L-25.0853 528.037C-10.1943 519.521 6.56342 515.258 25.2002 515.258C43.837 515.258 60.5947 519.521 75.4857 528.037L75.4916 528.04C90.3815 536.29 102.08 547.996 110.591 563.17ZM414.941 754.272L415.091 754.486L415.352 754.486L471.5 754.486L472.46 754.486L471.91 753.7L407.703 661.901C426.746 654.374 441.341 643.019 451.46 627.829C461.952 612.482 467.187 594.185 467.187 572.96C467.187 552.275 462.355 534.383 452.67 519.305C442.986 504.228 429.001 492.661 410.741 484.598C392.75 476.536 371.555 472.514 347.171 472.514L231.665 472.514L231.165 472.514L231.165 473.014L231.165 753.986L231.165 754.486L231.665 754.486L283.803 754.486L284.303 754.486L284.303 753.986L284.303 672.603L347.171 672.603C351.796 672.603 355.329 672.48 357.759 672.23L414.941 754.272ZM484.508 517.167L484.508 517.667L485.008 517.667L577.554 517.667L577.554 753.986L577.554 754.486L578.054 754.486L630.192 754.486L630.692 754.486L630.692 753.986L630.692 517.667L723.238 517.667L723.738 517.667L723.738 517.167L723.738 473.014L723.738 472.514L723.238 472.514L485.008 472.514L484.508 472.514L484.508 473.014L484.508 517.167ZM757.619 688.011L757.62 688.013C770.768 710.035 788.882 727.356 811.953 739.975L811.957 739.977C835.03 752.329 860.914 758.5 889.597 758.5C918.281 758.5 944.165 752.329 967.238 739.977L967.242 739.975C990.313 727.356 1008.43 710.035 1021.57 688.013C1034.73 665.987 1041.3 641.145 1041.3 613.5C1041.3 585.855 1034.73 561.013 1021.57 538.987C1008.43 516.966 990.313 499.778 967.242 487.427C944.168 474.806 918.282 468.5 889.597 468.5C860.913 468.5 835.028 474.806 811.954 487.426C788.882 499.777 770.768 517.1 757.62 539.388C744.469 561.414 737.897 586.122 737.897 613.5C737.897 640.878 744.469 665.719 757.619 688.011ZM974.989 563.17L974.99 563.173C983.5 578.076 987.759 594.848 987.759 613.5C987.759 632.151 983.5 649.057 974.99 664.229C966.479 679.135 954.781 690.844 939.887 699.362C924.996 707.612 908.236 711.742 889.597 711.742C870.959 711.742 854.2 707.613 839.309 699.363C824.416 690.845 812.717 679.137 804.206 664.232C795.695 649.059 791.436 632.152 791.436 613.5C791.436 594.848 795.695 578.076 804.204 563.173L804.206 563.17C812.718 547.996 824.416 536.289 839.306 528.04L839.312 528.037C854.203 519.521 870.961 515.258 889.597 515.258C908.234 515.258 924.992 519.521 939.883 528.037L939.889 528.04C954.779 536.289 966.477 547.996 974.989 563.17ZM1262.34 754.277L1262.49 754.486L1262.75 754.486L1322.91 754.486L1323.89 754.486L1323.31 753.692L1218.05 608.683L1316.09 473.307L1316.67 472.514L1315.69 472.514L1259.14 472.514L1258.88 472.514L1258.73 472.724L1188.15 572.099L1116.77 472.722L1116.62 472.514L1116.36 472.514L1057.4 472.514L1056.43 472.514L1057 473.305L1155.45 610.688L1051.38 753.692L1050.81 754.486L1051.79 754.486L1111.15 754.486L1111.41 754.486L1111.55 754.275L1186.55 648.08L1262.34 754.277ZM396.185 532.004C407.812 541.525 413.648 555.151 413.648 572.96C413.648 590.767 407.813 604.53 396.182 614.32C384.542 623.85 367.429 628.654 344.765 628.654L284.303 628.654L284.303 517.667L344.765 517.667C367.431 517.667 384.545 522.472 396.185 532.004Z" stroke="#009B97" stroke-opacity="0.15"/>
<path d="M-254.296 237.967L-254.294 237.969C-243.442 256.136 -228.489 270.425 -209.448 280.834L-209.444 280.836C-190.399 291.026 -169.035 296.116 -145.365 296.116C-121.694 296.116 -100.33 291.026 -81.2853 280.836L-81.2814 280.834C-62.2397 270.425 -47.2876 256.136 -36.4347 237.969C-25.5788 219.798 -20.155 199.304 -20.155 176.501C-20.155 153.698 -25.5788 133.204 -36.4347 115.032C-47.2879 96.8656 -62.2406 82.6856 -81.2836 72.497C-100.329 62.0866 -121.693 56.8858 -145.365 56.8858C-169.036 56.8858 -190.401 62.0866 -209.446 72.4972C-228.49 82.6864 -243.442 96.9774 -254.295 115.364C-265.15 133.535 -270.574 153.918 -270.574 176.501C-270.574 199.084 -265.15 219.577 -254.296 237.967ZM-75.0106 135.055L-75.0087 135.059C-67.9985 147.329 -64.4891 161.139 -64.4891 176.501C-64.4891 191.862 -67.9984 205.784 -75.0102 218.277C-82.0221 230.549 -91.6597 240.189 -103.929 247.203C-116.197 253.995 -130.005 257.396 -145.365 257.396C-160.724 257.396 -174.532 253.995 -186.8 247.203C-199.07 240.189 -208.708 230.549 -215.72 218.275C-222.731 205.782 -226.24 191.861 -226.24 176.501C-226.24 161.139 -222.731 147.329 -215.721 135.059L-215.719 135.055C-208.706 122.561 -199.069 112.923 -186.803 106.131L-186.797 106.128C-174.529 99.1158 -160.722 95.6056 -145.365 95.6056C-130.007 95.6056 -116.2 99.1158 -103.933 106.128L-103.927 106.131C-91.6601 112.923 -82.0231 122.561 -75.0106 135.055ZM176.021 292.593L176.171 292.807L176.431 292.807L222.743 292.807L223.703 292.807L223.152 292.02L170.258 216.439C185.928 210.229 197.947 200.873 206.286 188.362C214.951 175.694 219.273 160.593 219.273 143.082C219.273 126.017 215.284 111.251 207.285 98.8057C199.287 86.3612 187.739 76.8158 172.664 70.1635C157.811 63.5118 140.318 60.1945 120.196 60.1945L24.9274 60.1945L24.4274 60.1945L24.4274 60.6945L24.4275 292.307L24.4275 292.807L24.9275 292.807L67.9308 292.807L68.4308 292.807L68.4308 292.307L68.4308 225.309L120.196 225.308C123.98 225.308 126.88 225.209 128.887 225.006L176.021 292.593ZM233.384 97.0907L233.384 97.5907L233.884 97.5907L310.128 97.5907L310.128 292.307L310.128 292.807L310.628 292.807L353.631 292.807L354.131 292.807L354.131 292.307L354.131 97.5907L430.376 97.5907L430.876 97.5907L430.876 97.0907L430.876 60.6945L430.876 60.1945L430.376 60.1945L233.884 60.1945L233.384 60.1945L233.384 60.6945L233.384 97.0907ZM458.657 237.967L458.658 237.969C469.511 256.135 484.463 270.425 503.505 280.834L503.509 280.836C522.554 291.026 543.918 296.116 567.588 296.116C591.259 296.116 612.623 291.026 631.668 280.836L631.672 280.834C650.713 270.425 665.665 256.135 676.518 237.969C687.374 219.798 692.798 199.304 692.798 176.501C692.798 153.698 687.374 133.204 676.518 115.032C665.665 96.865 650.711 82.6846 631.668 72.4959C612.623 62.0861 591.259 56.8857 567.588 56.8857C543.917 56.8857 522.554 62.0861 503.509 72.4959C484.465 82.6851 469.511 96.9761 458.658 115.363C447.803 133.534 442.379 153.917 442.379 176.501C442.379 199.084 447.803 219.577 458.657 237.967ZM637.942 135.055L637.944 135.058C644.954 147.329 648.464 161.139 648.464 176.501C648.464 191.862 644.954 205.784 637.942 218.277C630.93 230.55 621.293 240.19 609.023 247.203C596.755 253.995 582.948 257.396 567.588 257.396C552.229 257.396 538.422 253.995 526.154 247.203C513.884 240.19 504.246 230.55 497.234 218.277C490.222 205.784 486.713 191.862 486.713 176.501C486.713 161.139 490.222 147.329 497.232 135.058L497.234 135.055C504.247 122.561 513.884 112.923 526.15 106.131L526.156 106.128C538.424 99.1157 552.231 95.6054 567.588 95.6054C582.946 95.6054 596.753 99.1157 609.02 106.128L609.026 106.131C621.293 112.923 630.93 122.561 637.942 135.055ZM874.955 292.597L875.105 292.807L875.362 292.807L924.981 292.807L925.962 292.807L925.386 292.013L838.6 172.53L919.432 60.9878L920.007 60.1944L919.027 60.1944L872.385 60.1944L872.127 60.1944L871.977 60.4047L813.832 142.222L755.028 60.4026L754.878 60.1944L754.622 60.1944L705.995 60.1944L705.021 60.1944L705.589 60.9858L786.754 174.182L700.96 292.013L700.381 292.807L701.364 292.807L750.321 292.807L750.58 292.807L750.73 292.595L812.513 205.157L874.955 292.597ZM160.567 109.389C170.133 117.218 174.939 128.423 174.939 143.082C174.939 157.74 170.134 169.059 160.564 177.109C150.985 184.947 136.894 188.905 118.212 188.905L68.4307 188.905L68.4307 97.5908L118.212 97.5908C136.896 97.5908 150.988 101.55 160.567 109.389Z" stroke="#009B97" stroke-opacity="0.15"/>
<path d="M160.001 61.4845C143.941 54.2903 125.024 50.7018 103.263 50.7018L0.21048 50.7018L-0.28952 50.7018L-0.28952 51.2018L-0.289476 301.799L-0.289476 302.299L0.210524 302.299L46.7272 302.299L47.2272 302.299L47.2272 301.799L47.2272 229.268L103.263 229.268C107.37 229.268 110.513 229.159 112.683 228.938L163.682 302.085L163.831 302.299L159.798 61.9417M160.001 61.4845C160.001 61.4848 160.002 61.4851 160.003 61.4854L159.798 61.9417M160.001 61.4845C160.001 61.4844 160 61.4843 160 61.4843L159.798 61.9417M160.001 61.4845C176.301 68.6792 188.786 79.0021 197.432 92.459C206.08 105.917 210.393 121.885 210.393 140.343C210.393 159.282 205.72 175.612 196.352 189.311M159.798 61.9417C176.02 69.1016 188.424 79.3641 197.012 92.7293C205.599 106.094 209.893 121.966 209.893 140.343C209.893 159.197 205.242 175.426 195.938 189.03M196.352 189.311C196.353 189.31 196.354 189.308 196.354 189.307L195.938 189.03M196.352 189.311C196.352 189.311 196.351 189.312 196.351 189.312L195.938 189.03M196.352 189.311L195.938 189.03M214.187 301.799L213.777 302.085L213.577 301.799L214.187 301.799ZM214.187 301.799L214.187 301.299L213.837 301.299L214.187 301.799ZM-301.79 242.984L-301.789 242.986C-290.053 262.635 -273.885 278.091 -253.293 289.35L-253.29 289.352C-232.695 300.373 -209.593 305.879 -183.994 305.879C-158.396 305.879 -135.294 300.373 -114.699 289.352L-114.695 289.35C-94.1039 278.091 -77.9357 262.635 -66.1999 242.986C-54.4612 223.332 -48.596 201.166 -48.596 176.5C-48.596 151.835 -54.4612 129.669 -66.2 110.015C-77.9359 90.3653 -94.1048 75.0281 -114.697 64.0078C-135.292 52.7476 -158.395 47.1219 -183.994 47.1219C-209.594 47.1219 -232.697 52.7476 -253.292 64.008C-273.885 75.029 -290.054 90.4861 -301.789 110.374C-313.527 130.027 -319.393 152.073 -319.393 176.5C-319.393 200.928 -313.527 223.093 -301.79 242.984ZM-107.857 131.638L-107.855 131.641C-100.268 144.924 -96.4705 159.873 -96.4705 176.5C-96.4705 193.127 -100.268 208.197 -107.856 221.721C-115.445 235.006 -125.876 245.442 -139.154 253.034C-152.431 260.386 -167.374 264.067 -183.994 264.067C-200.615 264.067 -215.557 260.386 -228.834 253.034C-242.113 245.441 -252.544 235.006 -260.133 221.72C-267.721 208.196 -271.518 193.127 -271.518 176.5C-271.518 159.873 -267.72 144.924 -260.134 131.641L-260.132 131.638C-252.543 118.113 -242.113 107.679 -228.837 100.327L-228.831 100.323C-215.555 92.733 -200.613 88.9334 -183.994 88.9334C-167.375 88.9334 -152.434 92.733 -139.157 100.323L-139.151 100.327C-125.876 107.679 -115.446 118.113 -107.857 131.638ZM156.873 219.882L156.578 219.46C156.738 219.398 156.898 219.335 157.057 219.272L157.352 219.693C157.192 219.756 157.033 219.819 156.873 219.882ZM225.738 90.5813L225.738 91.0813L226.238 91.0813L308.753 91.0813L308.753 301.799L308.753 302.299L309.253 302.299L355.769 302.299L356.269 302.299L356.269 301.799L356.269 91.0813L438.784 91.0813L439.284 91.0813L439.284 90.5813L439.284 51.2017L439.284 50.7017L438.784 50.7017L226.238 50.7018L225.738 50.7018L225.738 51.2018L225.738 90.5813ZM469.411 242.984L469.412 242.986C481.148 262.635 497.316 278.091 517.907 289.35L517.911 289.352C538.506 300.373 561.608 305.879 587.206 305.879C612.805 305.879 635.907 300.373 656.502 289.352L656.506 289.35C677.097 278.091 693.265 262.635 705.001 242.986C716.739 223.332 722.605 201.166 722.605 176.5C722.605 151.835 716.739 129.669 705.001 110.015C693.265 90.3654 677.096 75.0284 656.504 64.0081C635.909 52.7476 612.806 47.1218 587.206 47.1218C561.607 47.1218 538.503 52.7476 517.909 64.0081C497.316 75.0288 481.147 90.4856 469.412 110.373C457.674 130.026 451.808 152.073 451.808 176.5C451.808 200.928 457.674 223.093 469.411 242.984ZM663.344 131.637L663.346 131.641C670.933 144.924 674.73 159.873 674.73 176.5C674.73 193.127 670.933 208.197 663.344 221.721C655.755 235.006 645.325 245.442 632.046 253.034C618.769 260.386 603.827 264.067 587.206 264.067C570.586 264.067 555.643 260.386 542.367 253.034C529.088 245.442 518.658 235.006 511.069 221.721C503.48 208.197 499.683 193.127 499.683 176.5C499.683 159.873 503.48 144.924 511.067 131.641L511.069 131.637C518.658 118.113 529.088 107.679 542.363 100.327L542.369 100.323C555.646 92.7328 570.588 88.9333 587.206 88.9333C603.825 88.9333 618.767 92.7328 632.044 100.323L632.05 100.327C645.325 107.679 655.755 118.113 663.344 131.637ZM919.718 302.089L919.867 302.299L920.125 302.299L973.798 302.299L974.779 302.299L974.202 301.505L880.309 172.204L967.762 51.495L968.337 50.7016L967.357 50.7016L916.904 50.7017L916.646 50.7017L916.497 50.9121L853.568 139.483L789.926 50.9099L789.777 50.7017L789.52 50.7017L736.921 50.7017L735.947 50.7017L736.514 51.493L824.328 173.992L731.507 301.505L730.929 302.299L731.911 302.299L784.869 302.299L785.128 302.299L785.277 302.087L852.141 207.435L919.718 302.089ZM146.958 103.856C157.317 112.336 162.519 124.472 162.519 140.343C162.519 156.212 157.317 168.47 146.955 177.19C136.583 185.678 121.33 189.962 101.116 189.962L47.2272 189.962L47.2271 91.0814L101.116 91.0813C121.332 91.0813 136.586 95.3659 146.958 103.856Z" stroke="#009B97" stroke-opacity="0.15"/>
<path d="M-377.779 251.012L-377.777 251.014C-364.629 273.035 -346.515 290.357 -323.445 302.975L-323.441 302.978C-300.367 315.329 -274.483 321.501 -245.8 321.501C-217.117 321.501 -191.233 315.329 -168.159 302.978L-168.155 302.975C-145.085 290.357 -126.971 273.035 -113.822 251.014C-100.671 228.988 -94.0996 204.145 -94.0996 176.5C-94.0996 148.855 -100.671 124.013 -113.822 101.987C-126.971 79.9654 -145.086 62.7768 -168.157 50.4257C-191.231 37.8058 -217.116 31.5003 -245.8 31.5003C-274.484 31.5003 -300.369 37.8059 -323.443 50.4259C-346.515 62.7776 -364.63 80.1008 -377.778 102.39C-390.928 124.415 -397.5 149.123 -397.5 176.5C-397.5 203.879 -390.928 228.72 -377.779 251.012ZM-160.409 126.17L-160.407 126.173C-151.898 141.077 -147.639 157.848 -147.639 176.5C-147.639 195.152 -151.898 212.059 -160.408 227.232C-168.92 242.137 -180.618 253.846 -195.512 262.364C-210.403 270.613 -227.162 274.742 -245.8 274.742C-264.438 274.742 -281.197 270.613 -296.088 262.363C-310.982 253.845 -322.681 242.137 -331.192 227.231C-339.702 212.059 -343.961 195.152 -343.961 176.5C-343.961 157.848 -339.702 141.077 -331.193 126.173L-331.191 126.17C-322.679 110.996 -310.981 99.2899 -296.091 91.0406L-296.085 91.0372C-281.194 82.5211 -264.437 78.2587 -245.8 78.2587C-227.163 78.2587 -210.405 82.5211 -195.514 91.0372L-195.508 91.0405C-180.618 99.2898 -168.92 110.996 -160.409 126.17ZM143.941 317.273L144.091 317.487L144.352 317.487L200.5 317.487L201.46 317.487L200.91 316.7L136.703 224.901C155.746 217.374 170.341 206.02 180.46 190.829C190.952 175.482 196.187 157.185 196.187 135.96C196.187 115.275 191.355 97.3829 181.67 82.3051C171.986 67.2281 158.001 55.6612 139.741 47.5986C121.75 39.5366 100.555 35.5141 76.1711 35.5141L-39.3346 35.5142L-39.8346 35.5142L-39.8346 36.0142L-39.8346 316.987L-39.8346 317.487L-39.3346 317.487L12.8034 317.487L13.3034 317.487L13.3034 316.987L13.3034 235.603L76.1711 235.603C80.7964 235.603 84.3293 235.48 86.7588 235.23L143.941 317.273ZM213.508 80.1669L213.508 80.6669L214.008 80.6669L306.554 80.6669L306.554 316.987L306.554 317.487L307.054 317.487L359.192 317.487L359.692 317.487L359.692 316.987L359.692 80.6669L452.238 80.6669L452.738 80.6669L452.738 80.1669L452.738 36.0141L452.738 35.5141L452.238 35.5141L214.008 35.5141L213.508 35.5141L213.508 36.0141L213.508 80.1669ZM486.619 251.011L486.62 251.014C499.768 273.035 517.882 290.357 540.953 302.975L540.957 302.977C564.03 315.329 589.914 321.5 618.597 321.5C647.281 321.5 673.165 315.329 696.238 302.977L696.242 302.975C719.313 290.357 737.427 273.035 750.575 251.014C763.726 228.987 770.298 204.145 770.298 176.5C770.298 148.855 763.726 124.013 750.575 101.987C737.427 79.966 719.313 62.7778 696.242 50.4268C673.168 37.8061 647.282 31.5002 618.597 31.5002C589.913 31.5002 564.028 37.8058 540.954 50.4259C517.882 62.7774 499.768 80.1002 486.62 102.388C473.469 124.414 466.897 149.122 466.897 176.5C466.897 203.879 473.469 228.72 486.619 251.011ZM703.989 126.17L703.99 126.173C712.5 141.076 716.759 157.848 716.759 176.5C716.759 195.151 712.5 212.057 703.99 227.229C695.479 242.135 683.781 253.844 668.887 262.362C653.996 270.612 637.236 274.742 618.597 274.742C599.959 274.742 583.2 270.613 568.309 262.363C553.416 253.846 541.717 242.137 533.206 227.232C524.695 212.059 520.436 195.152 520.436 176.5C520.436 157.848 524.695 141.076 533.204 126.173L533.206 126.17C541.718 110.996 553.416 99.2897 568.306 91.0404L568.312 91.037C583.203 82.5209 599.961 78.2585 618.597 78.2585C637.234 78.2585 653.992 82.5209 668.883 91.0371L668.889 91.0404C683.779 99.2897 695.477 110.996 703.989 126.17ZM991.341 317.277L991.49 317.486L991.747 317.486L1051.91 317.486L1052.89 317.486L1052.31 316.693L947.045 171.683L1045.09 36.3073L1045.67 35.514L1044.69 35.514L988.138 35.514L987.88 35.514L987.73 35.7245L917.148 135.1L845.766 35.7223L845.617 35.514L845.36 35.514L786.404 35.514L785.431 35.514L785.998 36.3053L884.448 173.688L780.385 316.692L779.807 317.487L780.789 317.487L840.146 317.487L840.405 317.487L840.555 317.275L915.548 211.081L991.341 317.277ZM125.185 95.0038C136.812 104.525 142.648 118.151 142.648 135.96C142.648 153.767 136.813 167.53 125.182 177.32C113.542 186.85 96.4292 191.655 73.7647 191.655L13.3034 191.655L13.3034 80.667L73.7647 80.667C96.431 80.667 113.545 85.4722 125.185 95.0038Z" stroke="#009B97" stroke-opacity="0.15"/>
</g>
</svg>
