<svg xmlns="http://www.w3.org/2000/svg" viewBox="0 0 330.3 132.1"><style>.st0{fill:#2b9c96}</style><path d="M191 62.5c1.8 0 3.5.3 5.2 1 1.6.7 3 1.6 4.2 2.8 1.2 1.2 2.1 2.6 2.8 4.2.7 1.6 1 3.4 1 5.3s-.3 3.6-1 5.2-1.6 3-2.8 4.2c-1.2 1.2-2.6 2.1-4.2 2.8s-3.3 1-5.2 1c-1.8 0-3.6-.3-5.2-1s-3-1.6-4.2-2.8c-1.2-1.2-2.1-2.6-2.8-4.2-.7-1.6-1-3.4-1-5.2 0-1.9.3-3.6 1-5.3.7-1.6 1.6-3 2.8-4.2 1.2-1.2 2.6-2.1 4.2-2.8 1.7-.7 3.4-1 5.2-1zm.1 1.9c-1.6 0-3.1.3-4.4.9-1.4.6-2.5 1.4-3.5 2.4s-1.8 2.2-2.3 3.6c-.6 1.4-.8 2.9-.8 4.5s.3 3.1.8 4.5c.6 1.4 1.3 2.6 2.3 3.6s2.2 1.8 3.5 2.4c1.4.6 2.8.9 4.4.9s3-.3 4.4-.9 2.5-1.4 3.5-2.4 1.8-2.2 2.3-3.6c.6-1.4.8-2.9.8-4.5s-.3-3.1-.8-4.5c-.6-1.4-1.3-2.6-2.3-3.6s-2.2-1.8-3.5-2.4-2.8-.9-4.4-.9zm32.6-1.5c1.2 0 2.3.2 3.3.5 1 .4 1.8.9 2.4 1.5.7.6 1.2 1.4 1.5 2.2.4.9.5 1.8.5 2.8 0 1.8-.5 3.3-1.5 4.6-1 1.3-2.5 2.1-4.4 2.4l8.7 11.7h-2.4L223.1 77h-6.3v11.6h-2V62.8l8.9.1zm-6.8 1.8v10.5h6.6c1.9 0 3.4-.5 4.3-1.5 1-1 1.4-2.3 1.4-3.8s-.5-2.8-1.4-3.8c-1-1-2.4-1.5-4.3-1.5l-6.6.1zm43.7 0h-9.4v23.9h-2.1V64.7h-9.4v-1.8h20.9v1.8zm19.7-2.2c1.8 0 3.5.3 5.2 1 1.6.7 3 1.6 4.2 2.8 1.2 1.2 2.1 2.6 2.8 4.2.7 1.6 1 3.4 1 5.3s-.3 3.6-1 5.2-1.6 3-2.8 4.2c-1.2 1.2-2.6 2.1-4.2 2.8s-3.3 1-5.2 1c-1.8 0-3.6-.3-5.2-1s-3-1.6-4.2-2.8c-1.2-1.2-2.1-2.6-2.8-4.2-.7-1.6-1-3.4-1-5.2 0-1.9.3-3.6 1-5.3.7-1.6 1.6-3 2.8-4.2 1.2-1.2 2.6-2.1 4.2-2.8 1.7-.7 3.4-1 5.2-1zm.1 1.9c-1.6 0-3.1.3-4.4.9-1.4.6-2.5 1.4-3.5 2.4s-1.8 2.2-2.3 3.6c-.6 1.4-.8 2.9-.8 4.5s.3 3.1.8 4.5c.6 1.4 1.3 2.6 2.3 3.6s2.2 1.8 3.5 2.4c1.4.6 2.8.9 4.4.9s3-.3 4.4-.9 2.5-1.4 3.5-2.4 1.8-2.2 2.3-3.6c.6-1.4.8-2.9.8-4.5s-.3-3.1-.8-4.5c-.6-1.4-1.3-2.6-2.3-3.6s-2.2-1.8-3.5-2.4-2.8-.9-4.4-.9zm31.6 11l8.9 13.2h-2.3l-7.7-11.5-7.7 11.5h-2.3l8.9-13.2-8.3-12.5h2.3l7.1 10.9 7.1-10.9h2.3L312 75.4zm-91.6 38.5c1.3 0 2.5.3 3.5.9s1.9 1.3 2.5 2.2l-1.3 1c-.6-.8-1.2-1.4-2-1.9s-1.7-.7-2.7-.7c-.8 0-1.6.1-2.3.4-.7.3-1.3.7-1.8 1.2s-.9 1.1-1.2 1.9c-.3.7-.4 1.5-.4 2.3s.1 1.6.4 2.3c.3.7.7 1.3 1.2 1.9.5.5 1.1.9 1.8 1.2.7.3 1.5.4 2.3.4 1 0 1.9-.2 2.7-.7.8-.5 1.5-1.1 2-1.9l1.3 1c-.6.9-1.4 1.7-2.4 2.2-1.1.6-2.2.9-3.5.9-1 0-2-.2-2.9-.6s-1.7-.9-2.4-1.6c-.7-.7-1.2-1.5-1.6-2.4s-.6-1.9-.6-2.9c0-1.1.2-2 .6-2.9s.9-1.7 1.6-2.4 1.5-1.2 2.4-1.6c.8 0 1.8-.2 2.8-.2zM233 127h6.9v1.5h-8.6v-14.4h1.7V127zm12.8 1.5h-1.7v-14.4h1.7v14.4zm15.5-3.5v-10.9h1.7v14.7h-.6l-9.2-11.1v10.8h-1.7v-14.7h.6l9.2 11.2zm9.1 3.5h-1.7v-14.4h1.7v14.4zm12.3-14.6c1.3 0 2.5.3 3.5.9s1.9 1.3 2.5 2.2l-1.3 1c-.6-.8-1.2-1.4-2-1.9s-1.7-.7-2.7-.7c-.8 0-1.6.1-2.3.4-.7.3-1.3.7-1.8 1.2s-.9 1.1-1.2 1.9c-.3.7-.4 1.5-.4 2.3s.1 1.6.4 2.3c.3.7.7 1.3 1.2 1.9.5.5 1.1.9 1.8 1.2.7.3 1.5.4 2.3.4 1 0 1.9-.2 2.7-.7.8-.5 1.5-1.1 2-1.9l1.3 1c-.6.9-1.4 1.7-2.4 2.2-1.1.6-2.2.9-3.5.9-1 0-2-.2-2.9-.6s-1.7-.9-2.4-1.6c-.7-.7-1.2-1.5-1.6-2.4s-.6-1.9-.6-2.9c0-1.1.2-2 .6-2.9s.9-1.7 1.6-2.4c.7-.7 1.5-1.2 2.4-1.6.8 0 1.7-.2 2.8-.2zM100.4 54.6H75.6L63.2 76.1l12.4 21.5h24.8l12.4-21.5zm44.5 19.5h-26.6l-13.3-23 13.3-23h26.6l13.3 23-13.3 23zm-24.9-3h23.1l11.6-20-11.6-20H120l-11.6 20 11.6 20zm-74.8-6.2H18.6l-13.3-23 13.3-23h26.6l13.3 23-13.3 23zM20.4 62h23.1l11.6-20-11.6-20H20.4L8.8 42l11.6 20zm39.652 5.564L67.58 54.59l2.595 1.506-7.527 12.975z"/><path d="M54.46 57.322l1.504-2.595 9.948 5.77-1.505 2.594zm50.717 37.149l6.779-11.442 2.58 1.53L107.757 96z"/><path d="M109.466 90.766l1.57-2.557 9.375 5.754-1.57 2.557zM100.6 50.4h-7.9v-3H99l3-5 2.6 1.5z"/><path d="M122.7 103.1c-3.3 0-6-2.7-6-6s2.7-6 6-6 6 2.7 6 6-2.6 6-6 6zm0-9.1c-1.7 0-3 1.4-3 3 0 1.7 1.4 3 3 3 1.7 0 3-1.4 3-3 .1-1.6-1.3-3-3-3zm-41.3 10.3h-9.8l-5.3-8.7 2.5-1.5 4.5 7.3h8.1z"/><path d="M66.912 108.564l4.388-6.45 2.48 1.688-4.388 6.45zM32 16.1c-3.3 0-6-2.7-6-6s2.7-6 6-6 6 2.7 6 6-2.7 6-6 6zM32 7c-1.7 0-3 1.4-3 3 0 1.7 1.4 3 3 3 1.7 0 3-1.4 3-3s-1.4-3-3-3z"/><path class="st0" d="M25.1 71.8h-9.8L10 63l2.5-1.5 4.5 7.3h8.1z"/><path class="st0" d="M10.517 75.863l4.388-6.45 2.48 1.688-4.388 6.45z"/><path class="st0" d="M9.4 85c-3.3 0-6-2.7-6-6s2.7-6 6-6 6 2.7 6 6-2.7 6-6 6zm0-9.1c-1.7 0-3 1.4-3 3 0 1.7 1.4 3 3 3 1.7 0 3-1.4 3-3s-1.3-3-3-3z"/><path d="M178.7 51.9h146.9v1.6H178.7zm0 47.7h146.9v1.6H178.7z"/></svg>