<svg version="1.1" xmlns="http://www.w3.org/2000/svg" xmlns:xlink="http://www.w3.org/1999/xlink" x="0px" y="0px" viewBox="0 0 330.3 132.1" style="enable-background:new 0 0 330.3 132.1;" xml:space="preserve">
                  <style type="text/css">
                    .st0{fill:#2B9C96;}
                  </style>
                  <g>
                    <path d="M191,62.5c1.8,0,3.5,0.3,5.2,1c1.6,0.7,3,1.6,4.2,2.8c1.2,1.2,2.1,2.6,2.8,4.2c0.7,1.6,1,3.4,1,5.3s-0.3,3.6-1,5.2
                      s-1.6,3-2.8,4.2c-1.2,1.2-2.6,2.1-4.2,2.8s-3.3,1-5.2,1c-1.8,0-3.6-0.3-5.2-1s-3-1.6-4.2-2.8c-1.2-1.2-2.1-2.6-2.8-4.2
                      c-0.7-1.6-1-3.4-1-5.2c0-1.9,0.3-3.6,1-5.3c0.7-1.6,1.6-3,2.8-4.2c1.2-1.2,2.6-2.1,4.2-2.8C187.5,62.8,189.2,62.5,191,62.5z
                      M191.1,64.4c-1.6,0-3.1,0.3-4.4,0.9c-1.4,0.6-2.5,1.4-3.5,2.4s-1.8,2.2-2.3,3.6c-0.6,1.4-0.8,2.9-0.8,4.5s0.3,3.1,0.8,4.5
                      c0.6,1.4,1.3,2.6,2.3,3.6s2.2,1.8,3.5,2.4c1.4,0.6,2.8,0.9,4.4,0.9s3-0.3,4.4-0.9s2.5-1.4,3.5-2.4s1.8-2.2,2.3-3.6
                      c0.6-1.4,0.8-2.9,0.8-4.5s-0.3-3.1-0.8-4.5c-0.6-1.4-1.3-2.6-2.3-3.6s-2.2-1.8-3.5-2.4S192.7,64.4,191.1,64.4z"></path>
                    <path d="M223.7,62.9c1.2,0,2.3,0.2,3.3,0.5c1,0.4,1.8,0.9,2.4,1.5c0.7,0.6,1.2,1.4,1.5,2.2c0.4,0.9,0.5,1.8,0.5,2.8
                      c0,1.8-0.5,3.3-1.5,4.6c-1,1.3-2.5,2.1-4.4,2.4l8.7,11.7h-2.4L223.1,77h-6.3v11.6h-2V62.8L223.7,62.9L223.7,62.9z M216.9,64.7v10.5
                      h6.6c1.9,0,3.4-0.5,4.3-1.5c1-1,1.4-2.3,1.4-3.8s-0.5-2.8-1.4-3.8c-1-1-2.4-1.5-4.3-1.5L216.9,64.7L216.9,64.7z"></path>
                    <path d="M260.6,64.7h-9.4v23.9h-2.1V64.7h-9.4v-1.8h20.9V64.7z"></path>
                    <path d="M280.3,62.5c1.8,0,3.5,0.3,5.2,1c1.6,0.7,3,1.6,4.2,2.8c1.2,1.2,2.1,2.6,2.8,4.2c0.7,1.6,1,3.4,1,5.3s-0.3,3.6-1,5.2
                      s-1.6,3-2.8,4.2c-1.2,1.2-2.6,2.1-4.2,2.8s-3.3,1-5.2,1c-1.8,0-3.6-0.3-5.2-1s-3-1.6-4.2-2.8c-1.2-1.2-2.1-2.6-2.8-4.2
                      c-0.7-1.6-1-3.4-1-5.2c0-1.9,0.3-3.6,1-5.3c0.7-1.6,1.6-3,2.8-4.2c1.2-1.2,2.6-2.1,4.2-2.8C276.8,62.8,278.5,62.5,280.3,62.5z
                      M280.4,64.4c-1.6,0-3.1,0.3-4.4,0.9c-1.4,0.6-2.5,1.4-3.5,2.4s-1.8,2.2-2.3,3.6c-0.6,1.4-0.8,2.9-0.8,4.5s0.3,3.1,0.8,4.5
                      c0.6,1.4,1.3,2.6,2.3,3.6s2.2,1.8,3.5,2.4c1.4,0.6,2.8,0.9,4.4,0.9s3-0.3,4.4-0.9s2.5-1.4,3.5-2.4s1.8-2.2,2.3-3.6
                      c0.6-1.4,0.8-2.9,0.8-4.5s-0.3-3.1-0.8-4.5c-0.6-1.4-1.3-2.6-2.3-3.6s-2.2-1.8-3.5-2.4S282,64.4,280.4,64.4z"></path>
                    <path d="M312,75.4l8.9,13.2h-2.3l-7.7-11.5l-7.7,11.5h-2.3l8.9-13.2l-8.3-12.5h2.3l7.1,10.9l7.1-10.9h2.3L312,75.4z"></path>
                  </g>
                  <g>
                    <path d="M220.4,113.9c1.3,0,2.5,0.3,3.5,0.9s1.9,1.3,2.5,2.2l-1.3,1c-0.6-0.8-1.2-1.4-2-1.9s-1.7-0.7-2.7-0.7
                      c-0.8,0-1.6,0.1-2.3,0.4c-0.7,0.3-1.3,0.7-1.8,1.2s-0.9,1.1-1.2,1.9c-0.3,0.7-0.4,1.5-0.4,2.3s0.1,1.6,0.4,2.3
                      c0.3,0.7,0.7,1.3,1.2,1.9c0.5,0.5,1.1,0.9,1.8,1.2c0.7,0.3,1.5,0.4,2.3,0.4c1,0,1.9-0.2,2.7-0.7c0.8-0.5,1.5-1.1,2-1.9l1.3,1
                      c-0.6,0.9-1.4,1.7-2.4,2.2c-1.1,0.6-2.2,0.9-3.5,0.9c-1,0-2-0.2-2.9-0.6s-1.7-0.9-2.4-1.6c-0.7-0.7-1.2-1.5-1.6-2.4
                      S213,122,213,121c0-1.1,0.2-2,0.6-2.9s0.9-1.7,1.6-2.4s1.5-1.2,2.4-1.6C218.4,114.1,219.4,113.9,220.4,113.9z"></path>
                    <path d="M233,127h6.9v1.5h-8.6v-14.4h1.7V127z"></path>
                    <path d="M245.8,128.5h-1.7v-14.4h1.7V128.5z"></path>
                    <path d="M261.3,125v-10.9h1.7v14.7h-0.6l-9.2-11.1v10.8h-1.7v-14.7h0.6L261.3,125z"></path>
                    <path d="M270.4,128.5h-1.7v-14.4h1.7V128.5z"></path>
                    <path d="M282.7,113.9c1.3,0,2.5,0.3,3.5,0.9s1.9,1.3,2.5,2.2l-1.3,1c-0.6-0.8-1.2-1.4-2-1.9s-1.7-0.7-2.7-0.7
                      c-0.8,0-1.6,0.1-2.3,0.4c-0.7,0.3-1.3,0.7-1.8,1.2s-0.9,1.1-1.2,1.9c-0.3,0.7-0.4,1.5-0.4,2.3s0.1,1.6,0.4,2.3
                      c0.3,0.7,0.7,1.3,1.2,1.9c0.5,0.5,1.1,0.9,1.8,1.2c0.7,0.3,1.5,0.4,2.3,0.4c1,0,1.9-0.2,2.7-0.7c0.8-0.5,1.5-1.1,2-1.9l1.3,1
                      c-0.6,0.9-1.4,1.7-2.4,2.2c-1.1,0.6-2.2,0.9-3.5,0.9c-1,0-2-0.2-2.9-0.6s-1.7-0.9-2.4-1.6c-0.7-0.7-1.2-1.5-1.6-2.4
                      s-0.6-1.9-0.6-2.9c0-1.1,0.2-2,0.6-2.9s0.9-1.7,1.6-2.4c0.7-0.7,1.5-1.2,2.4-1.6C280.7,114.1,281.6,113.9,282.7,113.9z"></path>
                  </g>
                  <g>
                    <polygon points="100.4,54.6 75.6,54.6 63.2,76.1 75.6,97.6 100.4,97.6 112.8,76.1 	"></polygon>
                    <path d="M144.9,74.1h-26.6l-13.3-23l13.3-23h26.6l13.3,23L144.9,74.1z M120,71.1h23.1l11.6-20l-11.6-20H120l-11.6,20L120,71.1z"></path>
                    <path d="M45.2,64.9H18.6l-13.3-23l13.3-23h26.6l13.3,23L45.2,64.9z M20.4,62h23.1l11.6-20L43.5,22H20.4L8.8,42L20.4,62z"></path>
                    <g>
                      <rect x="57.6" y="60.3" transform="matrix(0.5018 -0.865 0.865 0.5018 -21.011 87.1299)" width="15" height="3"></rect>
                      <rect x="58.7" y="53.2" transform="matrix(0.5017 -0.865 0.865 0.5017 -21.0087 81.4069)" width="3" height="11.5"></rect>
                    </g>
                    <g>
                      <rect x="103.2" y="88" transform="matrix(0.5097 -0.8603 0.8603 0.5097 -23.1309 138.4007)" width="13.3" height="3"></rect>
                      <rect x="113.4" y="86.9" transform="matrix(0.5231 -0.8523 0.8523 0.5231 -23.9181 141.9591)" width="3" height="11"></rect>
                    </g>
                    <polygon points="100.6,50.4 92.7,50.4 92.7,47.4 99,47.4 102,42.4 104.6,43.9 	"></polygon>
                    <path d="M122.7,103.1c-3.3,0-6-2.7-6-6s2.7-6,6-6s6,2.7,6,6S126.1,103.1,122.7,103.1z M122.7,94c-1.7,0-3,1.4-3,3c0,1.7,1.4,3,3,3
                      c1.7,0,3-1.4,3-3C125.8,95.4,124.4,94,122.7,94z"></path>
                    <polygon points="81.4,104.3 71.6,104.3 66.3,95.6 68.8,94.1 73.3,101.4 81.4,101.4 	"></polygon>
                    <rect x="66.4" y="104.7" transform="matrix(0.5626 -0.8268 0.8268 0.5626 -57.0106 104.559)" width="7.8" height="3"></rect>
                    <path d="M32,16.1c-3.3,0-6-2.7-6-6s2.7-6,6-6s6,2.7,6,6S35.3,16.1,32,16.1z M32,7c-1.7,0-3,1.4-3,3c0,1.7,1.4,3,3,3
                      c1.7,0,3-1.4,3-3S33.6,7,32,7z"></path>
                    <g>
                      <polygon class="st0" points="25.1,71.8 15.3,71.8 10,63 12.5,61.5 17,68.8 25.1,68.8 		"></polygon>
                      <rect x="10.1" y="72" transform="matrix(0.5626 -0.8268 0.8268 0.5626 -54.6953 43.7061)" class="st0" width="7.8" height="3"></rect>
                      <path class="st0" d="M9.4,85c-3.3,0-6-2.7-6-6s2.7-6,6-6s6,2.7,6,6S12.7,85,9.4,85z M9.4,75.9c-1.7,0-3,1.4-3,3c0,1.7,1.4,3,3,3
                        c1.7,0,3-1.4,3-3C12.4,77.3,11.1,75.9,9.4,75.9z"></path>
                    </g>
                  </g>
                  <rect x="178.7" y="51.9" width="146.9" height="1.6"></rect>
                  <rect x="178.7" y="99.6" width="146.9" height="1.6"></rect>
                </svg>